<?xml version="1.0" encoding="utf-8"?>
<!-- Generator: Adobe Illustrator 14.0.0, SVG Export Plug-In . SVG Version: 6.00 Build 43363)  -->
<!DOCTYPE svg PUBLIC "-//W3C//DTD SVG 1.1//EN" "http://www.w3.org/Graphics/SVG/1.1/DTD/svg11.dtd">
<svg version="1.1" id="Capa_1" xmlns="http://www.w3.org/2000/svg" xmlns:xlink="http://www.w3.org/1999/xlink" x="0px" y="0px"
	 width="64px" height="64px" viewBox="0 0 64 64" enable-background="new 0 0 64 64" xml:space="preserve">
<g>
	<g>
		<path fill="#EED500" d="M23.931,18.213c-1.148-1.326,0.708-4.417,1.768-5.565c1.678-1.855,4.292-3.003,6.765-3.003
			c2.032,0,4.089,1.06,5.679,2.297c1.061,0.707,1.573,1.678,1.927,2.916c0.265,0.972-0.248,2.208,0.901,2.739
			c0-0.618-0.089-1.382-0.354-2c0.089,3.003,1.502,3.502,3.799,5.092c2.209,1.502,3.635,3.269,5.225,5.389
			c1.325,1.855,2.903,4.186,3.257,6.396c0.177,1.148-0.342,1.82-0.254,2.88c0.267,2.031,0.178,1.68,1.769,2.385
			c4.858,2.387,8.026,6.803,5.376,11.662c-1.325,2.475-2.196,3.533-5.023,4.594c-1.943,0.705-3.534,0.883-5.478,1.061
			c-3.444,0.441-7.774-0.088-11.042,0.885c-0.885,0.354-1.502,0.971-2.475,1.234c-0.971,0.266-2.031,0.266-3.092,0.354
			c-1.061,0.178-1.767,0.531-2.827,0c-0.972-0.529-1.414-1.855-2.385-2.385c-1.061,1.414-1.325,1.326-3.093,1.15
			c-1.06-0.09-2.12-0.09-3.18-0.266c0.176-0.266-1.061,0.354-0.884,0.088c-1.06-0.266-1.236-0.973-2.032-0.266
			c0.266,0.09,0.442,0.178,0.707,0.266c-2.12,0.707-4.153-0.707-6.096-1.416c-2.208-0.793-4.947-1.5-6.449-3.533
			c-1.413-1.766-1.501-4.328-0.883-6.359c0.883-2.65,2.297-3.533,3.976-5.479c1.236-1.5,2.297-3.975,3.003-5.83
			c0.706-1.943,1.104-3.746,1.755-5.741C15.704,23.426,19.768,20.599,23.931,18.213"/>
		<g>
			<path fill="#EED500" d="M25.227,17.457c0.048-1.459,0.559-2.708,1.533-3.748c2.383-2.959,6.237-2.98,9.354-1.353
				c2.806,1.464,2.005,4.393,3.797,6.3c0.857,0.913,2.663,0.255,2.561-1.061c-0.074-0.957-0.151-1.471-0.408-2.399
				c-0.438-1.583-3.146-1.321-2.946,0.399c0.626,5.366,6.136,7.198,9.229,11.237c2.282,2.982,2.328,5.335,2.852,8.917
				c0.277,1.9,0.697,2.537,2.458,3.281c4.626,1.957,6.82,6.102,4.202,10.736c-2.167,3.834-7.859,3.836-11.694,3.982
				c-2.824,0.109-5.55,0.111-8.316,0.74c-4.256,0.969-5.872,2.635-9.319-0.41c-0.574-0.508-1.568-0.65-2.121,0
				c-2.135,2.508-6.357-0.723-8.885,0.473c-1.29,0.609-0.731,2.334,0.358,2.742c0.236,0.088,0.472,0.176,0.707,0.264
				c0.133-0.982,0.266-1.963,0.399-2.945c-3.946,0.443-11.81-2.824-12.292-7.201c-0.414-3.758,3.814-6.527,5.522-9.494
				c1.468-2.553,2.271-5.495,3.072-8.299c1.419-4.966,5.156-7.619,9.401-10.11c1.667-0.979,0.158-3.572-1.514-2.591
				c-3.757,2.206-8.131,4.932-9.829,9.184c-1.189,2.977-1.83,6.108-3.111,9.059c-1.111,2.559-3.232,4.102-4.675,6.375
				c-1.936,3.049-2.94,7.713-0.18,10.689c2.918,3.146,9.417,5.859,13.605,5.389c1.69-0.189,2.033-2.336,0.399-2.947
				c-0.236-0.088-0.472-0.176-0.707-0.264c0.119,0.914,0.239,1.826,0.358,2.74c0.027-0.012,3.733,0.545,3.749,0.547
				c2.492,0.26,4.077,0.469,5.743-1.488c-0.707,0-1.414,0-2.121,0c1.62,1.43,2.707,3.514,5.257,3.037
				c4.882-0.916,9.503-2.398,14.5-2.488c6.002-0.105,13.954-1.27,15.653-8.266c0.64-2.635,0.356-4.738-0.92-7.141
				c-0.671-1.264-1.897-2.283-2.966-3.174c-0.584-0.486-3.496-1.635-3.676-2.086c-0.543-1.363,0.161-3.736-0.258-5.347
				c-0.512-1.967-1.92-3.783-3.062-5.418c-0.932-1.335-2.017-2.569-3.123-3.757c-1.747-1.875-5.355-3.055-5.695-5.966
				c-0.982,0.133-1.964,0.266-2.946,0.399c0.101,0.534,0.2,1.068,0.301,1.602c0.854-0.354,1.707-0.707,2.561-1.061
				c-0.6-0.638-0.626-2.379-0.937-3.226c-0.39-1.063-1.076-1.703-1.892-2.429c-2.171-1.935-5.714-3.317-8.63-2.548
				c-4.314,1.137-10.135,5.531-7.937,10.638C23.399,20.743,25.982,19.213,25.227,17.457L25.227,17.457z"/>
		</g>
	</g>
	<g>
		<path d="M26.923,44.805c-2.12,0-4.24,0.266-6.272,0.707c-1.679,0.354-6.337,0.883-4.394,2.65c1.06,0.973,5.542,2.826,7.044,2.297
			c1.236-0.441,3.446-4.418,3.357-5.654"/>
		<g>
			<path d="M26.923,44.055c-3.345,0.053-7.226,0.441-10.386,1.668c-2.199,0.854-1.518,2.625,0.127,3.631
				c1.61,0.986,5.113,2.715,7.015,1.752c1.917-0.969,3.653-4.199,3.729-6.301c0.035-0.967-1.465-0.963-1.5,0
				c-0.057,1.576-1.352,3.414-2.361,4.543c-1.135,1.271-4.179-0.324-5.373-0.889c-0.148-0.07-1.881-0.887-1.374-1.213
				c0.72-0.463,1.772-0.574,2.595-0.738c2.498-0.494,4.974-0.914,7.528-0.953C27.89,45.541,27.891,44.041,26.923,44.055
				L26.923,44.055z"/>
		</g>
	</g>
	<g>
		<path d="M38.938,45.07c0.354,0.883,2.385,5.654,3.18,6.006c1.326,0.709,5.124-0.971,6.096-1.943
			c2.739-2.738-1.502-2.473-3.357-2.738c-1.767-0.266-3.356-1.059-5.123-1.324"/>
		<g>
			<path d="M38.215,45.27c0.804,1.979,1.605,4.271,2.965,5.939c1.485,1.822,4.729,0.195,6.326-0.664
				c1.41-0.76,3.497-2.916,1.499-4.203c-0.792-0.51-1.988-0.504-2.894-0.578c-2.141-0.176-4.081-1.025-6.179-1.418
				c-0.945-0.176-1.349,1.27-0.398,1.447c2.112,0.395,4.079,1.266,6.236,1.443c0.724,0.061,1.44,0.109,2.148,0.281
				c1.182,0.287-1.135,1.713-1.54,1.932c-0.871,0.469-1.818,0.779-2.783,0.988c-1.169,0.252-1.429-0.361-1.929-1.258
				c-0.771-1.377-1.412-2.848-2.005-4.309C39.303,43.986,37.852,44.373,38.215,45.27L38.215,45.27z"/>
		</g>
	</g>
	<g>
		<path fill="#FAFAF9" d="M16.102,33.938c0.265-5.829,7.951-10.998,12.721-12.985c-6.493-2.385-16.034,6.493-13.118,13.118"/>
		<g>
			<path fill="#FAFAF9" d="M16.852,33.938c0.543-6.005,7.346-10.18,12.349-12.337c0.641-0.276,0.375-1.194-0.179-1.371
				c-7.36-2.344-16.966,6.499-14.041,14.04c0.346,0.893,1.797,0.506,1.446-0.398c-2.511-6.473,5.86-14.213,12.196-12.195
				c-0.06-0.457-0.12-0.914-0.179-1.371c-5.574,2.403-12.493,7.013-13.092,13.632C15.264,34.902,16.765,34.893,16.852,33.938
				L16.852,33.938z"/>
		</g>
	</g>
	<g>
		<path fill="#FAFAF9" d="M31.208,48.25c-0.927,0.398-1.59,1.061-1.987,1.988c-0.266-1.193,0.397-2.252,1.722-2.252"/>
		<g>
			<path fill="#FAFAF9" d="M30.83,47.604c-1.012,0.453-1.802,1.244-2.256,2.256c0.457,0.061,0.914,0.119,1.371,0.18
				c-0.143-0.734,0.243-1.281,0.999-1.303c0.965-0.029,0.968-1.529,0-1.5c-1.777,0.053-2.775,1.506-2.445,3.201
				c0.119,0.609,1.107,0.764,1.371,0.18c0.365-0.813,0.906-1.354,1.718-1.719c0.373-0.168,0.459-0.703,0.269-1.027
				C31.633,47.492,31.202,47.436,30.83,47.604L30.83,47.604z"/>
		</g>
	</g>
	<g>
		<path fill="#C4A003" d="M32.003,56.863c1.988-1.59,3.711-3.576,5.168-5.566c0.663,3.313-1.724,6.76-5.299,5.699"/>
		<g>
			<path fill="#C4A003" d="M32.533,57.395c2.029-1.654,3.732-3.619,5.285-5.719c-0.457-0.061-0.914-0.119-1.371-0.18
				c0.472,2.736-1.387,5.559-4.376,4.775c-0.937-0.244-1.334,1.203-0.398,1.447c4.171,1.09,6.884-2.777,6.222-6.621
				c-0.123-0.713-1.032-0.637-1.371-0.18c-1.477,1.996-3.125,3.844-5.051,5.416C30.723,56.945,31.791,58,32.533,57.395
				L32.533,57.395z"/>
		</g>
	</g>
	<g>
		<g>
			<path d="M12.433,35.793c0.468-6.869,4.306-15.695,12.105-16.345c1.914-0.159,1.929-3.161,0-3
				c-9.591,0.799-14.515,10.678-15.105,19.345C9.301,37.725,12.302,37.713,12.433,35.793L12.433,35.793z"/>
		</g>
	</g>
	<g>
		<g>
			<path d="M24.271,17.772c0.637-10.16,15.223-10.317,16.436-0.354c0.23,1.895,3.233,1.917,3,0
				C42.034,3.677,22.154,3.702,21.271,17.772C21.15,19.705,24.151,19.693,24.271,17.772L24.271,17.772z"/>
		</g>
	</g>
	<g>
		<g>
			<path d="M40.572,19.042c6.786,2.4,12.979,9.633,12.149,17.106c-0.214,1.92,2.789,1.9,3,0c0.981-8.834-6.412-17.191-14.353-19.999
				C39.541,15.502,38.761,18.402,40.572,19.042L40.572,19.042z"/>
		</g>
	</g>
	<g>
		<g>
			<path d="M9.824,35.029C4.66,38.686,0.295,46.051,4.622,51.953c4.328,5.906,15.714,6.52,22.302,6.4c1.932-0.033,1.936-3.033,0-3
				c-5.703,0.104-11.901-0.658-17.105-3.111c-7.043-3.318-3.264-11.234,1.52-14.623C12.902,36.51,11.406,33.908,9.824,35.029
				L9.824,35.029z"/>
		</g>
	</g>
	<g>
		<g>
			<path d="M54,37.77c5.266,1.131,8.539,8.711,4.548,12.896c-4.219,4.422-13.848,4.266-19.433,4.301c-1.934,0.014-1.936,3.014,0,3
				c7.135-0.047,19.094-0.191,23.156-7.324c3.365-5.906-1.17-14.412-7.475-15.766C52.911,34.473,52.108,37.365,54,37.77L54,37.77z"
				/>
		</g>
	</g>
	<g>
		<g>
			<path d="M28.729,43.686c-6.147,4.197-5.769,15.514,2.61,16.732c3.841,0.559,8.361-1.459,9.704-5.275
				c1.457-4.145-0.401-8.473-3.605-11.223c-1.461-1.252-3.592,0.859-2.121,2.121c4.649,3.988,4.198,11.344-3,11.467
				c-6.026,0.104-6-8.551-2.074-11.232C31.83,45.193,30.331,42.592,28.729,43.686L28.729,43.686z"/>
		</g>
	</g>
	<g>
		<g>
			<path d="M24.538,49.313c-2.561-0.098-5.28-0.678-7.595-1.795c0.233,0.113,4.784-1.518,5.442-1.639
				c2.432-0.453,4.952-0.488,7.418-0.496c4.457-0.016,9.012,0.4,13.414,1.094c1.274,0.201,2.514,0.545,3.738,0.939
				c3.686,1.189-4.979,2.514-5.809,2.604c-1.902,0.205-1.922,3.207,0,3c2.015-0.219,13.791-1.92,9.784-6.553
				c-3.828-4.426-14.675-3.936-19.678-4.047c-2.881-0.064-18.205-0.477-17.841,4.83c0.291,4.24,7.978,4.941,11.126,5.063
				C26.473,52.387,26.466,49.387,24.538,49.313L24.538,49.313z"/>
		</g>
	</g>
	<g>
		<g>
			<path d="M26.161,51.033c0.495-1.883,1.262-3.723,2.795-4.992c1.492-1.234-0.643-3.344-2.121-2.121
				c-1.901,1.572-2.953,3.979-3.566,6.316C22.777,52.109,25.67,52.902,26.161,51.033L26.161,51.033z"/>
		</g>
	</g>
	<g>
		<g>
			<path d="M42.646,51.164c0.088-2.771-1.835-5.01-3.443-7.064c-1.19-1.523-3.299,0.615-2.121,2.121
				c1.095,1.4,2.625,3.055,2.564,4.943C39.585,53.1,42.585,53.094,42.646,51.164L42.646,51.164z"/>
		</g>
	</g>
	<g>
		<g>
			<path d="M5.304,45.453c17.029-8.725,38.677-9.557,55.43,0c0.842,0.48,1.598-0.816,0.758-1.295
				c-17.236-9.832-39.431-8.973-56.944,0C3.686,44.6,4.445,45.893,5.304,45.453L5.304,45.453z"/>
		</g>
	</g>
	<g>
		<g>
			<path d="M11.31,37.047c14.091-4.472,28.921-5.433,42.89,0c0.902,0.352,1.29-1.1,0.398-1.447c-14.188-5.517-29.374-4.542-43.687,0
				C9.993,35.893,10.385,37.34,11.31,37.047L11.31,37.047z"/>
		</g>
	</g>
	<g>
		<path d="M26.394,17.948c2.297,0,4.505,0,6.802,0c1.414,0,4.506,0.531,5.566-0.353c-2.563-0.796-3.181-4.683-6.361-4.506
			c-1.679,0.089-1.855,0.972-2.739,2.12c-0.884,1.149-2.385,1.326-3.181,2.474"/>
		<g>
			<path d="M26.394,18.698c2.6,0,5.227-0.113,7.821,0.048c1.634,0.102,3.454,0.376,4.926-0.503c0.603-0.36,0.4-1.139-0.18-1.371
				c-2.357-0.944-3.117-4.456-5.993-4.521c-1.177-0.026-2.086,0.189-2.917,1.039c-0.7,0.717-0.889,1.413-1.809,2.068
				c-0.817,0.582-1.613,0.938-2.292,1.694c-0.644,0.717,0.413,1.782,1.061,1.061c0.92-1.025,2.223-1.486,3.181-2.474
				c1.178-1.215,1.821-2.581,3.806-1.485c1.846,1.019,2.48,3.229,4.564,4.064c-0.06-0.457-0.119-0.914-0.18-1.371
				c-1.31,0.783-3.265,0.354-4.717,0.264c-2.406-0.15-4.861-0.014-7.272-0.014C25.426,17.198,25.426,18.698,26.394,18.698
				L26.394,18.698z"/>
		</g>
	</g>
</g>
</svg>
