<?xml version="1.0" encoding="utf-8"?>
<!-- Generator: Adobe Illustrator 14.0.0, SVG Export Plug-In . SVG Version: 6.00 Build 43363)  -->
<!DOCTYPE svg PUBLIC "-//W3C//DTD SVG 1.1//EN" "http://www.w3.org/Graphics/SVG/1.1/DTD/svg11.dtd">
<svg version="1.1" id="Capa_1" xmlns="http://www.w3.org/2000/svg" xmlns:xlink="http://www.w3.org/1999/xlink" x="0px" y="0px"
	 width="64px" height="64px" viewBox="0 0 64 64" enable-background="new 0 0 64 64" xml:space="preserve">
<g>
	<g>
		<path fill="#CB0A1D" d="M21.946,11.936c4.203-0.35,7.882,6.832,8.932,10.16c1.052,3.854,1.402,8.058,0.702,12.086
			c-1.576,8.582-8.232,20.494-17.691,11.734c-7.181-6.654-5.43-34.506,7.533-34.155"/>
		<g>
			<path fill="#CB0A1D" d="M21.946,16.436c2.135,0.106,4.016,5.191,4.592,6.856c1.467,4.234,1.069,8.958-0.169,13.169
				c-0.857,2.912-2.427,6.143-5.072,7.795c-2.169,1.355-4.938-1.926-5.676-3.756c-2.148-5.328-3.114-24.07,5.8-24.239
				c5.796-0.11,5.807-9.11,0-9C2.898,7.612,0.249,40.277,11.923,50.125c10.814,9.123,20.473-2.26,23.47-12.449
				c2.866-9.744-0.316-29.587-13.448-30.24C16.143,7.147,16.17,16.148,21.946,16.436L21.946,16.436z"/>
		</g>
	</g>
	<g>
		<path fill="#72B220" d="M27.267,6.633c6.597,3.979,20.151-0.484,25.98,6.292c5.734,6.669,7.949,18.577,4.063,26.389
			c-4.948,9.549-16.289,16.396-27.366,14.667c7.378-2.356,5.071-6.675,7.755-11.89c-0.354,0.174,0.176-0.346,0,0
			C39.643,29.94,37.331,13.646,27.267,6.633"/>
		<g>
			<path fill="#72B220" d="M25.753,9.224c4.763,2.505,10.198,2.295,15.437,2.539c3.111,0.145,6.603,0.445,9.134,2.462
				c2.715,2.165,4.119,6.229,5.058,9.418c4.627,15.726-10.17,29.211-25.437,27.338c0.266,1.964,0.532,3.929,0.797,5.893
				c2.789-1.036,4.848-2.229,6.661-4.605c1.826-2.394,1.662-5.981,2.888-8.663c0.561-1.227,0.569-2.631-0.47-3.635
				c-0.022-0.021-0.044-0.043-0.066-0.064c-2.781-2.689-7.028,1.549-4.242,4.242c0.021,0.021,0.044,0.043,0.066,0.064
				c1.46,1.412,4.672,1.017,5.014-1.323c2.006-13.731,0.045-29.98-11.811-38.847C25.679,1.723,22.694,6.936,25.753,9.224
				c9.378,7.014,10.617,21.369,9.054,32.07c1.671-0.441,3.343-0.882,5.014-1.323c-0.022-0.021-0.044-0.043-0.066-0.064
				c-2.781-2.689-7.028,1.549-4.242,4.242c0.021,0.021,0.044,0.043,0.066,0.064c-0.156-1.212-0.313-2.424-0.47-3.635
				c-1.806,3.953-1.359,8.8-5.961,10.511c-3.298,1.226-2.557,5.481,0.797,5.893C47.205,59.1,63.605,44.662,62.085,27.131
				c-0.629-7.26-4.082-16.053-10.988-19.415c-6.973-3.393-15.57-0.125-22.315-3.673C25.36,2.243,22.328,7.422,25.753,9.224
				L25.753,9.224z"/>
		</g>
	</g>
	<g>
		<g>
			<path fill="#FFFFFF" d="M24.35,11.164c7.292,6.609,7.945,16.083,6.237,25.158c-1.277,6.782-6.815,16.603-15.2,12.006
				c-5.628-3.084-6.839-13.046-6.932-18.702c-0.123-7.485,6.215-24.4,16.426-18.052c2.884,1.793,5.518-2.75,2.649-4.533
				C16.117-0.055,6.586,12.554,4.005,22.549c-2.395,9.273-0.164,22.85,7.369,29.32c3.687,3.167,8.996,3.246,13.374,1.646
				c4.956-1.812,7.785-6.485,9.608-11.146c4.489-11.477,3.205-26.309-6.293-34.917C25.561,5.185,21.836,8.886,24.35,11.164
				L24.35,11.164z"/>
		</g>
	</g>
	<g>
		<g>
			<path d="M21.776,5.928c19.885,8.565,18.277,36.535,3.052,48.828c-1.129,0.912,0.473,2.494,1.591,1.592
				c16.296-13.158,17.635-43.256-3.507-52.362C21.594,3.417,20.447,5.355,21.776,5.928L21.776,5.928z"/>
		</g>
	</g>
	<g>
		<g>
			<path d="M23.61,6.429c6.875-0.027,13.833-0.496,20.531,1.358c7.729,2.139,13.238,8.925,15.338,16.421
				c1.983,7.081-0.373,14.655-4.767,20.301c-5.308,6.82-13.332,9.537-21.684,9.969c-4.005,0.207-8.044-0.209-12.018-0.662
				c-3.802-0.436-7.334-0.701-10.328-3.273c-4.364-3.75-5.69-10.523-6.166-15.947C3.416,22.032,9.202,6.814,23.61,6.429
				c1.931-0.052,1.936-3.052,0-3C7.743,3.854,0.993,19.345,1.449,33.441c0.213,6.594,2.014,13.48,6.415,18.525
				c5.22,5.986,16.358,5.471,23.493,5.545c17.393,0.176,33.604-12.68,31.559-31.174c-0.884-7.991-5.988-15.014-12.705-19.177
				c-7.764-4.813-17.913-3.766-26.6-3.731C21.676,3.437,21.675,6.437,23.61,6.429L23.61,6.429z"/>
		</g>
	</g>
	<g>
		<path fill="#359A2D" d="M34.732,9.308c-0.118,6.37,16.465,5.08,19.618,7.708C52.774,11.936,38.936,10.009,34.732,9.308"/>
		<g>
			<path fill="#359A2D" d="M34.357,9.308c0.463,7.813,15.3,4.83,19.804,8.032c0.258,0.183,0.672-0.123,0.551-0.423
				c-2.545-6.358-14.198-7.037-19.88-7.97c-0.473-0.078-0.676,0.645-0.199,0.724c3.185,0.523,6.355,1.069,9.488,1.855
				c2.203,0.552,4.358,1.284,6.396,2.29c0.829,0.409,1.573,0.939,2.274,1.539c0.661,0.565,2.261,1.425,0.621,0.726
				c-4.137-1.763-17.937-0.554-18.305-6.772C35.079,8.828,34.329,8.825,34.357,9.308L34.357,9.308z"/>
		</g>
	</g>
	<g>
		<path fill="#359A2D" d="M56.452,23.671c-5.08-3.678-10.859-6.481-16.991-6.655C38.32,23.077,53.797,22.61,56.452,23.671"/>
		<g>
			<path fill="#359A2D" d="M56.831,23.024c-5.231-3.698-10.896-6.401-17.37-6.758c-0.443-0.024-0.704,0.362-0.75,0.75
				c-0.877,7.39,13.387,5.96,17.542,7.378c0.918,0.313,1.309-1.136,0.398-1.446c-3.5-1.195-17.125-0.167-16.44-5.932
				c-0.25,0.25-0.5,0.5-0.75,0.75c6.202,0.341,11.616,3.021,16.612,6.553C56.865,24.879,57.613,23.577,56.831,23.024L56.831,23.024z
				"/>
		</g>
	</g>
	<g>
		<g>
			<path fill="#359A2D" d="M41.563,24.547c-0.174,0.7,0,3.151-0.174,3.853c4.904,1.4,11.21-0.875,16.29,0"/>
			<g>
				<path fill="#359A2D" d="M40.813,24.547c-0.163,1.28-0.011,2.573-0.174,3.853c-0.04,0.317,0.258,0.654,0.551,0.723
					c5.471,1.293,10.979-0.708,16.489,0.027c0.957,0.127,0.944-1.374,0-1.5c-3.453-0.46-6.875,0.104-10.32,0.385
					c-0.535,0.043-5.184,0.082-5.158-0.115c0.142-1.115-0.03-2.253,0.112-3.373C42.435,23.59,40.933,23.602,40.813,24.547
					L40.813,24.547z"/>
			</g>
		</g>
		<g>
			<path fill="#359A2D" d="M41.563,24.547c5.081,1.401,11.037,2.102,16.116,3.853"/>
			<g>
				<path fill="#359A2D" d="M41.363,25.271c5.346,1.413,10.852,2.126,16.116,3.853c0.922,0.302,1.313-1.146,0.398-1.446
					c-5.264-1.726-10.771-2.44-16.116-3.853C40.825,23.577,40.429,25.024,41.363,25.271L41.363,25.271z"/>
			</g>
		</g>
	</g>
	<g>
		<path fill="#359A2D" d="M57.504,33.305c-4.555,2.277-10.686,1.928-15.766,1.928c-0.176,0.701-0.35,2.102-0.176,2.803
			C45.417,38.385,54.526,36.283,57.504,33.305"/>
		<g>
			<path fill="#359A2D" d="M57.125,32.657c-4.812,2.19-10.228,1.843-15.387,1.825c-0.315-0.001-0.659,0.228-0.724,0.551
				c-0.199,1.006-0.316,1.976-0.202,3.002c0.047,0.426,0.307,0.724,0.75,0.75c5.3,0.317,12.464-1.311,16.472-4.95
				c0.718-0.651-0.347-1.709-1.061-1.061c-3.684,3.345-10.557,4.802-15.411,4.511c0.25,0.25,0.5,0.5,0.75,0.75
				c-0.231-2.081,0.51-2.048,2.377-2.035c1.712,0.011,3.419-0.025,5.129-0.127c2.801-0.168,5.509-0.758,8.064-1.921
				C58.762,33.552,57.999,32.259,57.125,32.657L57.125,32.657z"/>
		</g>
	</g>
	<g>
		<path fill="#359A2D" d="M54.351,40.186c-2.757,1.551-5.652,2.99-9.1,3.322c-2.895,0.223-5.514-0.887-5.79,2.215
			C44.425,47.053,51.594,43.176,54.351,40.186"/>
		<g>
			<path fill="#359A2D" d="M53.594,38.891c-3.696,2.047-7.049,3.199-11.292,3.098c-2.306-0.055-3.881,1.039-4.287,3.336
				c-0.136,0.768,0.194,1.662,1.048,1.846c5.785,1.24,12.335-1.82,16.349-5.924c1.354-1.383-0.767-3.506-2.121-2.121
				c-3.222,3.293-8.734,6.158-13.431,5.152c0.35,0.615,0.699,1.23,1.048,1.844c0.317-1.793,5.244-1.197,6.748-1.49
				c2.633-0.514,5.131-1.863,7.452-3.15C56.8,40.543,55.287,37.951,53.594,38.891L53.594,38.891z"/>
		</g>
	</g>
	<g>
		<path fill="#359A2D" d="M52.007,46.391c-2.926,1.664-3.951,1.524-7.444,2.234c-2.329,0.474-9.867-0.875-9.831,3.3
			C33.863,54.859,48.703,48.546,52.007,46.391"/>
		<g>
			<path fill="#359A2D" d="M51.817,46.066c-4.599,2.482-9.244,1.784-14.157,2.612c-1.229,0.208-4.82,2.34-3.1,4.06
				c1.417,1.417,5.974-0.813,7.344-1.311c3.5-1.269,7.129-2.73,10.292-4.713C52.604,46.458,52.229,45.81,51.817,46.066
				c-4.457,2.794-10.701,5.848-16.011,6.245c-0.257,0.019-0.733-0.016-0.7-0.387c0.165-1.833,1.405-2.194,2.753-2.522
				c1.684-0.409,3.541-0.262,5.261-0.285c3.114-0.044,6.35-0.932,9.076-2.402C52.622,46.484,52.243,45.837,51.817,46.066
				L51.817,46.066z"/>
		</g>
	</g>
	<g>
		<path fill="#FFFFFF" d="M51.445,13.752c4.229,4.181,6.83,11.624,5.43,17.754C56.875,25.022,54.423,19.532,51.445,13.752"/>
		<g>
			<path fill="#FFFFFF" d="M51.18,14.018c4.366,4.584,6.539,11.127,5.334,17.389c0.245,0.033,0.491,0.066,0.736,0.1
				c-0.152-6.493-2.568-12.239-5.48-17.943c-0.221-0.431-0.867-0.051-0.648,0.379c2.861,5.604,5.229,11.185,5.379,17.564
				c0.01,0.41,0.654,0.528,0.736,0.1c1.257-6.532-0.965-13.329-5.525-18.119C51.376,13.136,50.847,13.667,51.18,14.018L51.18,14.018
				z"/>
		</g>
	</g>
	<g>
		<path d="M21.292,16.57c0.701-0.701,1.052-1.752,1.052-2.803c-1.578-0.176-1.751,1.225-1.052,2.627"/>
		<g>
			<path d="M22.087,17.366c0.931-0.986,1.355-2.256,1.381-3.598c0.013-0.649-0.523-1.077-1.125-1.125
				c-1.065-0.085-2,0.392-2.408,1.398c-0.388,0.955-0.035,2.044,0.385,2.922c0.264,0.553,1.043,0.694,1.539,0.403
				c0.561-0.329,0.668-0.986,0.403-1.539c-0.09-0.19-0.151-0.383-0.204-0.587c-0.014-0.054-0.034-0.401-0.049-0.289
				c0.037-0.271,0.095-0.176-0.095-0.03c0.191-0.146-0.108,0.007,0.153-0.055c-0.142,0.034,0.307,0.029,0.275,0.027
				c-0.375-0.375-0.75-0.75-1.125-1.125c-0.015,0.739-0.205,1.459-0.722,2.007C19.502,16.829,21.09,18.423,22.087,17.366
				L22.087,17.366z"/>
		</g>
	</g>
	<g>
		<g>
			<path d="M17.51,18.621c-0.489-1.178-1.222-2.228-2.537-2.538c-0.584-0.138-1.232,0.175-1.384,0.786
				c-0.193,0.777-0.084,1.635,0.587,2.156c0.33,0.256,0.644,0.401,1.029,0.564c0.313,0.132,0.314,0.108,0.652,0.301
				c1.262,0.721,2.395-1.223,1.136-1.942c-0.166-0.095-0.335-0.175-0.51-0.249c-0.158-0.067-0.317-0.134-0.477-0.198
				c-0.015-0.006-0.345-0.149-0.127-0.052c-0.061-0.028-0.12-0.058-0.179-0.09c-0.263-0.138,0.136,0.148-0.069-0.04
				c0.046,0.042,0.143,0.343,0.083,0.116c0.026,0.101-0.018,0.283,0.045,0.032c-0.461,0.262-0.923,0.524-1.384,0.786
				c0.48,0.113,0.738,0.42,0.964,0.965c0.235,0.566,0.737,0.964,1.384,0.786C17.26,19.857,17.745,19.188,17.51,18.621L17.51,18.621z
				"/>
		</g>
	</g>
	<g>
		<g>
			<path d="M15.218,24.533c-1.299-0.879-2.725-1.928-4.371-1.339c-0.685,0.245-1.05,0.984-0.672,1.652
				c0.911,1.613,3.064,2.17,4.774,1.743c1.407-0.352,0.81-2.521-0.598-2.17c-0.74,0.185-1.828,0.011-2.234-0.708
				c-0.224,0.551-0.448,1.102-0.672,1.652c0.945-0.339,1.906,0.617,2.638,1.112C15.288,27.292,16.413,25.341,15.218,24.533
				L15.218,24.533z"/>
		</g>
	</g>
	<g>
		<g>
			<path d="M15.063,30.255c-1.544-0.212-3.122-0.226-4.073,1.218c-0.34,0.515-0.102,1.238,0.403,1.539
				c1.56,0.93,2.91,0.125,4.167-0.875c0.48-0.383,0.397-1.194,0-1.592c-0.47-0.47-1.112-0.382-1.591,0
				c-0.42,0.335-0.905,0.843-1.44,0.524c0.134,0.514,0.269,1.026,0.403,1.539c0.079-0.119,0.206-0.194,0.379-0.217
				c0.376-0.048,0.779-0.018,1.154,0.034c0.607,0.083,1.205-0.137,1.384-0.786C15.995,31.108,15.672,30.339,15.063,30.255
				L15.063,30.255z"/>
		</g>
	</g>
	<g>
		<path d="M15.771,36.354C14.238,41.4,10.156,38.281,15.771,36.354"/>
		<g>
			<path d="M14.686,36.055c0.461,0.461,0.923,0.922,1.384,1.383c1.32-0.547,0.742-2.725-0.598-2.17
				c-1.39,0.576-5.228,2.445-3.177,4.498c1.988,1.986,4.032-1.762,4.561-3.113C17.384,35.299,15.208,34.719,14.686,36.055
				L14.686,36.055z"/>
		</g>
	</g>
	<g>
		<path d="M17.319,41.75c0.176,1.574-0.176,3.502-1.751,3.678C15.218,44.201,16.094,42.449,17.319,41.75"/>
		<g>
			<path d="M16.194,41.75c0.085,0.871,0.2,2.416-0.925,2.594c0.461,0.262,0.922,0.523,1.384,0.785
				c-0.216-0.912,0.489-1.947,1.234-2.408c1.232-0.76,0.103-2.707-1.136-1.943c-1.632,1.008-2.722,3.027-2.269,4.949
				c0.152,0.646,0.797,0.879,1.384,0.787c2.213-0.352,2.762-2.881,2.578-4.764c-0.06-0.611-0.467-1.125-1.125-1.125
				C16.751,40.625,16.135,41.139,16.194,41.75L16.194,41.75z"/>
		</g>
	</g>
	<g>
		<g>
			<path d="M20.624,45.246c0.108,0.166,0.209,0.336,0.302,0.512c0.069,0.129,0.083,0.162,0.041,0.094
				c0.007,0.02,0.068,0.381,0.051,0.162c-0.004,0.137-0.002,0.146,0.008,0.025c-0.036,0.127-0.042,0.141-0.016,0.041
				c0.062-0.063,0.042-0.039-0.061,0.064c-0.093,0.098-0.155,0.119-0.272,0.189c0.551,0.225,1.102,0.449,1.653,0.674
				c-0.23-0.66,0.101-1.24,0.35-1.855c0.23-0.57-0.246-1.236-0.786-1.385c-0.643-0.176-1.154,0.219-1.384,0.787
				c-0.405,1.002-0.724,1.979-0.35,3.051c0.234,0.67,0.998,1.07,1.653,0.672c0.772-0.469,1.354-1.119,1.444-2.045
				c0.074-0.762-0.287-1.502-0.69-2.121C21.779,42.898,19.831,44.025,20.624,45.246L20.624,45.246z"/>
		</g>
	</g>
	<g>
		<g>
			<path d="M23.632,40.98c0.155,0.188,0.366,0.322,0.532,0.5c0.078,0.084,0.151,0.174,0.223,0.264
				c-0.179-0.223,0.141,0.197,0.181,0.256c0.353,0.502,0.673,1.029,0.99,1.555c0.059-0.455,0.117-0.908,0.176-1.363
				c0.061-0.053-0.224,0.084-0.006,0.014c0.119-0.039,0.417,0.098,0.242-0.008c0.217,0.133-0.085-0.139,0.031,0.02
				c-0.099-0.135-0.172-0.287-0.244-0.436c-0.206-0.432-0.252-1.057-0.204-1.596c0.055-0.611-0.553-1.125-1.125-1.125
				c-0.655,0-1.07,0.514-1.125,1.125c-0.098,1.086,0.166,2.371,0.824,3.26c0.841,1.133,2.136,1.266,3.198,0.338
				c0.374-0.328,0.423-0.953,0.176-1.363c-0.516-0.857-1.043-1.73-1.705-2.486c-0.175-0.199-0.405-0.342-0.572-0.545
				c-0.391-0.473-1.188-0.402-1.591,0C23.168,39.854,23.242,40.508,23.632,40.98L23.632,40.98z"/>
		</g>
	</g>
	<g>
		<g>
			<path d="M26.561,37.135c0.189-0.699,0.378-1.398,0.568-2.098c-1.195-0.83-2.318,1.121-1.136,1.943
				c0.955,0.664,2.032,1.41,3.106,0.592c0.373-0.285,0.715-0.768,0.517-1.271c-0.558-1.414-1.651-1.459-3.056-1.416
				C25.114,34.93,25.109,37.18,26.561,37.135L26.561,37.135z"/>
		</g>
	</g>
	<g>
		<path d="M27.267,31.379c0.701-0.352,1.927-0.352,2.627-0.176C29.894,32.78,28.493,32.255,27.267,31.379"/>
		<g>
			<path d="M27.835,32.351c0.424-0.194,1.306-0.167,1.76-0.063c-0.275-0.361-0.551-0.724-0.826-1.085
				c-0.01,0.161-0.01,0.194,0.002,0.102c-0.04,0.23,0.008,0.008,0.074-0.066c0.089-0.101,0.208-0.138,0.336-0.148
				c-0.281,0.023,0.209,0.06-0.098-0.008c-0.423-0.094-0.827-0.378-1.25-0.675c-0.503-0.353-1.249-0.092-1.539,0.404
				c-0.33,0.562-0.098,1.188,0.403,1.539c0.727,0.51,1.571,0.983,2.483,0.989c1.208,0.008,1.805-1.061,1.837-2.136
				c0.014-0.481-0.352-0.977-0.826-1.085c-1.16-0.266-2.406-0.209-3.494,0.289c-0.558,0.256-0.69,1.051-0.403,1.539
				C26.628,32.515,27.277,32.606,27.835,32.351L27.835,32.351z"/>
		</g>
	</g>
	<g>
		<path d="M26.5,25.815c1.401-1.05,2.978-1.4,3.502,0.176C29.128,26.517,27.376,26.341,26.5,25.815"/>
		<g>
			<path d="M27.068,26.787c0.349-0.253,1.578-1.212,1.85-0.497c0.172-0.423,0.345-0.847,0.517-1.271
				c-0.666,0.356-1.732,0.176-2.367-0.176c-1.271-0.703-2.405,1.24-1.136,1.943c1.361,0.754,3.243,0.923,4.638,0.176
				c0.412-0.221,0.689-0.817,0.517-1.271c-0.387-1.02-1.069-1.765-2.2-1.882c-1.067-0.11-2.117,0.426-2.955,1.033
				c-0.496,0.359-0.736,0.971-0.403,1.539C25.816,26.873,26.571,27.147,27.068,26.787L27.068,26.787z"/>
		</g>
	</g>
	<g>
		<path d="M25.273,20.343c-0.174-1.576,0.35-2.452,1.927-2.277c0.35,1.226-0.351,1.927-1.577,2.453"/>
		<g>
			<path d="M26.398,20.343c-0.029-0.295-0.04-0.585-0.016-0.881c-0.019,0.229,0.03-0.089,0.038-0.117
				c0.043-0.125,0.04-0.125-0.011,0c0.026-0.055,0.057-0.107,0.09-0.157c-0.159,0.255,0.14-0.09-0.099,0.09
				c0.049-0.035,0.101-0.065,0.155-0.092c-0.125,0.05-0.125,0.054,0,0.012c0.299-0.092-0.211,0,0.13-0.025
				c0.171-0.013,0.344,0.003,0.514,0.019c-0.362-0.275-0.723-0.551-1.085-0.826c0.069,0.267,0.058,0.19,0.043,0.445
				c0.014-0.254-0.091,0.176,0.01-0.051c-0.008,0.02-0.194,0.288-0.063,0.129c-0.25,0.305-0.611,0.466-1.05,0.66
				c-0.561,0.248-0.687,1.056-0.403,1.539c0.335,0.573,0.978,0.651,1.539,0.404c1.549-0.684,2.544-1.981,2.094-3.724
				c-0.134-0.518-0.586-0.78-1.085-0.826c-0.868-0.081-1.831,0.113-2.416,0.812c-0.609,0.728-0.727,1.672-0.636,2.59
				c0.06,0.61,0.466,1.125,1.125,1.125C25.841,21.468,26.459,20.955,26.398,20.343L26.398,20.343z"/>
		</g>
	</g>
</g>
</svg>
