<?xml version="1.0" encoding="UTF-8" standalone="no"?>
<!-- Created with Inkscape (http://www.inkscape.org/) -->
<svg
   xmlns:dc="http://purl.org/dc/elements/1.1/"
   xmlns:cc="http://creativecommons.org/ns#"
   xmlns:rdf="http://www.w3.org/1999/02/22-rdf-syntax-ns#"
   xmlns:svg="http://www.w3.org/2000/svg"
   xmlns="http://www.w3.org/2000/svg"
   xmlns:sodipodi="http://sodipodi.sourceforge.net/DTD/sodipodi-0.dtd"
   xmlns:inkscape="http://www.inkscape.org/namespaces/inkscape"
   width="32px"
   height="32px"
   id="svg2456"
   sodipodi:version="0.32"
   inkscape:version="0.46"
   sodipodi:docname="spr_feedbackcoins.svg"
   inkscape:output_extension="org.inkscape.output.svg.inkscape">
  <defs
     id="defs2458">
    <inkscape:perspective
       sodipodi:type="inkscape:persp3d"
       inkscape:vp_x="0 : 16 : 1"
       inkscape:vp_y="0 : 1000 : 0"
       inkscape:vp_z="32 : 16 : 1"
       inkscape:persp3d-origin="16 : 10.666667 : 1"
       id="perspective2464" />
  </defs>
  <sodipodi:namedview
     id="base"
     pagecolor="#ffffff"
     bordercolor="#666666"
     borderopacity="1.0"
     inkscape:pageopacity="0.0"
     inkscape:pageshadow="2"
     inkscape:zoom="14.9375"
     inkscape:cx="16"
     inkscape:cy="16"
     inkscape:current-layer="layer1"
     showgrid="true"
     inkscape:grid-bbox="true"
     inkscape:document-units="px"
     inkscape:window-width="705"
     inkscape:window-height="676"
     inkscape:window-x="70"
     inkscape:window-y="0" />
  <metadata
     id="metadata2461">
    <rdf:RDF>
      <cc:Work
         rdf:about="">
        <dc:format>image/svg+xml</dc:format>
        <dc:type
           rdf:resource="http://purl.org/dc/dcmitype/StillImage" />
      </cc:Work>
    </rdf:RDF>
  </metadata>
  <g
     id="layer1"
     inkscape:label="Layer 1"
     inkscape:groupmode="layer">
    <g
       id="g26115"
       transform="matrix(0.6526607,0,0,0.6541489,0.3269082,-282.28278)"
       inkscape:export-filename="/home/patrick/projects/pocketbandit/raw-data/machineparts/jackpot.png"
       inkscape:export-xdpi="90"
       inkscape:export-ydpi="90">
      <g
         transform="matrix(0.7594657,0,0,0.7629848,-6.6674176,261.9694)"
         id="g3291">
        <path
           transform="matrix(1,0,-0.2679481,1,171.86312,103.47566)"
           sodipodi:type="arc"
           style="opacity:1;fill:#c4a000;fill-opacity:1;fill-rule:nonzero;stroke:#000000;stroke-width:4.02101707;stroke-linecap:butt;stroke-linejoin:miter;stroke-miterlimit:4;stroke-dasharray:none;stroke-dashoffset:0;stroke-opacity:1"
           id="path3293"
           sodipodi:cx="-96.77903"
           sodipodi:cy="163.29588"
           sodipodi:rx="17.677902"
           sodipodi:ry="17.677902"
           d="M -79.101128,163.29588 A 17.677902,17.677902 0 1 1 -114.45693,163.29588 A 17.677902,17.677902 0 1 1 -79.101128,163.29588 z" />
        <path
           transform="matrix(1,0,-0.2679481,1,168.93491,99.475656)"
           d="M -79.101128,163.29588 A 17.677902,17.677902 0 1 1 -114.45693,163.29588 A 17.677902,17.677902 0 1 1 -79.101128,163.29588 z"
           sodipodi:ry="17.677902"
           sodipodi:rx="17.677902"
           sodipodi:cy="163.29588"
           sodipodi:cx="-96.77903"
           id="path3295"
           style="opacity:1;fill:#edd400;fill-opacity:1;fill-rule:nonzero;stroke:#000000;stroke-width:4.02101707;stroke-linecap:butt;stroke-linejoin:miter;stroke-miterlimit:4;stroke-dasharray:none;stroke-dashoffset:0;stroke-opacity:1"
           sodipodi:type="arc" />
        <path
           id="path3297"
           d="M 37.799609,252.70907 C 39.894637,255.35537 40.361529,259.13106 38.673509,263.07584 C 35.81478,269.75645 27.860872,274.37688 20.913081,273.3798 C 19.279538,273.14537 17.856769,272.61169 16.657584,271.86077 C 18.109252,273.72555 20.355367,275.02557 23.229139,275.43799 C 30.17693,276.43507 38.149894,271.84009 41.008623,265.15947 C 43.206342,260.02357 41.745922,255.13977 37.799609,252.70907 z"
           style="opacity:1;fill:#fce94f;fill-opacity:1;fill-rule:nonzero;stroke:none;stroke-width:2;stroke-linecap:butt;stroke-linejoin:miter;stroke-miterlimit:4;stroke-dasharray:none;stroke-dashoffset:0;stroke-opacity:1" />
      </g>
      <g
         id="g26089"
         transform="matrix(0.7594657,0,0,0.7629848,9.3325824,261.9694)">
        <path
           d="M -79.101128,163.29588 A 17.677902,17.677902 0 1 1 -114.45693,163.29588 A 17.677902,17.677902 0 1 1 -79.101128,163.29588 z"
           sodipodi:ry="17.677902"
           sodipodi:rx="17.677902"
           sodipodi:cy="163.29588"
           sodipodi:cx="-96.77903"
           id="path26091"
           style="opacity:1;fill:#c4a000;fill-opacity:1;fill-rule:nonzero;stroke:#000000;stroke-width:4.02101707;stroke-linecap:butt;stroke-linejoin:miter;stroke-miterlimit:4;stroke-dasharray:none;stroke-dashoffset:0;stroke-opacity:1"
           sodipodi:type="arc"
           transform="matrix(1,0,-0.2679481,1,171.86312,103.47566)" />
        <path
           sodipodi:type="arc"
           style="opacity:1;fill:#edd400;fill-opacity:1;fill-rule:nonzero;stroke:#000000;stroke-width:4.02101707;stroke-linecap:butt;stroke-linejoin:miter;stroke-miterlimit:4;stroke-dasharray:none;stroke-dashoffset:0;stroke-opacity:1"
           id="path26093"
           sodipodi:cx="-96.77903"
           sodipodi:cy="163.29588"
           sodipodi:rx="17.677902"
           sodipodi:ry="17.677902"
           d="M -79.101128,163.29588 A 17.677902,17.677902 0 1 1 -114.45693,163.29588 A 17.677902,17.677902 0 1 1 -79.101128,163.29588 z"
           transform="matrix(1,0,-0.2679481,1,168.93491,99.475656)" />
        <path
           style="opacity:1;fill:#fce94f;fill-opacity:1;fill-rule:nonzero;stroke:none;stroke-width:2;stroke-linecap:butt;stroke-linejoin:miter;stroke-miterlimit:4;stroke-dasharray:none;stroke-dashoffset:0;stroke-opacity:1"
           d="M 37.799609,252.70907 C 39.894637,255.35537 40.361529,259.13106 38.673509,263.07584 C 35.81478,269.75645 27.860872,274.37688 20.913081,273.3798 C 19.279538,273.14537 17.856769,272.61169 16.657584,271.86077 C 18.109252,273.72555 20.355367,275.02557 23.229139,275.43799 C 30.17693,276.43507 38.149894,271.84009 41.008623,265.15947 C 43.206342,260.02357 41.745922,255.13977 37.799609,252.70907 z"
           id="path26095" />
      </g>
      <g
         id="g26097"
         transform="matrix(0.7594657,0,0,0.7629848,1.3325824,245.9694)">
        <path
           d="M -79.101128,163.29588 A 17.677902,17.677902 0 1 1 -114.45693,163.29588 A 17.677902,17.677902 0 1 1 -79.101128,163.29588 z"
           sodipodi:ry="17.677902"
           sodipodi:rx="17.677902"
           sodipodi:cy="163.29588"
           sodipodi:cx="-96.77903"
           id="path26099"
           style="opacity:1;fill:#c4a000;fill-opacity:1;fill-rule:nonzero;stroke:#000000;stroke-width:4.02101707;stroke-linecap:butt;stroke-linejoin:miter;stroke-miterlimit:4;stroke-dasharray:none;stroke-dashoffset:0;stroke-opacity:1"
           sodipodi:type="arc"
           transform="matrix(1,0,-0.2679481,1,171.86312,103.47566)" />
        <path
           sodipodi:type="arc"
           style="opacity:1;fill:#edd400;fill-opacity:1;fill-rule:nonzero;stroke:#000000;stroke-width:4.02101707;stroke-linecap:butt;stroke-linejoin:miter;stroke-miterlimit:4;stroke-dasharray:none;stroke-dashoffset:0;stroke-opacity:1"
           id="path26101"
           sodipodi:cx="-96.77903"
           sodipodi:cy="163.29588"
           sodipodi:rx="17.677902"
           sodipodi:ry="17.677902"
           d="M -79.101128,163.29588 A 17.677902,17.677902 0 1 1 -114.45693,163.29588 A 17.677902,17.677902 0 1 1 -79.101128,163.29588 z"
           transform="matrix(1,0,-0.2679481,1,168.93491,99.475656)" />
        <path
           style="opacity:1;fill:#fce94f;fill-opacity:1;fill-rule:nonzero;stroke:none;stroke-width:2;stroke-linecap:butt;stroke-linejoin:miter;stroke-miterlimit:4;stroke-dasharray:none;stroke-dashoffset:0;stroke-opacity:1"
           d="M 37.799609,252.70907 C 39.894637,255.35537 40.361529,259.13106 38.673509,263.07584 C 35.81478,269.75645 27.860872,274.37688 20.913081,273.3798 C 19.279538,273.14537 17.856769,272.61169 16.657584,271.86077 C 18.109252,273.72555 20.355367,275.02557 23.229139,275.43799 C 30.17693,276.43507 38.149894,271.84009 41.008623,265.15947 C 43.206342,260.02357 41.745922,255.13977 37.799609,252.70907 z"
           id="path26103" />
      </g>
    </g>
  </g>
</svg>
