<?xml version="1.0" encoding="UTF-8" standalone="no"?>
<!-- Generator: Adobe Illustrator 14.0.0, SVG Export Plug-In . SVG Version: 6.00 Build 43363)  -->
<svg
   xmlns:dc="http://purl.org/dc/elements/1.1/"
   xmlns:cc="http://creativecommons.org/ns#"
   xmlns:rdf="http://www.w3.org/1999/02/22-rdf-syntax-ns#"
   xmlns:svg="http://www.w3.org/2000/svg"
   xmlns="http://www.w3.org/2000/svg"
   xmlns:sodipodi="http://sodipodi.sourceforge.net/DTD/sodipodi-0.dtd"
   xmlns:inkscape="http://www.inkscape.org/namespaces/inkscape"
   version="1.0"
   id="Capa_1"
   x="0px"
   y="0px"
   width="32"
   height="32"
   viewBox="0 0 64 64"
   enable-background="new 0 0 64 64"
   xml:space="preserve"
   sodipodi:version="0.32"
   inkscape:version="0.46"
   sodipodi:docname="sym_small_lemon.svg"
   inkscape:output_extension="org.inkscape.output.svg.inkscape"><metadata
   id="metadata60"><rdf:RDF><cc:Work
       rdf:about=""><dc:format>image/svg+xml</dc:format><dc:type
         rdf:resource="http://purl.org/dc/dcmitype/StillImage" /></cc:Work></rdf:RDF></metadata><defs
   id="defs58"><inkscape:perspective
     sodipodi:type="inkscape:persp3d"
     inkscape:vp_x="0 : 32 : 1"
     inkscape:vp_y="0 : 1000 : 0"
     inkscape:vp_z="64 : 32 : 1"
     inkscape:persp3d-origin="32 : 21.333333 : 1"
     id="perspective62" /></defs><sodipodi:namedview
   inkscape:window-height="676"
   inkscape:window-width="640"
   inkscape:pageshadow="2"
   inkscape:pageopacity="0.0"
   guidetolerance="10.0"
   gridtolerance="10.0"
   objecttolerance="10.0"
   borderopacity="1.0"
   bordercolor="#666666"
   pagecolor="#ffffff"
   id="base"
   showgrid="false"
   inkscape:zoom="7.46875"
   inkscape:cx="32"
   inkscape:cy="32"
   inkscape:window-x="70"
   inkscape:window-y="0"
   inkscape:current-layer="Capa_1" />
<g
   id="g3">
	<g
   id="g5">
		<path
   d="M 34.404,11.898 C 24.472,12.45 16.563,18.52 11.23,26.428 C 7.919,31.578 7.735,35.623 6.08,41.144 C 4.24,46.662 1.297,51.075 8.654,52.73 C 16.38,54.385 25.024,56.409 32.749,56.409 C 43.048,56.409 49.67,49.604 54.084,40.776 C 55.924,37.097 57.578,33.786 58.498,29.555 C 59.051,26.612 60.488,20.434 57.578,17.599 C 55.187,31.394 37.163,21.462 34.22,12.634"
   id="path7"
   style="fill:#fbe950" />
		<g
   id="g9">
			<path
   d="M 34.404,10.398 C 21.978,11.44 11.224,20.153 7.017,31.844 C 5.838,35.121 5.376,38.618 4.226,41.909 C 3.388,44.308 2.301,46.618 2.473,49.212 C 2.827,54.553 11.411,54.865 15.059,55.629 C 28.249,58.39 41.329,60.16 50.786,48.796 C 56.479,41.954 65.514,25.022 58.639,16.539 C 57.935,15.671 56.356,16.162 56.132,17.201 C 53.532,29.263 38.373,19.357 35.666,12.236 C 34.986,10.446 32.084,11.222 32.773,13.034 C 36.473,22.766 55.684,33.496 59.024,17.999 C 58.188,18.22 57.353,18.44 56.517,18.661 C 59.399,22.217 57.301,28.699 56.095,32.588 C 54.448,37.902 51.381,43.411 47.819,47.692 C 40.011,57.075 28.268,55.147 17.597,53.089 C 13.429,52.284 4.153,52.044 5.944,45.963 C 7.25,41.529 8.556,37.066 9.909,32.642 C 13.088,22.249 23.794,14.288 34.404,13.399 C 36.316,13.238 36.332,10.237 34.404,10.398 L 34.404,10.398 z"
   id="path11"
   style="fill:#fbe950" />
		</g>
	</g>
	<g
   id="g13">
		<path
   d="M 17.115,49.541 C 24.681,53.267 32.831,50.24 40,48.144 C 39.561,56.198 21.534,53.828 17.115,50.006"
   id="path15"
   style="fill:#91bd32" />
		<g
   id="g17">
			<path
   d="M 16.358,50.836 C 24.488,54.352 32.292,51.997 40.398,49.59 C 39.765,49.108 39.132,48.626 38.5,48.144 C 37.627,55.162 21.739,51.735 18.176,48.946 C 16.672,47.768 14.532,49.876 16.055,51.067 C 21.832,55.59 40.187,58.702 41.5,48.144 C 41.621,47.169 40.452,46.445 39.602,46.698 C 32.465,48.817 25.133,51.386 17.873,48.247 C 16.116,47.486 14.586,50.07 16.358,50.836 L 16.358,50.836 z"
   id="path19"
   style="fill:#91bd32" />
		</g>
	</g>
	<g
   id="g21">
		<path
   d="M 30.173,18.888 C 24.288,22.382 14.724,26.98 12.884,34.154 C 15.092,31.211 14.356,26.428 16.931,23.302 C 19.874,19.807 25.576,17.968 29.805,18.704"
   id="path23"
   style="fill:#fffffd" />
		<g
   id="g25">
			<path
   d="M 29.416,17.592 C 22.62,21.585 13.899,25.583 11.438,33.755 C 10.933,35.433 13.283,36.311 14.18,34.91 C 16.152,31.829 15.955,28.062 17.648,24.873 C 19.732,20.946 25.827,19.683 29.805,20.204 C 31.719,20.454 31.695,17.452 29.805,17.204 C 25.711,16.668 21.212,17.795 17.933,20.35 C 16.086,21.789 14.945,23.339 14.076,25.503 C 13.025,28.12 13.15,30.956 11.588,33.396 C 12.502,33.781 13.416,34.167 14.33,34.551 C 16.513,27.304 24.916,23.715 30.929,20.182 C 32.596,19.204 31.087,16.61 29.416,17.592 L 29.416,17.592 z"
   id="path27"
   style="fill:#fffffd" />
		</g>
	</g>
	<g
   id="g29">
		<path
   d="M 36.979,3.07 C 45.255,3.622 57.027,10.243 55.004,19.807 C 50.038,13.921 44.519,7.484 37.715,3.989"
   id="path31"
   style="fill:#91bd32" />
		<g
   id="g33">
			<path
   d="M 36.979,4.57 C 44.343,5.221 55.055,10.528 53.558,19.408 C 54.394,19.187 55.229,18.967 56.065,18.746 C 50.913,12.649 45.59,6.537 38.472,2.694 C 36.77,1.775 35.255,4.365 36.958,5.285 C 43.852,9.007 48.957,14.967 53.943,20.868 C 54.635,21.688 56.268,21.287 56.45,20.206 C 58.313,9.158 46.514,2.412 36.979,1.57 C 35.051,1.399 35.066,4.401 36.979,4.57 L 36.979,4.57 z"
   id="path35"
   style="fill:#91bd32" />
		</g>
	</g>
	<g
   id="g37">
		<path
   d="M 32.932,3.07 C 41.21,4.541 50.957,14.105 55.004,20.91 C 43.601,29.555 36.059,10.978 33.668,3.805"
   id="path39"
   style="fill:#4e9b2a" />
		<g
   id="g41">
			<path
   d="M 32.533,4.516 C 41.367,6.426 49.091,14.208 53.709,21.667 C 53.888,20.983 54.067,20.299 54.247,19.615 C 44.041,26.783 37.673,10.968 35.113,3.407 C 34.497,1.585 31.599,2.367 32.221,4.205 C 35.413,13.637 43.464,30.843 55.761,22.206 C 56.416,21.746 56.756,20.892 56.299,20.154 C 51.286,12.056 42.933,3.7 33.331,1.624 C 31.445,1.216 30.643,4.107 32.533,4.516 L 32.533,4.516 z"
   id="path43"
   style="fill:#4e9b2a" />
		</g>
	</g>
	<g
   id="g45">
		<g
   id="g47">
			<path
   d="M 35.16,9.478 C 22.825,10.541 10.235,18.144 6.049,30.144 C 4.811,33.694 3.998,37.359 2.7,40.898 C 1.593,43.918 0.8,46.536 1.27,49.738 C 2.223,56.237 11.166,55.282 15.612,56.384 C 23.159,58.255 29.167,60.188 37.001,58.446 C 43.421,57.018 48.863,52.944 53.099,48.065 C 57.901,42.533 59.261,35.836 61.415,29.036 C 63.427,22.689 62.077,18.239 57.166,13.783 C 55.737,12.487 53.609,14.601 55.045,15.904 C 60.471,20.828 59.468,24.896 57.598,31.272 C 55.862,37.188 54.179,42.257 50.06,47.001 C 42.243,56.006 30.822,57.901 19.779,54.573 C 17.742,53.959 15.803,53.2 13.674,52.971 C 10.32,52.612 5.735,52.983 4.164,48.942 C 3.22,46.513 5.224,42.707 6.055,40.439 C 7.009,37.838 7.719,35.182 8.464,32.517 C 11.684,20.999 23.597,13.476 35.161,12.479 C 37.073,12.313 37.089,9.312 35.16,9.478 L 35.16,9.478 z"
   id="path49" />
		</g>
	</g>
	<g
   id="g51">
		<g
   id="g53">
			<path
   d="M 31.249,2.15 C 32.085,8.694 34.646,14.843 39.06,19.786 C 42.991,24.19 50.321,26.936 55.668,23.465 C 60.866,20.09 57.107,12.325 54.443,8.695 C 49.554,2.031 39.917,1.38 32.38,0.65 C 30.454,0.463 30.472,3.465 32.38,3.65 C 37.861,4.181 44.162,4.744 48.991,7.621 C 53.157,10.103 59.338,20.894 51.11,21.964 C 41.082,23.267 35.27,10.135 34.249,2.15 C 34.008,0.258 31.004,0.234 31.249,2.15 L 31.249,2.15 z"
   id="path55" />
		</g>
	</g>
</g>
</svg>