<?xml version="1.0" encoding="UTF-8" standalone="no"?>
<!-- Generator: Adobe Illustrator 14.0.0, SVG Export Plug-In . SVG Version: 6.00 Build 43363)  -->
<svg
   xmlns:dc="http://purl.org/dc/elements/1.1/"
   xmlns:cc="http://creativecommons.org/ns#"
   xmlns:rdf="http://www.w3.org/1999/02/22-rdf-syntax-ns#"
   xmlns:svg="http://www.w3.org/2000/svg"
   xmlns="http://www.w3.org/2000/svg"
   xmlns:sodipodi="http://sodipodi.sourceforge.net/DTD/sodipodi-0.dtd"
   xmlns:inkscape="http://www.inkscape.org/namespaces/inkscape"
   version="1.0"
   id="Capa_1"
   x="0px"
   y="0px"
   width="32"
   height="32"
   viewBox="0 0 64 64"
   enable-background="new 0 0 64 64"
   xml:space="preserve"
   sodipodi:version="0.32"
   inkscape:version="0.46"
   sodipodi:docname="sym_small_plum.svg"
   inkscape:output_extension="org.inkscape.output.svg.inkscape"><metadata
   id="metadata52"><rdf:RDF><cc:Work
       rdf:about=""><dc:format>image/svg+xml</dc:format><dc:type
         rdf:resource="http://purl.org/dc/dcmitype/StillImage" /></cc:Work></rdf:RDF></metadata><defs
   id="defs50"><inkscape:perspective
     sodipodi:type="inkscape:persp3d"
     inkscape:vp_x="0 : 32 : 1"
     inkscape:vp_y="0 : 1000 : 0"
     inkscape:vp_z="64 : 32 : 1"
     inkscape:persp3d-origin="32 : 21.333333 : 1"
     id="perspective54" /></defs><sodipodi:namedview
   inkscape:window-height="676"
   inkscape:window-width="640"
   inkscape:pageshadow="2"
   inkscape:pageopacity="0.0"
   guidetolerance="10.0"
   gridtolerance="10.0"
   objecttolerance="10.0"
   borderopacity="1.0"
   bordercolor="#666666"
   pagecolor="#ffffff"
   id="base"
   showgrid="false"
   inkscape:zoom="7.46875"
   inkscape:cx="32"
   inkscape:cy="32"
   inkscape:window-x="70"
   inkscape:window-y="0"
   inkscape:current-layer="Capa_1" />
<g
   id="g3">
	<g
   id="g5">
		<path
   d="M 17.478,16.361 C 6.5,24.021 -1.415,38.063 8.033,49.806 C 15.181,58.997 32.541,62.827 42.498,55.933 C 52.71,48.53 57.306,33.466 48.626,23.255 C 43.008,16.873 25.393,10.49 17.478,15.596"
   id="path7"
   style="fill:#75507b" />
		<g
   id="g9">
			<path
   d="M 16.721,15.066 C 5.599,23.15 -3.371,38.41 6.972,50.866 C 15.292,60.886 32.099,64.381 43.255,57.227 C 53.861,50.427 58.756,33.66 50.567,23.305 C 43.823,14.78 26.746,8.565 16.721,14.3 C 15.042,15.26 16.553,17.853 18.235,16.891 C 26.49,12.168 39.585,17.43 46.239,22.998 C 56.633,31.696 50.823,47.675 41.741,54.637 C 33.18,61.199 19.074,57.727 11.526,51.335 C -0.795,40.901 7.716,25.301 18.234,17.656 C 19.784,16.531 18.289,13.926 16.721,15.066 L 16.721,15.066 z"
   id="path11"
   style="fill:#75507b" />
		</g>
	</g>
	<g
   id="g13">
		<path
   d="M 28.712,53.891 C 37.904,52.105 44.796,44.955 49.901,37.807 C 52.455,48.53 38.157,55.933 29.477,54.146"
   id="path15"
   style="fill:#5c3566" />
		<g
   id="g17">
			<path
   d="M 29.011,54.976 C 38.514,52.844 45.323,46.014 50.873,38.374 C 50.187,38.285 49.502,38.195 48.816,38.105 C 50.723,48.059 38.29,54.505 29.776,53.06 C 28.358,52.82 27.75,54.988 29.178,55.23 C 39.468,56.976 53.242,49.286 50.986,37.507 C 50.784,36.451 49.443,36.531 48.929,37.238 C 43.72,44.407 37.332,50.803 28.412,52.804 C 26.997,53.123 27.598,55.292 29.011,54.976 L 29.011,54.976 z"
   id="path19"
   style="fill:#5c3566" />
		</g>
	</g>
	<g
   id="g21">
		<path
   d="M 23.606,21.467 C 16.203,25.042 10.585,31.169 7.777,38.572 C 5.223,30.147 14.925,20.701 23.095,21.467"
   id="path23"
   style="fill:#fafaf9" />
		<g
   id="g25">
			<path
   d="M 23.038,20.496 C 15.486,24.295 9.824,30.419 6.692,38.273 C 7.415,38.273 8.139,38.273 8.862,38.273 C 6.799,30.16 15.241,22.181 23.095,22.592 C 24.546,22.668 24.538,20.418 23.095,20.342 C 13.74,19.853 4.281,29.392 6.692,38.871 C 6.991,40.045 8.477,39.836 8.862,38.871 C 11.776,31.564 17.175,25.959 24.174,22.438 C 25.47,21.787 24.331,19.846 23.038,20.496 L 23.038,20.496 z"
   id="path27"
   style="fill:#fafaf9" />
		</g>
	</g>
	<g
   id="g29">
		<g
   id="g31">
			<path
   d="M 12.926,16.119 C 7.514,20.688 3.318,25.764 2.007,32.877 C 0.852,39.146 2.191,46.374 6.32,51.357 C 15.041,61.879 35.248,65.411 46.144,56.267 C 56.421,47.642 58.528,31.288 49.406,21.225 C 44.284,15.575 36.351,12.908 29.002,12.009 C 23.14,11.292 18.304,13.225 13.23,15.883 C 11.516,16.781 13.032,19.37 14.744,18.474 C 17.777,16.886 20.946,15.316 24.369,14.944 C 30.773,14.249 37.52,16.552 42.942,19.783 C 54.861,26.886 54.612,42.97 45.845,52.512 C 36.854,62.299 17.741,59.112 9.316,50.288 C 4.816,45.579 4.01,38.505 5.139,32.376 C 6.24,26.402 10.594,22 15.047,18.24 C 16.528,16.99 14.395,14.879 12.926,16.119 L 12.926,16.119 z"
   id="path33" />
		</g>
	</g>
	<g
   id="g35">
		<path
   d="M 51.435,28.36 C 49.392,28.616 47.349,29.127 45.307,29.127 C 44.031,36.021 57.942,32.225 60.624,26.063 C 61.955,23.009 59.909,16.031 56.795,19.68 C 55.513,21.183 53.475,26.319 51.944,27.85"
   id="path37"
   style="fill:#91bd32" />
		<g
   id="g39">
			<path
   d="M 51.136,27.275 C 49.192,27.552 47.275,27.926 45.307,28.002 C 44.857,28.019 44.289,28.328 44.222,28.828 C 42.925,38.446 57.982,32.083 60.789,28.007 C 62.704,25.227 62.936,19.651 59.558,17.771 C 55.628,15.585 52.779,25.205 51.149,27.056 C 50.195,28.14 51.78,29.738 52.741,28.647 C 54.53,26.614 55.554,23.995 56.851,21.645 C 57.091,21.21 58.088,19.315 58.891,20.043 C 59.425,20.527 59.585,21.456 59.751,22.117 C 60.2,23.905 59.808,25.652 58.678,27.081 C 57.057,29.13 54.466,30.408 52.032,31.181 C 50.246,31.748 45.974,32.519 46.391,29.427 C 46.03,29.702 45.667,29.978 45.306,30.253 C 47.476,30.17 49.587,29.752 51.733,29.446 C 53.165,29.241 52.554,27.073 51.136,27.275 L 51.136,27.275 z"
   id="path41"
   style="fill:#91bd32" />
		</g>
	</g>
	<g
   id="g43">
		<g
   id="g45">
			<path
   d="M 43.2,28.062 C 42.631,32.155 44.82,34.718 48.939,34.899 C 53.698,35.108 58.63,32.105 61.362,28.386 C 63.933,24.886 64.029,18.064 58.882,17.064 C 56.717,16.644 55.376,18.5 54.659,20.211 C 52.674,24.949 50.413,28.62 44.584,27.02 C 43.183,26.636 42.589,28.806 43.986,29.19 C 47.728,30.217 50.966,29.72 53.7,26.86 C 54.958,25.545 55.806,23.86 56.383,22.155 C 57.064,20.139 59.663,18.445 60.641,21.278 C 61.007,22.338 60.835,23.632 60.613,24.699 C 59.848,28.35 55.996,30.813 52.747,31.979 C 49.665,33.085 44.738,33.203 45.371,28.659 C 45.567,27.241 43.399,26.629 43.2,28.062 L 43.2,28.062 z"
   id="path47" />
		</g>
	</g>
</g>
</svg>