<?xml version="1.0" encoding="UTF-8" standalone="no"?>
<!-- Generator: Adobe Illustrator 14.0.0, SVG Export Plug-In . SVG Version: 6.00 Build 43363)  -->
<svg
   xmlns:dc="http://purl.org/dc/elements/1.1/"
   xmlns:cc="http://creativecommons.org/ns#"
   xmlns:rdf="http://www.w3.org/1999/02/22-rdf-syntax-ns#"
   xmlns:svg="http://www.w3.org/2000/svg"
   xmlns="http://www.w3.org/2000/svg"
   xmlns:sodipodi="http://sodipodi.sourceforge.net/DTD/sodipodi-0.dtd"
   xmlns:inkscape="http://www.inkscape.org/namespaces/inkscape"
   version="1.0"
   id="Capa_1"
   x="0px"
   y="0px"
   width="32"
   height="32"
   viewBox="0 0 64 64"
   enable-background="new 0 0 64 64"
   xml:space="preserve"
   sodipodi:version="0.32"
   inkscape:version="0.46"
   sodipodi:docname="sym_small_orange.svg"
   inkscape:output_extension="org.inkscape.output.svg.inkscape"><metadata
   id="metadata52"><rdf:RDF><cc:Work
       rdf:about=""><dc:format>image/svg+xml</dc:format><dc:type
         rdf:resource="http://purl.org/dc/dcmitype/StillImage" /></cc:Work></rdf:RDF></metadata><defs
   id="defs50"><inkscape:perspective
     sodipodi:type="inkscape:persp3d"
     inkscape:vp_x="0 : 32 : 1"
     inkscape:vp_y="0 : 1000 : 0"
     inkscape:vp_z="64 : 32 : 1"
     inkscape:persp3d-origin="32 : 21.333333 : 1"
     id="perspective54" /></defs><sodipodi:namedview
   inkscape:window-height="676"
   inkscape:window-width="640"
   inkscape:pageshadow="2"
   inkscape:pageopacity="0.0"
   guidetolerance="10.0"
   gridtolerance="10.0"
   objecttolerance="10.0"
   borderopacity="1.0"
   bordercolor="#666666"
   pagecolor="#ffffff"
   id="base"
   showgrid="false"
   inkscape:zoom="7.46875"
   inkscape:cx="32"
   inkscape:cy="32"
   inkscape:window-x="70"
   inkscape:window-y="0"
   inkscape:current-layer="Capa_1" />
<g
   id="g3">
	<path
   d="M 25.322,7.987 C 21.146,8.712 15.7,13.432 12.977,16.519 C 9.89,20.15 7.53,24.325 7.167,29.227 C 6.441,37.76 8.982,49.378 16.97,54.099 C 23.868,58.094 32.22,58.727 40.209,57.639 C 51.283,56.186 57.143,48.835 59.32,38.667 C 61.498,29.046 58.636,19.341 50.375,12.707 C 43.883,7.495 34.943,5.719 27.136,8.079"
   id="path5"
   style="fill:#ed7811" />
	<g
   id="g7">
		<path
   d="M 24.524,5.094 C 17.414,6.876 11.486,12.869 7.589,18.824 C 3.463,25.129 3.562,32.946 4.883,40.077 C 8.267,58.344 26.154,62.869 42.422,60.308 C 57.041,58.007 65.08,41.552 62.633,27.871 C 59.631,11.095 42.648,0.831 26.338,5.186 C 22.604,6.184 24.191,11.972 27.934,10.972 C 40.738,7.552 53.537,15.216 56.6,28.081 C 59.178,38.917 53.016,51.3 42.184,54.235 C 35.85,55.951 28.546,55.309 22.385,53.327 C 15.915,51.244 12.637,46.026 10.959,39.766 C 7.879,28.278 13.722,13.986 26.12,10.88 C 29.871,9.94 28.279,4.154 24.524,5.094 L 24.524,5.094 z"
   id="path9"
   style="fill:#ed7811" />
	</g>
</g>
<g
   id="g11">
	<path
   d="M 55.096,29.544 C 55.278,33.72 51.465,39.53 49.104,42.979 C 45.836,47.336 41.297,49.152 37.666,52.963 C 48.014,54.053 61.813,38.985 55.457,29"
   id="path13"
   style="fill:#cf5e16" />
	<g
   id="g15">
		<path
   d="M 53.971,29.544 C 53.557,40.239 43.565,45.632 36.869,52.167 C 36.135,52.886 36.719,54.034 37.666,54.088 C 49.502,54.759 62.885,39.849 56.43,28.433 C 55.715,27.17 53.772,28.303 54.487,29.568 C 60.12,39.529 47.717,52.408 37.667,51.839 C 37.933,52.48 38.196,53.119 38.462,53.76 C 42.487,49.83 47.536,47.293 50.753,42.552 C 53.388,38.667 56.036,34.353 56.222,29.545 C 56.275,28.093 54.025,28.098 53.971,29.544 L 53.971,29.544 z"
   id="path17"
   style="fill:#cf5e16" />
	</g>
</g>
<g
   id="g19">
	<path
   d="M 23.506,15.384 C 18.24,21.919 11.523,29.363 11.523,38.077 C 7.349,29 12.613,16.11 23.506,15.384"
   id="path21"
   style="fill:#fffaf9" />
	<g
   id="g23">
		<path
   d="M 22.71,14.588 C 17.064,21.555 10.774,28.674 10.398,38.077 C 11.135,37.977 11.871,37.878 12.608,37.778 C 8.959,29.028 13.296,17.611 23.506,16.508 C 24.933,16.354 24.947,14.102 23.506,14.258 C 11.991,15.502 6.149,28.091 10.438,38.376 C 10.91,39.509 12.594,39.424 12.648,38.077 C 12.998,29.338 19.071,22.634 24.302,16.18 C 25.207,15.063 23.625,13.46 22.71,14.588 L 22.71,14.588 z"
   id="path25"
   style="fill:#fffaf9" />
	</g>
</g>
<g
   id="g27">
	<path
   d="M 31.13,9.574 C 29.86,10.118 28.407,10.118 27.136,10.118 C 27.863,11.208 29.134,12.479 29.134,13.931 C 30.949,13.204 32.947,13.568 34.398,14.838 C 34.761,13.386 35.669,12.479 37.302,12.297 C 35.851,11.935 35.488,11.207 35.124,10.117 C 33.853,10.48 32.401,10.3 31.493,9.391"
   id="path29"
   style="fill:#7cb623" />
	<g
   id="g31">
		<path
   d="M 30.832,8.489 C 29.612,8.92 28.421,8.988 27.137,8.993 C 26.341,8.996 25.659,9.968 26.165,10.686 C 26.858,11.668 27.879,12.676 28.01,13.932 C 28.081,14.617 28.68,15.266 29.434,15.017 C 30.945,14.517 32.315,14.638 33.602,15.635 C 34.262,16.146 35.213,16.019 35.483,15.138 C 35.835,13.992 36.446,13.578 37.602,13.383 C 38.772,13.186 38.579,11.523 37.602,11.213 C 36.764,10.947 36.498,10.626 36.209,9.819 C 35.994,9.218 35.459,8.894 34.826,9.033 C 33.896,9.238 33.074,9.241 32.289,8.597 C 31.177,7.684 29.576,9.266 30.698,10.188 C 32.119,11.355 33.643,11.595 35.424,11.203 C 34.963,10.941 34.502,10.679 34.039,10.417 C 34.602,11.991 35.389,12.869 37.004,13.383 C 37.004,12.66 37.004,11.936 37.004,11.213 C 35.074,11.538 33.879,12.689 33.313,14.54 C 33.94,14.374 34.567,14.209 35.194,14.043 C 33.274,12.556 31.174,12.073 28.836,12.846 C 29.311,13.208 29.785,13.569 30.26,13.931 C 30.074,12.156 29.111,10.97 28.109,9.55 C 27.785,10.114 27.462,10.678 27.137,11.243 C 28.619,11.237 30.023,11.157 31.43,10.659 C 32.787,10.179 32.203,8.004 30.832,8.489 L 30.832,8.489 z"
   id="path33"
   style="fill:#7cb623" />
	</g>
</g>
<g
   id="g35">
	<path
   d="M 32.584,11.026 C 31.494,11.208 30.767,11.208 31.13,12.66 C 32.584,13.023 32.947,12.843 33.673,11.753 C 33.489,11.571 33.128,11.571 32.763,11.208"
   id="path37"
   style="fill:#4e9b2a" />
	<g
   id="g39">
		<path
   d="M 32.285,9.941 C 31.646,10.045 30.982,10.132 30.487,10.594 C 29.818,11.219 29.855,12.136 30.046,12.958 C 30.131,13.327 30.466,13.655 30.832,13.744 C 31.529,13.913 32.317,14.08 33.014,13.819 C 33.756,13.542 34.213,12.957 34.645,12.319 C 34.903,11.938 34.842,11.251 34.469,10.956 C 34.16,10.712 33.787,10.612 33.561,10.411 C 33.1,10.005 32.422,9.957 31.969,10.411 C 31.555,10.824 31.51,11.596 31.969,12.002 C 32.166,12.175 32.367,12.335 32.596,12.462 C 32.707,12.524 33.153,12.764 32.877,12.547 C 32.818,12.092 32.76,11.638 32.701,11.184 C 32.576,11.372 32.496,11.477 32.431,11.552 C 32.406,11.581 32.16,11.798 32.372,11.635 C 32.319,11.676 32.077,11.775 32.333,11.679 C 32.278,11.698 32.22,11.712 32.161,11.721 C 32.432,11.664 32.12,11.701 32.065,11.699 C 31.723,11.687 32.262,11.743 31.874,11.673 C 31.724,11.646 31.576,11.609 31.428,11.572 C 31.69,11.834 31.952,12.096 32.214,12.358 C 32.189,12.259 32.169,12.159 32.151,12.058 C 32.182,12.227 32.182,11.775 32.139,12.091 C 32.174,11.964 32.164,11.976 32.108,12.126 C 32.087,12.171 31.79,12.386 31.975,12.273 C 31.738,12.418 32.106,12.245 32.217,12.22 C 32.436,12.173 32.66,12.144 32.881,12.108 C 33.486,12.009 33.817,11.267 33.666,10.724 C 33.492,10.089 32.889,9.843 32.285,9.941 L 32.285,9.941 z"
   id="path41"
   style="fill:#4e9b2a" />
	</g>
</g>
<g
   id="g43">
	<g
   id="g45">
		<path
   d="M 16.091,8.15 C 10.128,13.542 5.534,19.502 3.994,27.537 C 2.515,35.255 3.939,44.175 8.869,50.453 C 18.956,63.3 41.07,66.359 53.641,55.645 C 65.532,45.508 66.403,25.057 56.268,13.771 C 50.68,7.548 42.195,4.351 34.092,3.298 C 27.432,2.433 22.053,4.712 16.395,7.916 C 14.711,8.869 16.223,11.461 17.909,10.507 C 21.622,8.405 25.406,6.471 29.697,6.153 C 37.516,5.574 46.014,8.875 51.971,13.813 C 63.684,23.521 62.297,42.164 52.375,52.708 C 42.051,63.679 21.048,59.812 11.833,49.406 C 6.525,43.413 5.695,34.551 7.14,27.013 C 8.462,20.112 13.169,14.832 18.212,10.272 C 19.65,8.972 17.522,6.856 16.091,8.15 L 16.091,8.15 z"
   id="path47" />
	</g>
</g>
</svg>