<?xml version="1.0" encoding="utf-8"?>
<!-- Generator: Adobe Illustrator 14.0.0, SVG Export Plug-In . SVG Version: 6.00 Build 43363)  -->
<!DOCTYPE svg PUBLIC "-//W3C//DTD SVG 1.1//EN" "http://www.w3.org/Graphics/SVG/1.1/DTD/svg11.dtd">
<svg version="1.1" id="Capa_1" xmlns="http://www.w3.org/2000/svg" xmlns:xlink="http://www.w3.org/1999/xlink" x="0px" y="0px"
	 width="64px" height="64px" viewBox="0 0 64 64" enable-background="new 0 0 64 64" xml:space="preserve">
<g>
	<g>
		<path fill="#CB0A1D" d="M6.101,10.028c0,6.78,0,14.313,0,21.092c4.27,1.006,4.891,0.36,8.161,0.504
			c2.888,0.124-0.251-6.529,4.269-6.529c4.52,0,13.435,1.256,17.955,0.502c-8.288,1.507-20.592,19.586-19.085,27.874
			c0.753,4.52,1.004,3.264,5.525,3.014c2.009,0,4.018,0,6.027,0c4.018,0,8.036,0,12.052,0c2.01-8.037,1.508-16.072,5.274-24.108
			c3.265-6.277,8.035-15.317,13.812-19.586c-5.274-5.022-6.278-2.26-12.054-1.256c-4.018,0.754-7.784-1.757-11.803-2.511
			c-8.036-1.757-15.694,1.005-22.726,5.273C16.146,8.486,8.612,9.526,6.101,10.028"/>
		<g>
			<path fill="#CB0A1D" d="M4.601,10.028c0,7.031,0,14.061,0,21.092c0,0.635,0.454,1.313,1.101,1.446
				c3.176,0.66,10.822,2.453,11.413-2.361c0.128-1.046-0.159-3.417,1.417-3.61c1.95-0.239,4.174,0.189,6.124,0.332
				c3.927,0.286,7.907,0.672,11.831,0.17c-0.133-0.982-0.266-1.964-0.399-2.946c-9.904,2.358-17.723,15.398-19.928,24.572
				c-0.499,2.072-1.087,9.045,2.193,9.49c2.449,0.332,5.104-0.229,7.587-0.229c5.021,0,10.043,0,15.065,0
				c0.646,0,1.298-0.455,1.446-1.102c1.901-8.295,1.7-17.182,5.715-24.884c3.424-6.566,7.092-13.467,12.985-18.147
				c0.616-0.489,0.562-1.622,0-2.121c-2.053-1.827-4.035-3.418-6.899-3.327c-1.379,0.044-2.785,0.673-4.082,1.081
				c-3.252,1.023-5.976,0.478-9.096-0.582c-10.159-3.453-19.257-1.224-28.322,4.1c0.734,0.564,1.469,1.129,2.203,1.693
				c2.427-6.569-4.563-6.989-9.253-6.113c-1.9,0.354-1.093,3.246,0.798,2.893c2.135-0.398,6.927-1.271,5.563,2.423
				c-0.472,1.276,1.137,2.319,2.203,1.693c8.369-4.914,16.612-7.054,26.011-3.797c2.607,0.903,5.372,1.77,8.159,1.187
				c4.442-0.928,6.689-2.605,10.595,0.87c0-0.707,0-1.414,0-2.121c-5.746,4.563-9.431,11.2-12.832,17.571
				c-4.511,8.449-4.545,17.646-6.64,26.785c0.482-0.367,0.964-0.734,1.446-1.102c-6.026,0-12.053,0-18.079,0
				c-1.494,0-3.424,1.088-3.863-0.723c-0.561-2.314-0.134-4.494,0.52-6.736c2.19-7.516,9.174-18.546,17.302-20.482
				c1.618-0.385,1.297-3.163-0.398-2.946c-3.46,0.442-6.948,0.171-10.414-0.067c-2.607-0.179-6.734-1.255-9.211-0.118
				c-1.615,0.741-2.223,2.009-2.486,3.716c-0.154,1.001,0.271,2.503-1.371,2.477c-2.25-0.036-4.256,0.037-6.504-0.43
				c0.367,0.482,0.734,0.964,1.101,1.446c0-7.031,0-14.062,0-21.092C7.601,8.094,4.601,8.094,4.601,10.028L4.601,10.028z"/>
		</g>
	</g>
	<g>
		<g>
			<path d="M4.601,10.028c0,7.031,0,14.062,0,21.092c0,0.635,0.454,1.312,1.101,1.446c3.151,0.654,10.271,2.357,11.359-1.963
				c0.236-0.936,0.174-1.971,0.321-2.921c0.306-1.983,5.121-0.899,6.307-0.809c4.264,0.325,8.535,0.773,12.797,0.223
				c-0.133-0.982-0.266-1.964-0.398-2.946c-9.905,2.358-17.724,15.397-19.929,24.572c-0.499,2.073-1.087,9.045,2.193,9.49
				c2.449,0.332,5.104-0.229,7.587-0.229c5.021,0,10.044,0,15.065,0c0.646,0,1.298-0.455,1.446-1.102
				c1.901-8.296,1.7-17.182,5.715-24.884c3.424-6.566,7.092-13.466,12.985-18.147c0.616-0.489,0.562-1.622,0-2.121
				c-2.053-1.827-4.035-3.418-6.899-3.327c-1.379,0.044-2.785,0.673-4.082,1.081c-3.252,1.023-5.976,0.478-9.096-0.582
				c-10.159-3.453-19.257-1.224-28.322,4.099c0.734,0.565,1.469,1.129,2.203,1.694c2.427-6.569-4.563-6.989-9.253-6.113
				c-1.9,0.354-1.093,3.246,0.798,2.893c2.135-0.398,6.927-1.271,5.563,2.423c-0.472,1.277,1.137,2.32,2.203,1.694
				c8.369-4.915,16.612-7.054,26.011-3.797c2.607,0.903,5.372,1.769,8.159,1.187c4.442-0.928,6.689-2.605,10.595,0.87
				c0-0.707,0-1.414,0-2.121c-5.746,4.563-9.431,11.2-12.832,17.571c-4.511,8.449-4.546,17.646-6.64,26.785
				c0.482-0.367,0.964-0.734,1.446-1.102c-6.026,0-12.053,0-18.079,0c-1.494,0-3.424,1.088-3.863-0.723
				c-0.561-2.314-0.134-4.494,0.52-6.736c2.19-7.515,9.174-18.546,17.302-20.482c1.618-0.385,1.297-3.165-0.398-2.946
				c-3.776,0.487-7.556,0.188-11.337-0.106c-2.38-0.186-6.021-1.12-8.289-0.079c-1.615,0.741-2.223,2.008-2.486,3.716
				c-0.154,1.001,0.271,2.503-1.371,2.476c-2.25-0.036-4.256,0.037-6.504-0.43c0.367,0.482,0.734,0.964,1.101,1.446
				c0-7.031,0-14.062,0-21.092C7.601,8.094,4.601,8.094,4.601,10.028L4.601,10.028z"/>
		</g>
	</g>
</g>
</svg>
