<?xml version="1.0" encoding="utf-8"?>
<!-- Generator: Adobe Illustrator 14.0.0, SVG Export Plug-In . SVG Version: 6.00 Build 43363)  -->
<!DOCTYPE svg PUBLIC "-//W3C//DTD SVG 1.1//EN" "http://www.w3.org/Graphics/SVG/1.1/DTD/svg11.dtd">
<svg version="1.1" id="Capa_1" xmlns="http://www.w3.org/2000/svg" xmlns:xlink="http://www.w3.org/1999/xlink" x="0px" y="0px"
	 width="64px" height="64px" viewBox="0 0 64 64" enable-background="new 0 0 64 64" xml:space="preserve">
<g>
	<path fill="#ED7811" d="M25.322,7.987c-4.176,0.725-9.622,5.445-12.345,8.532C9.89,20.15,7.53,24.325,7.167,29.227
		C6.441,37.76,8.982,49.378,16.97,54.099c6.898,3.995,15.25,4.628,23.239,3.54c11.074-1.453,16.934-8.804,19.111-18.972
		c2.178-9.621-0.684-19.326-8.945-25.96c-6.492-5.212-15.432-6.988-23.239-4.628"/>
	<g>
		<path fill="#ED7811" d="M24.524,5.094c-7.11,1.782-13.038,7.775-16.935,13.73c-4.126,6.305-4.027,14.122-2.706,21.253
			c3.384,18.267,21.271,22.792,37.539,20.231c14.619-2.301,22.658-18.756,20.211-32.437C59.631,11.095,42.648,0.831,26.338,5.186
			c-3.734,0.998-2.147,6.786,1.596,5.786c12.804-3.42,25.603,4.244,28.666,17.109c2.578,10.836-3.584,23.219-14.416,26.154
			c-6.334,1.716-13.638,1.074-19.799-0.908c-6.47-2.083-9.748-7.301-11.426-13.561c-3.08-11.488,2.763-25.78,15.161-28.886
			C29.871,9.94,28.279,4.154,24.524,5.094L24.524,5.094z"/>
	</g>
</g>
<g>
	<path fill="#CF5E16" d="M55.096,29.544c0.182,4.176-3.631,9.986-5.992,13.435c-3.268,4.357-7.807,6.173-11.438,9.984
		C48.014,54.053,61.813,38.985,55.457,29"/>
	<g>
		<path fill="#CF5E16" d="M53.971,29.544c-0.414,10.695-10.406,16.088-17.102,22.623c-0.734,0.719-0.15,1.867,0.797,1.921
			c11.836,0.671,25.219-14.239,18.764-25.655c-0.715-1.263-2.658-0.13-1.943,1.135c5.633,9.961-6.77,22.84-16.82,22.271
			c0.266,0.641,0.529,1.28,0.795,1.921c4.025-3.93,9.074-6.467,12.291-11.208c2.635-3.885,5.283-8.199,5.469-13.007
			C56.275,28.093,54.025,28.098,53.971,29.544L53.971,29.544z"/>
	</g>
</g>
<g>
	<path fill="#FFFAF9" d="M23.506,15.384c-5.266,6.535-11.983,13.979-11.983,22.693C7.349,29,12.613,16.11,23.506,15.384"/>
	<g>
		<path fill="#FFFAF9" d="M22.71,14.588c-5.646,6.967-11.936,14.086-12.312,23.489c0.737-0.1,1.473-0.199,2.21-0.299
			c-3.649-8.75,0.688-20.167,10.898-21.27c1.427-0.154,1.441-2.406,0-2.25C11.991,15.502,6.149,28.091,10.438,38.376
			c0.472,1.133,2.156,1.048,2.21-0.299c0.35-8.739,6.423-15.443,11.654-21.897C25.207,15.063,23.625,13.46,22.71,14.588
			L22.71,14.588z"/>
	</g>
</g>
<g>
	<path fill="#7CB623" d="M31.13,9.574c-1.27,0.544-2.723,0.544-3.994,0.544c0.727,1.09,1.998,2.361,1.998,3.813
		c1.815-0.727,3.813-0.363,5.264,0.907c0.363-1.452,1.271-2.359,2.904-2.541c-1.451-0.362-1.814-1.09-2.178-2.18
		c-1.271,0.363-2.723,0.183-3.631-0.726"/>
	<g>
		<path fill="#7CB623" d="M30.832,8.489c-1.22,0.431-2.411,0.499-3.695,0.504c-0.796,0.003-1.478,0.975-0.972,1.693
			c0.693,0.982,1.714,1.99,1.845,3.246c0.071,0.685,0.67,1.334,1.424,1.085c1.511-0.5,2.881-0.379,4.168,0.618
			c0.66,0.511,1.611,0.384,1.881-0.497c0.352-1.146,0.963-1.56,2.119-1.755c1.17-0.197,0.977-1.86,0-2.17
			c-0.838-0.266-1.104-0.587-1.393-1.394c-0.215-0.601-0.75-0.925-1.383-0.786c-0.93,0.205-1.752,0.208-2.537-0.436
			c-1.112-0.913-2.713,0.669-1.591,1.591c1.421,1.167,2.945,1.407,4.726,1.015c-0.461-0.262-0.922-0.524-1.385-0.786
			c0.563,1.574,1.35,2.452,2.965,2.966c0-0.723,0-1.447,0-2.17c-1.93,0.325-3.125,1.476-3.691,3.327
			c0.627-0.166,1.254-0.331,1.881-0.497c-1.92-1.487-4.02-1.97-6.358-1.197c0.475,0.362,0.949,0.723,1.424,1.085
			c-0.186-1.775-1.149-2.961-2.151-4.381c-0.324,0.564-0.647,1.128-0.972,1.693c1.482-0.006,2.886-0.086,4.293-0.584
			C32.787,10.179,32.203,8.004,30.832,8.489L30.832,8.489z"/>
	</g>
</g>
<g>
	<path fill="#4E9B2A" d="M32.584,11.026c-1.09,0.182-1.817,0.182-1.454,1.634c1.454,0.363,1.817,0.183,2.543-0.907
		c-0.184-0.182-0.545-0.182-0.91-0.545"/>
	<g>
		<path fill="#4E9B2A" d="M32.285,9.941c-0.639,0.104-1.303,0.191-1.798,0.653c-0.669,0.625-0.632,1.542-0.441,2.364
			c0.085,0.369,0.42,0.697,0.786,0.786c0.697,0.169,1.485,0.336,2.182,0.075c0.742-0.277,1.199-0.862,1.631-1.5
			c0.258-0.381,0.197-1.068-0.176-1.363c-0.309-0.244-0.682-0.344-0.908-0.545c-0.461-0.406-1.139-0.454-1.592,0
			c-0.414,0.413-0.459,1.185,0,1.591c0.197,0.173,0.398,0.333,0.627,0.46c0.111,0.062,0.557,0.302,0.281,0.085
			c-0.059-0.455-0.117-0.909-0.176-1.363c-0.125,0.188-0.205,0.293-0.27,0.368c-0.025,0.029-0.271,0.246-0.059,0.083
			c-0.053,0.041-0.295,0.14-0.039,0.044c-0.055,0.019-0.113,0.033-0.172,0.042c0.271-0.057-0.041-0.02-0.096-0.022
			c-0.342-0.012,0.197,0.044-0.191-0.026c-0.15-0.027-0.298-0.064-0.446-0.101c0.262,0.262,0.524,0.524,0.786,0.786
			c-0.025-0.099-0.045-0.199-0.063-0.3c0.031,0.169,0.031-0.283-0.012,0.033c0.035-0.127,0.025-0.115-0.031,0.035
			c-0.021,0.045-0.318,0.26-0.133,0.147c-0.237,0.145,0.131-0.028,0.242-0.053c0.219-0.047,0.443-0.076,0.664-0.112
			c0.605-0.099,0.936-0.841,0.785-1.384C33.492,10.089,32.889,9.843,32.285,9.941L32.285,9.941z"/>
	</g>
</g>
<g>
	<g>
		<path d="M16.091,8.15C10.128,13.542,5.534,19.502,3.994,27.537c-1.479,7.718-0.055,16.638,4.875,22.916
			C18.956,63.3,41.07,66.359,53.641,55.645c11.891-10.137,12.762-30.588,2.627-41.874C50.68,7.548,42.195,4.351,34.092,3.298
			c-6.66-0.865-12.039,1.414-17.697,4.618c-1.684,0.953-0.172,3.545,1.514,2.591c3.713-2.102,7.497-4.036,11.788-4.354
			c7.819-0.579,16.317,2.722,22.274,7.66c11.713,9.708,10.326,28.351,0.404,38.895c-10.324,10.971-31.327,7.104-40.542-3.302
			C6.525,43.413,5.695,34.551,7.14,27.013c1.322-6.901,6.029-12.181,11.072-16.741C19.65,8.972,17.522,6.856,16.091,8.15
			L16.091,8.15z"/>
	</g>
</g>
</svg>
