<?xml version="1.0" encoding="UTF-8" standalone="no"?>
<!-- Generator: Adobe Illustrator 14.0.0, SVG Export Plug-In . SVG Version: 6.00 Build 43363)  -->
<svg
   xmlns:dc="http://purl.org/dc/elements/1.1/"
   xmlns:cc="http://creativecommons.org/ns#"
   xmlns:rdf="http://www.w3.org/1999/02/22-rdf-syntax-ns#"
   xmlns:svg="http://www.w3.org/2000/svg"
   xmlns="http://www.w3.org/2000/svg"
   xmlns:sodipodi="http://sodipodi.sourceforge.net/DTD/sodipodi-0.dtd"
   xmlns:inkscape="http://www.inkscape.org/namespaces/inkscape"
   version="1.0"
   id="Capa_1"
   x="0px"
   y="0px"
   width="32"
   height="32"
   viewBox="0 0 64 64"
   enable-background="new 0 0 64 64"
   xml:space="preserve"
   sodipodi:version="0.32"
   inkscape:version="0.46"
   sodipodi:docname="sym_small_seven.svg"
   inkscape:output_extension="org.inkscape.output.svg.inkscape"><metadata
   id="metadata22"><rdf:RDF><cc:Work
       rdf:about=""><dc:format>image/svg+xml</dc:format><dc:type
         rdf:resource="http://purl.org/dc/dcmitype/StillImage" /></cc:Work></rdf:RDF></metadata><defs
   id="defs20"><inkscape:perspective
     sodipodi:type="inkscape:persp3d"
     inkscape:vp_x="0 : 32 : 1"
     inkscape:vp_y="0 : 1000 : 0"
     inkscape:vp_z="64 : 32 : 1"
     inkscape:persp3d-origin="32 : 21.333333 : 1"
     id="perspective24" /></defs><sodipodi:namedview
   inkscape:window-height="676"
   inkscape:window-width="640"
   inkscape:pageshadow="2"
   inkscape:pageopacity="0.0"
   guidetolerance="10.0"
   gridtolerance="10.0"
   objecttolerance="10.0"
   borderopacity="1.0"
   bordercolor="#666666"
   pagecolor="#ffffff"
   id="base"
   showgrid="false"
   inkscape:zoom="7.46875"
   inkscape:cx="32"
   inkscape:cy="32"
   inkscape:window-x="70"
   inkscape:window-y="0"
   inkscape:current-layer="Capa_1" />
<g
   id="g3">
	<g
   id="g5">
		<path
   d="M 6.101,10.028 C 6.101,16.808 6.101,24.341 6.101,31.12 C 10.371,32.126 10.992,31.48 14.262,31.624 C 17.15,31.748 14.011,25.095 18.531,25.095 C 23.051,25.095 31.966,26.351 36.486,25.597 C 28.198,27.104 15.894,45.183 17.401,53.471 C 18.154,57.991 18.405,56.735 22.926,56.485 C 24.935,56.485 26.944,56.485 28.953,56.485 C 32.971,56.485 36.989,56.485 41.005,56.485 C 43.015,48.448 42.513,40.413 46.279,32.377 C 49.544,26.1 54.314,17.06 60.091,12.791 C 54.817,7.769 53.813,10.531 48.037,11.535 C 44.019,12.289 40.253,9.778 36.234,9.024 C 28.198,7.267 20.54,10.029 13.508,14.297 C 16.146,8.486 8.612,9.526 6.101,10.028"
   id="path7"
   style="fill:#cb0a1d" />
		<g
   id="g9">
			<path
   d="M 4.601,10.028 C 4.601,17.059 4.601,24.089 4.601,31.12 C 4.601,31.755 5.055,32.433 5.702,32.566 C 8.878,33.226 16.524,35.019 17.115,30.205 C 17.243,29.159 16.956,26.788 18.532,26.595 C 20.482,26.356 22.706,26.784 24.656,26.927 C 28.583,27.213 32.563,27.599 36.487,27.097 C 36.354,26.115 36.221,25.133 36.088,24.151 C 26.184,26.509 18.365,39.549 16.16,48.723 C 15.661,50.795 15.073,57.768 18.353,58.213 C 20.802,58.545 23.457,57.984 25.94,57.984 C 30.961,57.984 35.983,57.984 41.005,57.984 C 41.651,57.984 42.303,57.529 42.451,56.882 C 44.352,48.587 44.151,39.7 48.166,31.998 C 51.59,25.432 55.258,18.531 61.151,13.851 C 61.767,13.362 61.713,12.229 61.151,11.73 C 59.098,9.903 57.116,8.312 54.252,8.403 C 52.873,8.447 51.467,9.076 50.17,9.484 C 46.918,10.507 44.194,9.962 41.074,8.902 C 30.915,5.449 21.817,7.678 12.752,13.002 C 13.486,13.566 14.221,14.131 14.955,14.695 C 17.382,8.126 10.392,7.706 5.702,8.582 C 3.802,8.936 4.609,11.828 6.5,11.475 C 8.635,11.077 13.427,10.204 12.063,13.898 C 11.591,15.174 13.2,16.217 14.266,15.591 C 22.635,10.677 30.878,8.537 40.277,11.794 C 42.884,12.697 45.649,13.564 48.436,12.981 C 52.878,12.053 55.125,10.376 59.031,13.851 C 59.031,13.144 59.031,12.437 59.031,11.73 C 53.285,16.293 49.6,22.93 46.199,29.301 C 41.688,37.75 41.654,46.947 39.559,56.086 C 40.041,55.719 40.523,55.352 41.005,54.984 C 34.979,54.984 28.952,54.984 22.926,54.984 C 21.432,54.984 19.502,56.072 19.063,54.261 C 18.502,51.947 18.929,49.767 19.583,47.525 C 21.773,40.009 28.757,28.979 36.885,27.043 C 38.503,26.658 38.182,23.88 36.487,24.097 C 33.027,24.539 29.539,24.268 26.073,24.03 C 23.466,23.851 19.339,22.775 16.862,23.912 C 15.247,24.653 14.639,25.921 14.376,27.628 C 14.222,28.629 14.647,30.131 13.005,30.105 C 10.755,30.069 8.749,30.142 6.501,29.675 C 6.868,30.157 7.235,30.639 7.602,31.121 C 7.602,24.09 7.602,17.059 7.602,10.029 C 7.601,8.094 4.601,8.094 4.601,10.028 L 4.601,10.028 z"
   id="path11"
   style="fill:#cb0a1d" />
		</g>
	</g>
	<g
   id="g13">
		<g
   id="g15">
			<path
   d="M 4.601,10.028 C 4.601,17.059 4.601,24.09 4.601,31.12 C 4.601,31.755 5.055,32.432 5.702,32.566 C 8.853,33.22 15.973,34.923 17.061,30.603 C 17.297,29.667 17.235,28.632 17.382,27.682 C 17.688,25.699 22.503,26.783 23.689,26.873 C 27.953,27.198 32.224,27.646 36.486,27.096 C 36.353,26.114 36.22,25.132 36.088,24.15 C 26.183,26.508 18.364,39.547 16.159,48.722 C 15.66,50.795 15.072,57.767 18.352,58.212 C 20.801,58.544 23.456,57.983 25.939,57.983 C 30.96,57.983 35.983,57.983 41.004,57.983 C 41.65,57.983 42.302,57.528 42.45,56.881 C 44.351,48.585 44.15,39.699 48.165,31.997 C 51.589,25.431 55.257,18.531 61.15,13.85 C 61.766,13.361 61.712,12.228 61.15,11.729 C 59.097,9.902 57.115,8.311 54.251,8.402 C 52.872,8.446 51.466,9.075 50.169,9.483 C 46.917,10.506 44.193,9.961 41.073,8.901 C 30.914,5.448 21.816,7.677 12.751,13 C 13.485,13.565 14.22,14.129 14.954,14.694 C 17.381,8.125 10.391,7.705 5.701,8.581 C 3.801,8.935 4.608,11.827 6.499,11.474 C 8.634,11.076 13.426,10.203 12.062,13.897 C 11.59,15.174 13.199,16.217 14.265,15.591 C 22.634,10.676 30.877,8.537 40.276,11.794 C 42.883,12.697 45.648,13.563 48.435,12.981 C 52.877,12.053 55.124,10.376 59.03,13.851 C 59.03,13.144 59.03,12.437 59.03,11.73 C 53.284,16.293 49.599,22.93 46.198,29.301 C 41.687,37.75 41.652,46.947 39.558,56.086 C 40.04,55.719 40.522,55.352 41.004,54.984 C 34.978,54.984 28.951,54.984 22.925,54.984 C 21.431,54.984 19.501,56.072 19.062,54.261 C 18.501,51.947 18.928,49.767 19.582,47.525 C 21.772,40.01 28.756,28.979 36.884,27.043 C 38.502,26.658 38.181,23.878 36.486,24.097 C 32.71,24.584 28.93,24.285 25.149,23.991 C 22.769,23.805 19.128,22.871 16.86,23.912 C 15.245,24.653 14.637,25.92 14.374,27.628 C 14.22,28.629 14.645,30.131 13.003,30.104 C 10.753,30.068 8.747,30.141 6.499,29.674 C 6.866,30.156 7.233,30.638 7.6,31.12 C 7.6,24.089 7.6,17.058 7.6,10.028 C 7.601,8.094 4.601,8.094 4.601,10.028 L 4.601,10.028 z"
   id="path17" />
		</g>
	</g>
</g>
</svg>