<?xml version="1.0" encoding="utf-8"?>
<!-- Generator: Adobe Illustrator 14.0.0, SVG Export Plug-In . SVG Version: 6.00 Build 43363)  -->
<!DOCTYPE svg PUBLIC "-//W3C//DTD SVG 1.1//EN" "http://www.w3.org/Graphics/SVG/1.1/DTD/svg11.dtd">
<svg version="1.1" id="Capa_1" xmlns="http://www.w3.org/2000/svg" xmlns:xlink="http://www.w3.org/1999/xlink" x="0px" y="0px"
	 width="64px" height="64px" viewBox="0 0 64 64" enable-background="new 0 0 64 64" xml:space="preserve">
<g>
	<path fill="#75507B" d="M40.495,15.979c0.996,0.997,0.856,0.889,1.74,2.214c1.492,2.239-0.571,3.232,2.737,3.233
		c3.932,0,6.219-0.473,6.714,3.757c0.499,4.228-0.829,2.984,2.403,5.969c2.487,2.239,4.065,1.243,4.811,5.47
		c0.746,4.229-2.735,4.229-2.985,7.215c-0.248,1.74,1.992,3.979,1.494,6.466c-1.244,8.208-8.463,4.909-13.438,2.67
		c-0.746,8.209-8.706-0.493-10.192-3.63c-1.244,1.988-5.034,4.625-7.771,3.631c-3.482-1.244-3.421-3.167-3.67-5.903
		C9.653,56.473,5.424,23.69,20.845,27.172c-0.249-1.491-0.249-3.233-0.249-4.974C28.556,22.944,35.271,23.69,40.495,15.979"/>
	<g>
		<path fill="#75507B" d="M38.021,18.455c1.481,1.534,1.172,3.649,2.629,5.106c1.706,1.707,4.519,1.358,6.699,1.353
			c2.038-0.005,0.403,2.854,1.14,4.651c0.843,2.057,2.282,3.396,4.017,4.768c1.805,1.428,4.263,2.31,1.986,4.773
			c-1.464,1.585-2.156,3.498-2.017,5.643c0.104,1.598,3.167,6.99,0.065,7.309c-2.235,0.229-4.836-1.223-6.802-2.105
			c-1.836-0.823-4.763-0.349-5.142,2.092c-0.584,1.374-0.226,1.643,1.073,0.806c-0.888-0.4-1.592-1.157-2.278-1.82
			c-1.047-1.01-1.906-2.173-2.59-3.451c-1.371-2.562-4.548-1.939-6.044,0c-1.798,2.33-4.63,2.773-4.919-0.506
			c-0.212-2.413-2.89-4.662-5.267-3.022c-4.011,2.767-5.643-1.269-6.056-5.067c-0.402-3.705,0.5-9.354,5.398-8.434
			c2.006,0.377,4.703-0.94,4.431-3.375c-0.187-1.668-0.24-3.295-0.249-4.974c-1.167,1.167-2.333,2.333-3.5,3.5
			c9.429,0.879,16.976,0.133,22.921-7.953c2.678-3.643-3.401-7.128-6.045-3.533c-4.267,5.804-10.459,5.084-16.876,4.486
			c-1.896-0.177-3.509,1.726-3.5,3.5c0.009,1.678,0.062,3.305,0.249,4.974c1.477-1.125,2.954-2.25,4.431-3.375
			c-22.981-4.319-15,38.249,2.329,26.296c-1.755-1.008-3.511-2.015-5.267-3.022c0.946,10.756,11.748,12.096,17.963,4.039
			c-2.015,0-4.03,0-6.044,0c3.182,5.946,14.79,14.382,16.589,2.794c-1.714,0.697-3.428,1.395-5.142,2.092
			c4.895,2.196,13.494,5.848,17.055-0.586c1.919-3.469,2.07-6.77,0.519-10.386c-0.608-1.418,0.942-2.366,1.758-3.548
			c0.942-1.367,0.991-3.283,0.864-4.854c-0.273-3.38-1.957-5.706-4.848-7.288c-0.752-0.424-1.418-0.957-1.999-1.598
			c-1.677-1.56-0.246,1.379-0.235-0.258c0.011-1.829-0.189-3.698-0.851-5.407c-1.202-3.105-4.051-4.015-7.119-4.16
			c-0.792,0-1.584,0.004-2.376,0.013c1.312-0.011,1.748,3.803,1.129,0.354c-0.314-1.754-1.936-3.537-3.132-4.776
			C39.83,10.252,34.886,15.208,38.021,18.455L38.021,18.455z"/>
	</g>
</g>
<g>
	<path fill="#5C3566" d="M51.687,27.894c-2.733,0.747-6.466,1.245-8.704,2.985c2.984,3.98,6.964,0.747,8.457-2.736"/>
	<g>
		<path fill="#5C3566" d="M51.544,27.362c-3.12,0.822-6.491,1.254-9.172,3.188c-0.218,0.157-0.511,0.44-0.283,0.719
			c3.449,4.217,8.431,0.9,10.257-3.082c0.412-0.899-1.525-0.714-1.813-0.089c-0.563,1.228-1.287,2.283-2.294,3.191
			c-1.59,1.433-3.174,0.653-4.363-0.802c-0.095,0.239-0.188,0.479-0.283,0.719c2.384-1.72,5.46-2.05,8.236-2.782
			C52.999,28.116,52.713,27.054,51.544,27.362L51.544,27.362z"/>
	</g>
</g>
<g>
	<path fill="#5C3566" d="M39.75,25.904c-1.246-1.493-2.985-1.989-4.727-1.493c1.243,1.245,2.984,1.742,4.727,1.742"/>
	<g>
		<path fill="#5C3566" d="M40.637,25.486c-1.509-1.708-3.591-2.265-5.782-1.707c-0.317,0.081-1.166,0.625-0.718,1.049
			c1.456,1.375,3.288,1.967,5.271,2c0.465,0.008,1.029-0.124,1.262-0.581c0.205-0.405-0.179-0.764-0.578-0.771
			c-1.546-0.026-3.03-0.396-4.182-1.484c-0.239,0.35-0.479,0.699-0.718,1.049c1.446-0.368,2.707,0.187,3.671,1.279
			C39.421,26.953,41.261,26.193,40.637,25.486L40.637,25.486z"/>
	</g>
</g>
<g>
	<path fill="#5C3566" d="M22.338,38.838c-3.482-0.497-7.214-1.742-8.954-4.974c-2.24,5.721,4.726,8.953,8.705,5.222"/>
	<g>
		<path fill="#5C3566" d="M22.951,38.393c-3.377-0.516-6.789-1.685-8.601-4.787c-0.292-0.501-1.754-0.07-1.924,0.41
			c-1.01,2.855,0,5.521,2.837,6.709c2.493,1.042,5.624,0.152,7.58-1.56c0.787-0.688-1.133-0.486-1.507-0.158
			c-1.799,1.574-4.033,1.537-5.89,0.078c-1.679-1.32-1.762-3.51-1.104-5.372c-0.642,0.137-1.283,0.273-1.924,0.41
			c1.971,3.375,5.633,4.599,9.307,5.16C22.213,39.357,23.977,38.549,22.951,38.393L22.951,38.393z"/>
	</g>
</g>
<g>
	<path fill="#5C3566" d="M31.79,54.508c-3.234-0.748-8.706-2.089-11.442-4.329c-1.243,5.225,7.461,7.063,10.696,4.329"/>
	<g>
		<path fill="#5C3566" d="M32.356,53.888c-3.842-0.895-8.067-1.803-11.258-4.245c-0.503-0.385-1.608-0.011-1.726,0.621
			c-1.172,6.291,8.527,7.543,12.303,4.647c1.043-0.8-0.541-1.359-1.262-0.807c-3.034,2.326-9.945,0.579-9.09-4.011
			c-0.575,0.207-1.151,0.414-1.726,0.621c3.3,2.524,7.658,3.489,11.627,4.413C32.001,55.31,33.515,54.157,32.356,53.888
			L32.356,53.888z"/>
	</g>
</g>
<g>
	<path fill="#5C3566" d="M19.851,48.787c-2.736-0.498-4.975-2.239-7.213-3.731c-1.741,4.976,7.462,5.472,7.213,3.482"/>
	<g>
		<path fill="#5C3566" d="M20.447,48.277c-2.613-0.55-4.736-2.133-6.911-3.594c-0.486-0.327-1.664-0.131-1.863,0.499
			c-1.819,5.767,9.269,6.149,9.144,3.097c-0.024-0.588-1.961-0.206-1.932,0.518c0.031,0.752-2.85,0.044-3.198-0.077
			c-1.729-0.604-2.654-1.989-2.085-3.791c-0.621,0.167-1.242,0.333-1.863,0.499c2.373,1.596,4.665,3.27,7.516,3.869
			C19.845,49.421,21.533,48.506,20.447,48.277L20.447,48.277z"/>
	</g>
</g>
<g>
	<path fill="#5C3566" d="M44.475,55.559c-3.482-1.493-7.212-2.487-10.695-3.979c-1.244,4.974,10.198,10.196,11.193,3.979"/>
	<g>
		<path fill="#5C3566" d="M45.234,55.057c-3.515-1.465-7.182-2.515-10.695-3.979c-0.512-0.213-1.6-0.075-1.73,0.605
			c-1.199,6.221,11.676,10.85,13.135,3.772c0.17-0.825-1.79-0.527-1.941,0.207c-1.044,5.063-10.063,0.02-9.252-4.187
			c-0.577,0.202-1.153,0.403-1.73,0.605c3.515,1.464,7.182,2.514,10.695,3.979C44.36,56.329,46.104,55.42,45.234,55.057
			L45.234,55.057z"/>
	</g>
</g>
<g>
	<path fill="#5C3566" d="M55.915,56.248c-3.729-0.497-9.203-2.488-11.938-4.974C43.729,56.745,50.941,60.727,54.92,56"/>
	<g>
		<path fill="#5C3566" d="M56.707,55.866c-4.18-0.629-8.574-2.148-11.82-4.925c-0.335-0.286-1.875,0.089-1.875,0.592
			c0.005,6.822,8.517,9.028,12.784,4.401c0.418-0.453-1.433-0.216-1.752,0.131c-3.827,4.148-9.098-0.69-9.101-5.05
			c-0.625,0.197-1.25,0.395-1.875,0.592c3.287,2.812,7.826,4.385,12.055,5.022C55.588,56.699,57.251,55.948,56.707,55.866
			L56.707,55.866z"/>
	</g>
</g>
<g>
	<path fill="#5C3566" d="M46.464,46.051c-4.229,0.994-7.461-0.499-9.699-4.229c-2.489,5.971,5.222,7.96,9.202,4.975"/>
	<g>
		<path fill="#5C3566" d="M46.643,45.689c-3.888,0.819-6.864-0.873-8.912-4.127c-0.264-0.419-1.763,0.017-1.919,0.428
			c-2.646,6.98,6.787,7.715,10.896,4.837c0.798-0.559-1.139-0.302-1.48-0.063c-1.903,1.333-4.357,1.291-6.312,0.077
			c-1.87-1.163-1.9-3.335-1.197-5.189c-0.64,0.143-1.279,0.285-1.919,0.428c2.434,3.868,6.061,5.264,10.486,4.332
			C47.045,46.252,47.992,45.405,46.643,45.689L46.643,45.689z"/>
	</g>
</g>
<g>
	<path fill="#5C3566" d="M44.973,21.427c-2.986-0.249-5.97,0-8.208,1.99c2.238,0.746,4.727,1.989,6.964,1.493"/>
	<g>
		<path fill="#5C3566" d="M45.342,20.856c-3.375-0.247-6.676,0.163-9.356,2.383c-0.354,0.292-0.162,0.599,0.193,0.721
			c2.428,0.839,4.798,1.938,7.425,1.51c0.939-0.153,1.581-1.337,0.25-1.121c-2.253,0.367-4.423-0.757-6.503-1.476
			c0.064,0.24,0.129,0.48,0.193,0.721c2.03-1.681,4.543-1.781,7.06-1.597C45.371,22.054,46.649,20.952,45.342,20.856L45.342,20.856z
			"/>
	</g>
</g>
<g>
	<path fill="#FFFFFF" d="M50.691,19.686c0.748,1.244,0.995,2.985,0.748,4.229c-5.473,0.248-5.72-7.463-0.995-4.229"/>
	<g>
		<path fill="#FFFFFF" d="M49.799,20.082c0.664,1.175,0.897,2.611,0.67,3.937c0.362-0.234,0.724-0.468,1.085-0.703
			c-1.603,0.046-3.043-1.005-3.417-2.569c-0.105-0.442-0.079-1.051,0.204-1.332c-0.048,0.047-0.313,0.121-0.099,0.064
			c-0.212,0.056,0.057,0.037,0.147,0.058c0.472,0.108,0.898,0.387,1.295,0.651c0.593,0.394,2.354-0.447,1.52-1.002
			c-0.996-0.663-2.235-1.166-3.433-0.753c-0.976,0.336-1.641,1.083-1.638,2.142c0.007,2.742,2.821,4.008,5.191,3.94
			c0.374-0.011,1.012-0.278,1.085-0.703c0.268-1.562-0.051-3.149-0.826-4.521C51.231,18.666,49.36,19.305,49.799,20.082
			L49.799,20.082z"/>
	</g>
</g>
<g>
	<path fill="#FFFFFF" d="M42.235,13.716c0.498,1.245,0.996,2.238,0.249,3.482c-4.229-2.237-2.238-6.466,0.249-2.735"/>
	<g>
		<path fill="#FFFFFF" d="M41.27,13.975c0.429,1.063,0.894,2.044,0.298,3.136c0.556-0.149,1.111-0.298,1.668-0.447
			c-1.008-0.552-2.309-1.547-2.229-2.851c0.006-0.112,0.091-0.343,0.047-0.282c0.102-0.142-0.054,0.021-0.104,0.047
			c-0.122,0.058-0.253,0.081-0.392,0.069c0.099,0.01,0.111,0.011,0.037,0.002c0.543,0.141,0.959,0.803,1.251,1.229
			c0.463,0.674,2.315-0.04,1.775-0.827c-0.54-0.785-1.227-1.532-2.204-1.706c-0.842-0.149-1.729,0.241-2.165,0.974
			c-1.031,1.738,1.18,3.701,2.481,4.415c0.526,0.289,1.371,0.097,1.668-0.447c0.729-1.333,0.332-2.508-0.2-3.828
			C42.87,12.637,40.954,13.195,41.27,13.975L41.27,13.975z"/>
	</g>
</g>
<g>
	<path fill="#FFFFFF" d="M34.027,27.396c3.235,0.996,5.723,3.98,1.741,4.477c-0.247,0.249-3.729-1.243-4.476-1.243
		c-1.742-0.249-2.737,1.243-4.229,0.996C27.809,29.634,31.542,27.646,34.027,27.396"/>
	<g>
		<path fill="#FFFFFF" d="M33.252,27.839c1.328,0.45,2.866,1.158,3.508,2.494c0.428,0.892-0.745,0.974-1.36,1.189
			c0.68-0.081,0.759-0.161,0.238-0.242c-0.326-0.094-0.648-0.209-0.97-0.318c-0.891-0.302-1.83-0.734-2.774-0.823
			c-0.559-0.052-1.136-0.064-1.683,0.087c-0.867,0.24-1.854,0.946-2.759,0.893c0.192,0.125,0.384,0.249,0.576,0.373
			c0.935-2.07,3.73-3.324,5.856-3.607c0.894-0.119,1.634-1.157,0.289-0.978c-2.93,0.39-6.777,1.988-8.07,4.852
			c-0.141,0.311,0.42,0.364,0.576,0.373c0.854,0.05,1.603-0.144,2.387-0.471c1.328-0.554,2.047-0.498,3.35-0.055
			c1.292,0.439,2.376,0.893,3.713,0.673c1.163-0.191,2.768-0.804,2.637-2.217c-0.149-1.609-2.714-2.687-3.962-3.109
			C34.259,26.769,32.505,27.586,33.252,27.839L33.252,27.839z"/>
	</g>
</g>
<g>
	<path fill="#FFFFFF" d="M46.712,34.858c0.996,0.746,1.742,1.244,1.742,2.734c-1.99,0.251-3.73-1.49-4.975-2.734
		c0.995-0.248,1.99,0,2.984,0.249"/>
	<g>
		<path fill="#FFFFFF" d="M45.809,35.211c0.979,0.731,1.632,1.353,1.68,2.641c0.454-0.241,0.909-0.483,1.363-0.725
			c-1.821,0.142-3.285-1.44-4.469-2.621c-0.353,0.265-0.706,0.53-1.06,0.796c0.815-0.155,1.567,0.029,2.359,0.225
			c0.45,0.112,0.953,0.003,1.358-0.215c0.176-0.094,0.66-0.511,0.204-0.623c-1.212-0.301-2.365-0.509-3.609-0.273
			c-0.19,0.036-1.467,0.391-1.06,0.796c1.516,1.514,3.192,3.025,5.48,2.848c0.369-0.028,1.383-0.188,1.363-0.725
			c-0.05-1.357-0.771-2.056-1.805-2.828C47.131,34.144,45.397,34.904,45.809,35.211L45.809,35.211z"/>
	</g>
</g>
<g>
	<path fill="#FFFFFF" d="M55.419,29.883c3.233,6.962-2.985,3.483-0.499,0"/>
	<g>
		<path fill="#FFFFFF" d="M54.453,30.142c0.423,0.92,0.976,2.137,0.947,3.09c-0.004,0.134-0.026,0.267-0.068,0.394
			c0.06-0.18,0.004-0.032-0.025,0.013c0.033-0.051,0.175-0.174,0.153-0.158c0.193-0.132,0.339-0.166,0.526-0.189
			c0.193,0.001,0.243,0,0.149-0.004c-0.084-0.01-0.044-0.003,0.118,0.02c-0.06-0.013-0.219-0.085,0.007,0.013
			c-0.05-0.021-0.097-0.049-0.143-0.077c-0.034-0.021-0.192-0.143-0.046-0.022c-0.049-0.04-0.095-0.085-0.14-0.13
			c-0.099-0.098-0.183-0.208-0.262-0.321c-0.141-0.203-0.239-0.438-0.319-0.771c-0.172-0.715,0.043-1.428,0.479-2.054
			c0.274-0.395-0.232-0.653-0.553-0.675c-0.473-0.031-0.992,0.16-1.268,0.556c-0.572,0.822-0.819,1.831-0.56,2.812
			c0.18,0.681,0.662,1.424,1.33,1.713c0.938,0.405,2.223,0.047,2.521-1.008c0.12-0.426,0.03-0.931-0.059-1.354
			c-0.172-0.819-0.51-1.605-0.857-2.362C56.04,28.874,54.14,29.459,54.453,30.142L54.453,30.142z"/>
	</g>
</g>
<g>
	<path fill="#FFFFFF" d="M56.413,43.561c0.996,0.999,1.494,1.991,1.494,3.235c-6.468,0.996-8.706-8.952-1.742-3.235"/>
	<g>
		<path fill="#FFFFFF" d="M55.508,43.909c0.868,0.894,1.406,1.884,1.434,3.146c0.375-0.229,0.751-0.458,1.126-0.688
			c-2.075,0.296-4.238-1.038-5.016-2.969c-0.127-0.314-0.203-0.654-0.193-0.994c0.004-0.118,0.055-0.247,0.106-0.353
			c-0.042,0.087,0.045-0.055,0.067-0.078c-0.114,0.12-0.285,0.169-0.438,0.215c-0.202,0.062-0.223,0.045-0.284,0.041
			c0.107,0.007,0.126,0.012,0.208,0.031c0.256,0.063,0.5,0.169,0.737,0.28c0.729,0.343,1.385,0.864,2.005,1.368
			c0.456,0.371,2.204-0.377,1.811-0.697c-1.215-0.987-2.654-2.062-4.306-1.849c-1.153,0.148-2.026,0.861-1.793,2.063
			c0.218,1.122,1.091,2.129,1.986,2.784c1.387,1.015,3.122,1.253,4.789,1.015c0.324-0.046,1.136-0.243,1.126-0.688
			c-0.028-1.33-0.646-2.389-1.555-3.325C56.924,42.806,55.116,43.505,55.508,43.909L55.508,43.909z"/>
	</g>
</g>
<g>
	<path fill="#FFFFFF" d="M32.039,42.32c2.984,3.979-1.99,2.735-3.483-0.499c1.493-0.494,2.488-0.248,3.732,0.499"/>
	<g>
		<path fill="#FFFFFF" d="M31.141,42.693c0.381,0.519,0.809,1.1,0.868,1.763c0.004,0.05-0.027,0.117-0.042,0.163
			c0.064-0.189,0.453-0.301,0.629-0.329c0.248-0.04-0.186-0.066-0.314-0.113c-1.191-0.44-2.214-1.486-2.758-2.614
			c-0.28,0.241-0.561,0.482-0.841,0.724c1.081-0.332,1.883-0.063,2.836,0.492c0.527,0.308,2.316-0.465,1.542-0.916
			c-1.486-0.866-2.983-1.013-4.628-0.506c-0.2,0.062-1.018,0.357-0.841,0.724c0.759,1.573,2.397,3.169,4.24,3.263
			c0.781,0.039,1.702-0.232,2.064-0.976c0.364-0.746-0.568-1.891-0.957-2.42C32.561,41.435,30.693,42.084,31.141,42.693
			L31.141,42.693z"/>
	</g>
</g>
<g>
	<path fill="#91BD32" d="M39.75,9.487c1.119,8.707-19.402,14.923-19.402,6.964c0-6.964,14.427-7.709,19.152-6.466"/>
	<g>
		<path fill="#91BD32" d="M38.784,9.746c0.465,6.332-11.423,12.794-16.503,8.816c-3.911-3.063,2.371-6.905,4.808-7.623
			c3.667-1.079,8.093-1.285,11.825-0.412c0.644,0.15,2.284-0.824,1.174-1.084c-5.062-1.185-10.956-0.573-15.756,1.334
			c-3.188,1.267-7.329,5.822-3.49,8.828c3.18,2.49,8.818,0.631,12.036-0.752c3.868-1.663,8.18-4.978,7.839-9.625
			C40.667,8.562,38.728,8.979,38.784,9.746L38.784,9.746z"/>
	</g>
</g>
<g>
	<path fill="#91BD32" d="M17.612,19.935C8.907,21.427,4.927,30.381,5.424,38.588c4.975-0.744,3.732-5.968,5.721-9.202
		c1.99-3.979,7.013-3.233,6.468-9.202"/>
	<g>
		<path fill="#91BD32" d="M17.422,19.227C8.304,21.125,4.099,29.933,4.442,38.649c0.024,0.622,0.654,0.764,1.172,0.646
			c4.845-1.094,4.538-5.23,6.103-9.105c0.992-2.455,3.466-3.349,5.265-5.041c1.429-1.344,1.683-3.157,1.613-5.028
			c-0.04-1.063-1.999-0.804-1.964,0.123c0.171,4.574-3.543,5.095-5.896,8.129c-2.313,2.982-1.095,8.51-5.5,9.505
			c0.391,0.216,0.781,0.431,1.172,0.646C6.097,30.697,9.415,22.39,17.802,20.643C19.028,20.388,18.629,18.975,17.422,19.227
			L17.422,19.227z"/>
	</g>
</g>
<g>
	<path fill="#4E9B2A" d="M40.744,10.483c-6.965-0.249-15.919,1.742-20.147,7.711c7.212,5.721,16.168-1.742,20.396-7.462"/>
	<g>
		<path fill="#4E9B2A" d="M41.363,10.062c-7.806-0.15-16.629,1.691-21.646,8.186c-0.064,0.083-0.149,0.2-0.027,0.286
			c8.034,5.658,17.228-1.392,22.183-7.854c0.416-0.543-1.463-0.28-1.76,0.106c-3.977,5.188-10.713,11.486-17.615,7.769
			c-2.586-1.393,5.794-5.649,6.411-5.904c3.511-1.449,7.453-1.818,11.217-1.746C40.566,10.913,42.344,10.08,41.363,10.062
			L41.363,10.062z"/>
	</g>
</g>
<g>
	<path fill="#4E9B2A" d="M17.248,21.406C15.009,22.649,2.44,35.854,5.922,38.341c3.731,2.986,5.08-7.851,5.223-8.955
		c0.499-3.813,8.307-3.598,7.013-6.2"/>
	<g>
		<path fill="#4E9B2A" d="M16.814,20.815C14.245,22.397-0.92,38.291,6.412,39.517c4.121,0.688,5.019-5.881,5.488-8.649
			c0.156-0.921,0.149-1.843,0.72-2.648c0.85-1.198,2.907-1.694,4.205-2.234c1.294-0.538,2.855-1.447,2.298-3.057
			c-0.313-0.907-2.239-0.372-1.932,0.518c0.421,1.22-3.186,2.156-3.974,2.534c-1.254,0.6-2.286,1.474-2.872,2.743
			c-1.281,2.775-0.648,6.092-2.435,8.835c-0.603,0.927-1.561,0.252-1.615-0.631c-0.049-0.81,0.377-1.631,0.706-2.342
			c0.868-1.872,2.195-3.544,3.47-5.152c2.001-2.525,4.424-5.721,7.209-7.436C18.791,21.313,17.771,20.227,16.814,20.815
			L16.814,20.815z"/>
	</g>
</g>
<g>
	<g>
		<path d="M42.318,13.037c3.153,2.1,2.174,7.665,0.525,10.3c-2.166,3.462-6.419,3.771-9.577,1.477
			c-1.893-1.375,0.456,1.271,1.025,1.685c4.452,3.234,9.865,3.328,12.22-2.379c2.234-5.42-1.527-10.326-5.848-13.203
			c-0.549-0.366-0.701-0.168-0.307,0.337C40.896,11.944,41.59,12.552,42.318,13.037L42.318,13.037z"/>
	</g>
</g>
<g>
	<g>
		<path d="M31.581,21.718c1.662,4.4-0.454,7.445-5.161,7.003c-4.365-0.41-7.417-3.764-6.082-8.156
			c0.588-1.934-3.015-1.241-3.462,0.23c-4.294,14.117,23.69,14.125,18.107-0.654C34.4,18.598,30.982,20.133,31.581,21.718
			L31.581,21.718z"/>
	</g>
</g>
<g>
	<g>
		<path d="M24.602,29.881c2.984,5.828-5.052,11.388-10.344,9.248c-2.748-1.112-1.857-5.416-1.125-7.541
			c0.931-2.702,3.241-5.062,6.229-4.98c1.617,0.044-0.669-2.807-1.801-2.838c-4.141-0.113-6.709,3.154-7.779,6.848
			C8.63,34.6,10.059,38.329,13.289,40.77c6.469,4.889,18.291-1.913,14.126-10.045c-0.405-0.792-1.092-1.515-1.968-1.777
			C24.773,28.745,24.246,29.186,24.602,29.881L24.602,29.881z"/>
	</g>
</g>
<g>
	<g>
		<path d="M23.521,39.034c2.287,4.378-1.247,9.856-6.165,9.696c-4.485-0.146-8.046-6.457-5.227-10.018
			c1.408-1.777-1.929-3.278-3.147-1.738c-4.927,6.222,1.651,13.887,8.206,14.852c7.599,1.119,12.962-7.84,9.652-14.179
			C25.929,35.902,22.47,37.021,23.521,39.034L23.521,39.034z"/>
	</g>
</g>
<g>
	<g>
		<path d="M35.211,28.861c2.83,2.359,4.203,5.816,1.948,9.057c-2.338,3.36-6.848,2.721-9.787,0.7
			c-1.533-1.055-4.435,1.175-2.606,2.432c4.59,3.156,10.583,3.136,14.656-0.901c4.321-4.285,2.637-10.183-1.604-13.719
			C36.383,25.233,33.499,27.434,35.211,28.861L35.211,28.861z"/>
	</g>
</g>
<g>
	<g>
		<path d="M32.62,42.537c3.591,3.2,2.203,7.422-1.063,10.249c-1.525,1.319-3.45,2.216-5.444,2.501
			c-2.513,0.358-3.799-2.157-4.46-4.195c-0.321-0.989-3.901-1.384-3.604-0.467c4.621,14.241,27.938,0.938,17.882-8.025
			C35.229,41.975,31.717,41.732,32.62,42.537L32.62,42.537z"/>
	</g>
</g>
<g>
	<g>
		<path d="M45.638,19.178c4.294,0.397,6.889,3.776,6.731,7.997c-0.069,1.857-0.786,3.757-2.031,5.14
			c-1.881,2.088-5.321,1-7.537,0.122c-0.991-0.393-3.741,1.613-3.119,1.859c5.432,2.152,12.643,0.915,15.23-4.958
			c2.426-5.504-0.45-11.556-6.626-12.128C47.39,17.127,44.477,19.071,45.638,19.178L45.638,19.178z"/>
	</g>
</g>
<g>
	<g>
		<path d="M46.604,35.478c3.048,2.429,3.288,6.032,0.94,9.059c-2.219,2.859-5.993,4.1-8.93,1.642
			c-1.269-1.062-4.475,0.253-2.705,1.734c8.998,7.532,23.576-6.059,13.399-14.169C48.02,32.715,44.802,34.04,46.604,35.478
			L46.604,35.478z"/>
	</g>
</g>
<g>
	<g>
		<path d="M50.822,42.945c5.431-1.248,6.912,5.633,6.021,9.593c-0.764,3.396-4.395,5.914-7.785,4.679
			c-3.308-1.205-4.65-5.184-5.063-8.329c-0.172-1.31-3.719-0.216-3.521,1.289c0.615,4.694,3.253,9.032,8.243,9.747
			c3.831,0.549,8.597-1.933,10.537-5.242c3.727-6.354,0.089-15.888-8.194-13.984C49.262,41.111,48.369,43.509,50.822,42.945
			L50.822,42.945z"/>
	</g>
</g>
<g>
	<g>
		<path d="M43.93,56.83c-1.521,3.888-8.268,0.872-9.957-1.55c-0.479-0.688-3.598-1.957-3.06-1.186
			c2.147,3.078,13.928,10.57,16.245,4.642C47.49,57.889,44.154,56.254,43.93,56.83L43.93,56.83z"/>
	</g>
</g>
<g>
	<g>
		<path d="M54.781,30.381c4.522,1.142,5.649,9.901,1.527,12.069c-1.813,0.953,1.273,2.97,2.697,2.221
			c6.738-3.542,3.006-15.146-3.447-16.775C53.333,27.333,52.518,29.809,54.781,30.381L54.781,30.381z"/>
	</g>
</g>
<g>
	<g>
		<path d="M20.302,18.593c2.705-8.971,13.115-9.435,20.939-8.6c1.923,0.206,1.903-2.797,0-3C31.888,5.994,20.536,7.428,17.41,17.795
			C16.85,19.652,19.745,20.44,20.302,18.593L20.302,18.593z"/>
	</g>
</g>
<g>
	<g>
		<path d="M39.991,9.239C39.77,18.79,26.465,21.35,19.364,17.893c-1.731-0.843-3.253,1.744-1.514,2.591
			c9.173,4.465,24.862,0.758,25.141-11.245C43.036,7.303,40.036,7.308,39.991,9.239L39.991,9.239z"/>
	</g>
</g>
<g>
	<g>
		<path d="M18.358,17.44C6.405,17.628,3.067,30.205,2.432,40.079c-0.124,1.933,2.876,1.921,3,0
			c0.52-8.084,2.854-19.48,12.926-19.639C20.291,20.41,20.294,17.41,18.358,17.44L18.358,17.44z"/>
	</g>
</g>
<g>
	<g>
		<path d="M3.932,41.579c2.871-0.375,4.682-2.093,6.781-3.92c1.462-1.272-0.669-3.385-2.121-2.121
			c-1.369,1.191-2.754,2.792-4.66,3.041c-0.811,0.105-1.5,0.603-1.5,1.5C2.432,40.816,3.119,41.686,3.932,41.579L3.932,41.579z"/>
	</g>
</g>
</svg>
