<?xml version="1.0" encoding="UTF-8" standalone="no"?>
<!-- Generator: Adobe Illustrator 14.0.0, SVG Export Plug-In . SVG Version: 6.00 Build 43363)  -->
<svg
   xmlns:dc="http://purl.org/dc/elements/1.1/"
   xmlns:cc="http://creativecommons.org/ns#"
   xmlns:rdf="http://www.w3.org/1999/02/22-rdf-syntax-ns#"
   xmlns:svg="http://www.w3.org/2000/svg"
   xmlns="http://www.w3.org/2000/svg"
   xmlns:sodipodi="http://sodipodi.sourceforge.net/DTD/sodipodi-0.dtd"
   xmlns:inkscape="http://www.inkscape.org/namespaces/inkscape"
   version="1.0"
   id="Capa_1"
   x="0px"
   y="0px"
   width="32"
   height="32"
   viewBox="0 0 64 64"
   enable-background="new 0 0 64 64"
   xml:space="preserve"
   sodipodi:version="0.32"
   inkscape:version="0.46"
   sodipodi:docname="sym_small_bar.svg"
   inkscape:output_extension="org.inkscape.output.svg.inkscape"><metadata
   id="metadata142"><rdf:RDF><cc:Work
       rdf:about=""><dc:format>image/svg+xml</dc:format><dc:type
         rdf:resource="http://purl.org/dc/dcmitype/StillImage" /></cc:Work></rdf:RDF></metadata><defs
   id="defs140"><inkscape:perspective
     sodipodi:type="inkscape:persp3d"
     inkscape:vp_x="0 : 32 : 1"
     inkscape:vp_y="0 : 1000 : 0"
     inkscape:vp_z="64 : 32 : 1"
     inkscape:persp3d-origin="32 : 21.333333 : 1"
     id="perspective144" /></defs><sodipodi:namedview
   inkscape:window-height="676"
   inkscape:window-width="640"
   inkscape:pageshadow="2"
   inkscape:pageopacity="0.0"
   guidetolerance="10.0"
   gridtolerance="10.0"
   objecttolerance="10.0"
   borderopacity="1.0"
   bordercolor="#666666"
   pagecolor="#ffffff"
   id="base"
   showgrid="false"
   inkscape:zoom="7.46875"
   inkscape:cx="32"
   inkscape:cy="32"
   inkscape:window-x="70"
   inkscape:window-y="0"
   inkscape:current-layer="Capa_1" />
<g
   id="g3">
	<path
   d="M 63.531,49.976 C 63.799,47.751 64.344,43.981 63.691,41.788 C 63.13,39.899 62.988,40.959 58.972,40.627 C 57.716,40.523 55.972,41.117 54.72,41.032 C 52.115,40.857 51.165,41.37 48.677,41.127 C 45.101,40.778 41.312,40.447 37.724,40.618 C 33.798,40.806 30.037,41.249 26.108,41.127 C 22.26,41.009 18.248,40.831 14.399,40.939 C 10.454,41.049 7.219,40.01 2.358,40.939 C 2.063,40.996 1.821,41.274 1.643,41.641 C 1.641,41.779 1.634,41.916 1.63,42.053 C 1.642,42.086 1.656,42.119 1.651,42.165 C 1.634,42.311 1.625,42.456 1.612,42.6 C 1.59,43.104 1.572,43.606 1.563,44.111 C 1.658,44.235 1.779,44.32 1.934,44.339 C 2.24,44.376 1.253,44.082 1.563,44.111 C 1.419,44.246 1.669,44.85 1.65,45.093 C 1.419,48.04 1.312,50.639 1.65,53.592 C 1.817,55.054 1.355,59.458 1.933,59.636 C 3.397,60.087 7.19,59.688 8.543,59.636 C 11.997,59.507 15.576,59.492 19.025,59.636 C 25.858,59.92 33.15,59.679 39.988,59.636 C 47.148,59.591 54.513,60.17 61.652,59.636 C 61.925,59.615 61.349,59.757 61.652,59.636 C 61.631,59.976 61.662,59.302 61.652,59.636 C 61.646,59.749 61.672,59.847 61.709,59.937 C 61.715,59.936 61.719,59.931 61.727,59.93 C 62.368,59.82 63.016,59.844 63.661,59.822 C 63.677,59.764 63.69,59.703 63.69,59.636 C 63.803,56.456 63.15,53.117 63.531,49.976 z M 61.236,56.519 C 49.433,56.047 37.855,56.557 26.014,56.519 C 20.433,56.5 14.688,56.665 9.111,56.755 C 7.843,56.776 6.833,56.415 5.57,56.51 C 4.747,56.571 5.334,54.637 5.334,54.157 C 5.334,51.136 5.089,49.984 5.334,46.886 C 5.349,46.7 5.311,44.715 5.24,44.592 C 10.983,44.952 16.264,44.206 21.86,44.336 C 29.027,44.502 35.852,44.397 43.01,44.336 C 46.444,44.308 49.199,44.035 51.699,44.336 C 52.693,44.456 53.918,44.336 54.91,44.336 C 57.931,44.336 59.209,44.02 60.939,44.336 C 62.587,44.638 61.853,49.793 61.615,51.514 C 61.463,52.604 61.494,53.529 61.66,54.604 C 61.785,55.403 61.676,55.702 61.654,56.518 C 61.551,56.481 61.371,56.524 61.236,56.519 z"
   id="path5"
   style="fill:#1f4a87" />
	<g
   id="g7">
		<g
   id="g9">
			<path
   d="M 2.359,25.157 C 3.594,24.923 4.831,24.952 6.067,25.244 C 6.2,24.262 6.333,23.28 6.466,22.298 C 5.337,22.381 4.264,22.14 3.247,21.572 C 2.995,22.504 2.743,23.436 2.49,24.367 C 6.903,24.393 11.195,25.187 15.637,25.115 C 20.733,25.032 25.816,24.785 30.915,24.802 C 41.404,24.837 52.258,26.384 62.701,25.298 C 64.605,25.1 64.625,22.098 62.701,22.298 C 52.906,23.317 42.678,21.982 32.843,21.822 C 27.728,21.739 22.627,21.909 17.515,22.068 C 12.435,22.226 7.53,21.397 2.49,21.367 C 0.908,21.358 0.562,23.344 1.733,24.162 C 3.186,25.177 4.723,25.257 6.465,25.297 C 8.128,25.336 8.553,22.64 6.864,22.351 C 5.296,22.082 3.958,21.983 2.358,22.156 C 0.457,22.362 0.437,25.365 2.359,25.157 L 2.359,25.157 z"
   id="path11"
   style="fill:#fbe950" />
		</g>
	</g>
	<g
   id="g13">
		<g
   id="g15">
			<path
   d="M 62.842,21.589 C 58.664,21.594 54.615,22.245 50.436,21.817 C 45.332,21.295 40.331,21.167 35.202,21.105 C 25.55,20.987 15.968,21.243 6.326,21.448 C 4.394,21.489 4.39,24.489 6.326,24.448 C 15.968,24.243 25.55,23.975 35.202,24.105 C 39.671,24.165 44.104,24.092 48.552,24.593 C 53.417,25.141 57.986,24.595 62.843,24.589 C 64.777,24.587 64.777,21.587 62.842,21.589 L 62.842,21.589 z"
   id="path17"
   style="fill:#fbe950" />
		</g>
	</g>
	<g
   id="g19">
		<g
   id="g21">
			<path
   d="M 51.342,24.395 C 53.178,24.033 55.113,24.027 56.92,24.536 C 58.785,25.062 59.576,22.167 57.717,21.643 C 55.383,20.985 52.91,21.035 50.545,21.502 C 48.648,21.876 49.453,24.768 51.342,24.395 L 51.342,24.395 z"
   id="path23"
   style="fill:#fbe950" />
		</g>
	</g>
	<g
   id="g25">
		<g
   id="g27">
			<path
   d="M 61.207,24.814 C 60.617,29.691 60.811,34.598 60.588,39.495 C 60.5,41.43 63.5,41.422 63.588,39.495 C 63.811,34.598 63.617,29.691 64.207,24.814 C 64.439,22.896 61.436,22.918 61.207,24.814 L 61.207,24.814 z"
   id="path29"
   style="fill:#fbe950" />
		</g>
	</g>
	<g
   id="g31">
		<g
   id="g33">
			<path
   d="M 62.396,36.887 C 52.619,37.927 42.835,38.494 33.001,38.452 C 22.914,38.409 12.903,37.416 2.821,38.305 C 0.909,38.473 0.893,41.475 2.821,41.305 C 12.889,40.418 22.925,41.31 33.001,41.452 C 42.821,41.591 52.636,40.925 62.396,39.887 C 64.301,39.685 64.32,36.683 62.396,36.887 L 62.396,36.887 z"
   id="path35"
   style="fill:#fbe950" />
		</g>
	</g>
	<g
   id="g37">
		<g
   id="g39">
			<path
   d="M 4.322,39.805 C 3.746,34.609 4.488,29.429 4.284,24.224 C 4.208,22.296 1.208,22.288 1.284,24.224 C 1.488,29.429 0.746,34.609 1.322,39.805 C 1.532,41.705 4.535,41.727 4.322,39.805 L 4.322,39.805 z"
   id="path41"
   style="fill:#fbe950" />
		</g>
	</g>
	<g
   id="g43">
		<g
   id="g45">
			<path
   d="M 3.063,24.408 C 3.039,29.512 2.864,34.615 2.968,39.719 C 2.981,40.342 3.411,41.046 4.069,41.165 C 7.919,41.861 11.61,41.199 15.465,40.841 C 20.241,40.397 25.146,40.866 29.946,40.632 C 40.256,40.128 50.668,41.424 60.939,40.498 C 62.849,40.326 62.867,37.324 60.939,37.498 C 51.25,38.372 41.472,37.022 31.758,37.498 C 27.459,37.708 23.192,37.81 18.885,37.786 C 14.236,37.761 9.476,39.106 4.865,38.272 C 5.232,38.754 5.599,39.236 5.966,39.718 C 5.862,34.614 6.037,29.511 6.061,24.407 C 6.072,22.473 3.072,22.474 3.063,24.408 L 3.063,24.408 z"
   id="path47"
   style="fill:#fbe950" />
		</g>
	</g>
	<g
   id="g49">
		<g
   id="g51">
			<path
   d="M 61.566,24.281 C 42.726,24.267 23.89,23.871 5.05,23.857 C 3.115,23.856 3.115,26.856 5.05,26.857 C 23.89,26.871 42.726,27.267 61.566,27.281 C 63.502,27.282 63.502,24.282 61.566,24.281 L 61.566,24.281 z"
   id="path53"
   style="fill:#fbe950" />
		</g>
	</g>
	<g
   id="g55">
		<g
   id="g57">
			<path
   d="M 61.414,23.671 C 42.947,24.639 24.507,22.793 6.042,22.724 C 4.107,22.717 4.108,25.717 6.042,25.724 C 24.507,25.793 42.947,27.64 61.414,26.671 C 63.34,26.57 63.35,23.569 61.414,23.671 L 61.414,23.671 z"
   id="path59"
   style="fill:#fbe950" />
		</g>
	</g>
	<path
   d="M 63.969,20.061 C 63.807,19.717 63.744,19.328 63.774,18.945 C 63.586,18.47 63.569,17.923 63.727,17.436 C 63.723,17.435 63.721,17.432 63.717,17.43 C 63.772,14.359 63.703,11.29 63.692,8.218 C 63.692,8.027 63.637,7.871 63.553,7.748 C 63.573,7.612 63.594,7.477 63.612,7.342 C 63.688,7.312 63.764,7.286 63.841,7.252 C 63.894,7.227 63.939,7.193 63.98,7.158 C 63.851,6.731 63.837,6.29 63.959,5.888 C 63.916,5.847 63.871,5.809 63.824,5.78 C 63.828,5.742 63.832,5.706 63.836,5.669 C 63.865,5.415 63.793,5.225 63.668,5.09 C 63.65,4.662 63.361,4.238 62.844,4.252 C 61.531,4.289 60.213,4.339 58.891,4.39 C 58.416,4.339 57.94,4.273 57.461,4.205 C 55.037,4.481 52.598,3.978 50.199,4.324 C 49.797,4.381 49.396,4.361 49.035,4.252 C 48.422,4.344 47.806,4.437 47.193,4.531 C 46.738,4.513 46.283,4.497 45.832,4.47 C 44.662,4.4 43.488,4.252 42.316,4.094 C 42.263,4.099 42.216,4.11 42.164,4.111 C 41.9,4.116 41.635,4.128 41.373,4.156 C 41.303,4.169 40.971,4.219 40.977,4.218 C 40.51,4.303 40.045,4.395 39.577,4.467 C 39.175,4.528 38.778,4.5 38.419,4.39 C 38.392,4.39 38.368,4.396 38.341,4.395 C 37.493,4.376 36.632,4.248 35.767,4.133 C 35.561,4.202 35.336,4.25 35.08,4.25 C 34.777,4.25 34.514,4.191 34.281,4.093 C 33.443,4.359 32.659,4.417 31.873,4.203 C 31.699,4.294 31.579,4.431 31.507,4.586 C 27.514,4.294 23.523,4.065 19.498,4.533 C 19.353,4.551 19.228,4.598 19.122,4.665 C 15.103,4.261 11.085,3.947 7.033,4.108 C 6.861,4.117 6.726,4.174 6.609,4.25 L 6.095,4.25 C 5.969,4.163 5.812,4.108 5.617,4.108 C 5.152,4.11 4.704,4.146 4.258,4.281 C 4.071,4.337 3.932,4.441 3.834,4.569 C 3.626,4.558 3.418,4.539 3.209,4.533 C 3.178,4.533 3.15,4.538 3.121,4.54 C 2.625,4.251 1.81,4.486 1.792,5.243 C 1.765,6.45 1.832,7.662 1.924,8.877 C 1.737,9.468 1.562,10.055 1.401,10.642 C 1.423,10.795 1.442,10.951 1.438,11.12 C 1.43,11.506 1.405,11.894 1.375,12.282 C 1.503,12.581 1.58,12.924 1.58,13.316 L 1.58,18.061 C 1.58,18.444 1.505,18.778 1.383,19.072 C 1.453,19.842 1.512,20.614 1.51,21.39 C 1.51,21.503 1.489,21.602 1.477,21.707 C 1.57,21.82 1.671,21.917 1.789,21.982 C 2.03,22.113 2.295,22.218 2.575,22.305 C 2.822,22.224 3.08,22.169 3.351,22.169 L 6.539,22.169 C 6.986,22.169 7.403,22.298 7.772,22.508 C 8.739,22.423 9.654,22.327 10.406,22.305 C 15.004,22.173 19.591,21.917 24.192,22.1 C 33.377,22.465 42.478,22.381 51.671,22.381 C 52.593,22.381 53.556,22.432 54.536,22.487 C 54.901,22.249 55.352,22.098 55.903,22.098 C 56.448,22.098 56.891,22.247 57.257,22.48 C 58.152,22.461 59.046,22.452 59.939,22.452 C 60.021,22.452 60.084,22.483 60.128,22.527 C 60.161,22.522 60.189,22.527 60.216,22.532 C 61.052,22.45 61.866,22.305 62.642,22.065 C 62.66,22.06 62.675,22.052 62.691,22.047 C 62.781,22.077 62.877,22.098 62.986,22.098 C 63.314,22.098 63.648,22.096 63.978,22.067 C 63.951,21.402 63.961,20.733 63.969,20.061 z M 61.469,12.352 C 61.522,12.594 61.539,12.853 61.498,13.135 C 61.467,13.33 61.455,13.535 61.451,13.747 C 61.496,13.985 61.498,14.227 61.463,14.468 C 61.504,15.329 61.58,16.24 61.406,17.048 C 61.408,17.054 61.414,17.058 61.416,17.066 C 61.48,17.277 61.5,17.489 61.484,17.697 C 61.547,18.069 61.568,18.47 61.478,18.831 C 61.486,18.856 61.498,18.881 61.498,18.912 C 61.498,19.105 61.506,19.286 61.557,19.474 C 61.645,19.786 61.229,19.937 61.063,19.725 C 60.95,19.754 60.833,19.778 60.723,19.822 C 60.657,19.849 60.6,19.843 60.551,19.827 C 59.856,20.092 59.028,20.023 58.311,19.974 C 58.153,19.962 58.069,19.85 58.047,19.729 C 57.742,19.76 57.426,19.773 57.092,19.763 C 56.61,19.749 56.125,19.729 55.641,19.708 C 55.51,19.749 55.381,19.789 55.235,19.812 C 51.878,20.322 48.387,19.344 45.108,20.166 C 44.284,20.373 43.587,20.197 43.053,19.812 C 42.949,19.92 42.871,20.049 42.826,20.189 C 42.816,20.189 42.808,20.186 42.799,20.186 C 40.414,20.176 38.029,20.055 35.647,20.045 C 35.413,20.043 35.235,20.122 35.1,20.243 C 32.614,20.165 30.132,20.028 27.653,19.802 C 27.381,19.776 27.111,19.759 26.84,19.739 C 26.839,19.74 26.836,19.74 26.834,19.741 C 24.294,20.498 21.809,20.012 19.278,19.713 C 18.409,19.771 17.542,19.838 16.666,19.832 C 16.374,19.831 16.118,19.777 15.877,19.703 C 14.566,19.761 13.248,19.829 11.919,19.892 C 10.598,19.954 9.272,19.926 7.952,19.836 C 7.701,19.819 7.263,19.794 6.789,19.737 C 6.776,19.742 6.769,19.749 6.755,19.751 C 6.448,19.809 6.115,19.811 5.854,19.688 C 5.654,19.827 5.31,19.683 5.416,19.403 C 5.435,19.351 5.442,19.296 5.458,19.244 C 5.453,19.228 5.445,19.216 5.438,19.2 C 5.279,18.677 5.399,18.103 5.404,17.567 C 5.405,17.467 5.45,17.397 5.512,17.352 C 5.456,17.29 5.397,17.23 5.33,17.179 C 5.661,15.091 5.51,13.018 5.475,10.91 C 5.472,10.729 5.419,10.575 5.333,10.451 L 5.333,7.92 C 10.373,7.892 15.419,7.784 20.464,7.698 C 22.864,7.931 25.262,8.145 27.649,8.169 C 30.06,8.194 32.435,7.878 34.822,7.639 C 35.574,7.65 36.326,7.657 37.078,7.675 C 38.529,7.709 39.935,7.857 41.33,8.029 C 41.598,7.88 41.918,7.787 42.305,7.793 C 43.901,7.814 45.508,7.946 47.116,8.061 C 49.243,8.028 51.366,7.943 53.495,7.935 C 53.727,7.934 53.931,7.975 54.122,8.034 C 54.21,8.022 54.298,8.018 54.384,8.005 C 54.704,7.957 54.999,7.979 55.269,8.053 C 56.605,7.95 57.943,7.896 59.296,7.914 C 60.171,7.925 61.021,7.919 61.851,7.805 C 61.681,8.986 61.513,10.167 61.39,11.345 C 61.498,11.666 61.516,12.015 61.469,12.352 z"
   id="path61"
   style="fill:#cb0a1d" />
	<g
   id="g63">
		<path
   d="M 6.438,8.79 C 7.004,12.379 5.476,16.098 5.854,19.687 C 13.975,19.498 23.71,18.89 32.021,19.08 C 40.709,19.269 46.816,19.685 60.294,19.312 C 62.247,19.258 59.698,13.422 60.769,8.842 C 42.447,8.086 25.019,8.961 6.438,8.79 L 6.438,8.79"
   id="path65" />
		<g
   id="g67">
			<path
   d="M 4.938,8.79 C 5.237,12.46 4.219,16.017 4.354,19.687 C 4.383,20.487 5.014,21.209 5.854,21.187 C 18.521,20.855 31.082,20.613 43.751,20.895 C 46.429,20.955 49.106,20.966 51.786,20.958 C 54.561,20.95 58.567,21.604 61.151,20.576 C 64.214,19.357 61.844,11.604 62.214,9.242 C 62.368,8.264 61.821,7.383 60.769,7.343 C 42.66,6.65 24.549,7.421 6.438,7.29 C 4.503,7.276 4.504,10.276 6.438,10.29 C 24.55,10.421 42.661,9.65 60.768,10.342 C 60.286,9.709 59.803,9.076 59.321,8.443 C 58.999,10.503 58.991,12.407 59.202,14.49 C 59.315,15.629 59.485,16.749 59.556,17.892 C 59.548,17.771 55.253,17.921 54.939,17.927 C 50.031,18.01 45.123,17.941 40.216,17.807 C 28.733,17.494 17.334,17.887 5.854,18.187 C 6.354,18.687 6.854,19.187 7.354,19.687 C 7.219,16.012 8.238,12.467 7.938,8.79 C 7.781,6.876 4.78,6.861 4.938,8.79 L 4.938,8.79 z"
   id="path69" />
		</g>
	</g>
	<g
   id="g71">
		<path
   d="M 6.322,27.05 C 6.889,30.638 5.361,34.358 5.739,37.946 C 13.861,37.758 23.596,37.151 31.906,37.34 C 40.593,37.529 46.7,37.945 60.178,37.572 C 62.129,37.518 59.584,31.683 60.655,27.102 C 42.334,26.346 24.904,27.22 6.322,27.05 L 6.322,27.05"
   id="path73" />
		<g
   id="g75">
			<path
   d="M 4.822,27.05 C 5.122,30.719 4.103,34.276 4.239,37.946 C 4.268,38.747 4.899,39.467 5.739,39.446 C 18.406,39.117 30.967,38.874 43.635,39.155 C 46.313,39.215 48.992,39.225 51.67,39.218 C 54.445,39.21 58.453,39.864 61.035,38.836 C 64.096,37.618 61.73,29.863 62.101,27.501 C 62.255,26.523 61.708,25.642 60.654,25.602 C 42.547,24.911 24.435,25.682 6.322,25.551 C 4.387,25.537 4.388,28.537 6.322,28.551 C 24.435,28.682 42.547,27.911 60.654,28.602 C 60.172,27.969 59.691,27.336 59.209,26.703 C 58.885,28.763 58.877,30.667 59.086,32.751 C 59.201,33.89 59.369,35.01 59.44,36.153 C 59.432,36.031 55.139,36.181 54.825,36.186 C 49.917,36.269 45.009,36.201 40.102,36.067 C 28.618,35.754 17.219,36.147 5.739,36.446 C 6.239,36.946 6.739,37.446 7.239,37.946 C 7.104,34.272 8.123,30.728 7.822,27.05 C 7.666,25.136 4.665,25.121 4.822,27.05 L 4.822,27.05 z"
   id="path77" />
		</g>
	</g>
	<g
   id="g79">
		<path
   d="M 6.322,44.923 C 6.889,48.512 5.361,52.232 5.739,55.819 C 13.861,55.631 23.596,55.024 31.906,55.213 C 40.593,55.401 46.7,55.817 60.178,55.445 C 62.129,55.391 59.584,49.554 60.655,44.974 C 42.334,44.22 24.904,45.094 6.322,44.923 L 6.322,44.923"
   id="path81" />
		<g
   id="g83">
			<path
   d="M 4.822,44.923 C 5.122,48.593 4.103,52.149 4.239,55.819 C 4.268,56.62 4.899,57.34 5.739,57.319 C 18.406,56.989 30.967,56.746 43.635,57.027 C 46.313,57.087 48.992,57.098 51.67,57.09 C 54.445,57.082 58.453,57.736 61.035,56.708 C 64.096,55.489 61.73,47.735 62.101,45.372 C 62.255,44.395 61.708,43.514 60.654,43.474 C 42.547,42.784 24.435,43.554 6.322,43.422 C 4.387,43.408 4.388,46.408 6.322,46.422 C 24.435,46.554 42.547,45.783 60.654,46.474 C 60.172,45.841 59.691,45.208 59.209,44.576 C 58.885,46.636 58.877,48.54 59.086,50.623 C 59.201,51.763 59.369,52.882 59.44,54.025 C 59.432,53.904 55.139,54.054 54.825,54.059 C 49.917,54.141 45.009,54.073 40.102,53.939 C 28.618,53.626 17.219,54.019 5.739,54.319 C 6.239,54.819 6.739,55.319 7.239,55.819 C 7.104,52.144 8.123,48.6 7.822,44.923 C 7.666,43.009 4.665,42.993 4.822,44.923 L 4.822,44.923 z"
   id="path85" />
		</g>
	</g>
	<path
   d="M 6.574,9.438 C 7.148,9.025 6.987,7.885 6.089,7.885 C 5.238,7.885 5.051,8.906 5.519,9.364 C 5.301,9.494 5.144,9.724 5.144,10.056 L 5.144,11.095 C 5.144,12.191 6.844,12.191 6.844,11.095 L 6.844,10.056 C 6.845,9.782 6.736,9.576 6.574,9.438 z"
   id="path87" />
	<path
   d="M 61.449,28.798 C 61.76,28.472 61.756,27.893 61.441,27.572 C 61.457,27.443 61.472,27.314 61.492,27.187 C 61.638,26.116 60.002,25.654 59.851,26.736 C 59.621,28.386 59.437,30.084 59.851,31.72 C 60.056,32.527 61.29,32.538 61.492,31.72 C 61.648,31.064 61.707,30.392 61.867,29.736 C 61.975,29.298 61.758,28.967 61.449,28.798 z"
   id="path89" />
	<path
   d="M 60.67,36.782 C 59.576,36.782 59.576,38.482 60.67,38.482 C 61.768,38.482 61.768,36.782 60.67,36.782 z"
   id="path91" />
	<path
   d="M 60.764,45.092 C 60.248,45.092 59.981,45.47 59.95,45.868 C 59.872,45.989 59.821,46.138 59.821,46.32 L 59.821,49.719 C 59.821,50.816 61.522,50.816 61.522,49.719 L 61.522,46.32 C 61.522,46.31 61.52,46.302 61.52,46.294 C 61.717,45.793 61.469,45.092 60.764,45.092 z"
   id="path93" />
	<path
   d="M 61.049,54.914 C 59.951,54.914 59.951,56.613 61.049,56.613 C 62.145,56.613 62.145,54.914 61.049,54.914 z"
   id="path95" />
	<text
   transform="matrix(2.1102,0,0,1,8.7329,17.9668)"
   font-size="13.0323"
   id="text97"
   style="font-size:13.0323px;fill:#ffffff;font-family:MyriadPro-Regular">BAR</text>

	<text
   transform="matrix(2.1102,0,0,1,8.7329,36.2393)"
   font-size="13.0323"
   id="text99"
   style="font-size:13.0323px;fill:#ffffff;font-family:MyriadPro-Regular">BAR</text>

	<text
   transform="matrix(2.1102,0,0,1,8.7329,54.0879)"
   font-size="13.0323"
   id="text101"
   style="font-size:13.0323px;fill:#ffffff;font-family:MyriadPro-Regular">BAR</text>

</g>
<line
   x1="1.651"
   y1="4.3920002"
   x2="1.651"
   y2="59.634998"
   id="line103"
   style="stroke:#191616" />
<line
   x1="1.651"
   y1="4.3920002"
   x2="63.691002"
   y2="4.3920002"
   id="line105"
   style="fill:none;stroke:#191616" />
<line
   x1="63.691002"
   y1="4.3920002"
   x2="63.691002"
   y2="59.634998"
   id="line107"
   style="fill:none;stroke:#191616" />
<line
   x1="63.691002"
   y1="59.634998"
   x2="1.651"
   y2="59.634998"
   id="line109"
   style="fill:none;stroke:#000000" />
<line
   x1="1.651"
   y1="40.938"
   x2="63.974998"
   y2="40.938"
   id="line111"
   style="fill:none;stroke:#000000" />
<line
   x1="1.651"
   y1="22.24"
   x2="63.408001"
   y2="22.24"
   id="line113"
   style="fill:none;stroke:#000000" />
<line
   x1="5.3330002"
   y1="7.7919998"
   x2="5.3330002"
   y2="19.974001"
   id="line115"
   style="fill:none;stroke:#191616" />
<line
   x1="5.3330002"
   y1="19.974001"
   x2="61.709"
   y2="19.974001"
   id="line117"
   style="fill:none;stroke:#191616" />
<line
   x1="61.709"
   y1="19.974001"
   x2="61.709"
   y2="7.7919998"
   id="line119"
   style="fill:none;stroke:#191616" />
<line
   x1="61.709"
   y1="7.7919998"
   x2="5.3330002"
   y2="7.7919998"
   id="line121"
   style="fill:none;stroke:#191616" />
<line
   x1="5.3330002"
   y1="25.923"
   x2="5.3330002"
   y2="38.387001"
   id="line123"
   style="fill:none;stroke:#000000" />
<line
   x1="5.3330002"
   y1="44.337002"
   x2="5.3330002"
   y2="56.519001"
   id="line125"
   style="fill:none;stroke:#000000" />
<line
   x1="61.709"
   y1="26.205"
   x2="61.709"
   y2="38.387001"
   id="line127"
   style="fill:none;stroke:#000000" />
<line
   x1="61.709"
   y1="44.337002"
   x2="61.709"
   y2="56.519001"
   id="line129"
   style="fill:none;stroke:#000000" />
<line
   x1="61.709"
   y1="38.387001"
   x2="5.3330002"
   y2="38.387001"
   id="line131"
   style="fill:none;stroke:#000000" />
<line
   x1="61.709"
   y1="26.205"
   x2="5.3330002"
   y2="26.205"
   id="line133"
   style="fill:none;stroke:#000000" />
<line
   x1="61.709"
   y1="44.337002"
   x2="5.3330002"
   y2="44.337002"
   id="line135"
   style="fill:none;stroke:#000000" />
<line
   x1="61.709"
   y1="56.519001"
   x2="5.3330002"
   y2="56.519001"
   id="line137"
   style="fill:none;stroke:#000000" />
</svg>