<?xml version="1.0" encoding="utf-8"?>
<!-- Generator: Adobe Illustrator 14.0.0, SVG Export Plug-In . SVG Version: 6.00 Build 43363)  -->
<!DOCTYPE svg PUBLIC "-//W3C//DTD SVG 1.1//EN" "http://www.w3.org/Graphics/SVG/1.1/DTD/svg11.dtd">
<svg version="1.1" id="Capa_1" xmlns="http://www.w3.org/2000/svg" xmlns:xlink="http://www.w3.org/1999/xlink" x="0px" y="0px"
	 width="64px" height="64px" viewBox="0 0 64 64" enable-background="new 0 0 64 64" xml:space="preserve">
<g>
	<g>
		<path fill="#75507B" d="M17.478,16.361C6.5,24.021-1.415,38.063,8.033,49.806c7.148,9.191,24.508,13.021,34.465,6.127
			c10.212-7.403,14.808-22.467,6.128-32.678c-5.618-6.382-23.233-12.765-31.148-7.659"/>
		<g>
			<path fill="#75507B" d="M16.721,15.066C5.599,23.15-3.371,38.41,6.972,50.866c8.32,10.02,25.127,13.515,36.283,6.361
				c10.606-6.8,15.501-23.567,7.312-33.922C43.823,14.78,26.746,8.565,16.721,14.3c-1.679,0.96-0.168,3.553,1.514,2.591
				c8.255-4.723,21.35,0.539,28.004,6.107c10.394,8.698,4.584,24.677-4.498,31.639c-8.561,6.562-22.667,3.09-30.215-3.302
				c-12.321-10.434-3.81-26.034,6.708-33.679C19.784,16.531,18.289,13.926,16.721,15.066L16.721,15.066z"/>
		</g>
	</g>
	<g>
		<path fill="#5C3566" d="M28.712,53.891c9.192-1.786,16.084-8.936,21.189-16.084c2.554,10.723-11.744,18.126-20.424,16.339"/>
		<g>
			<path fill="#5C3566" d="M29.011,54.976c9.503-2.132,16.312-8.962,21.862-16.602c-0.686-0.089-1.371-0.179-2.057-0.269
				c1.907,9.954-10.526,16.4-19.04,14.955c-1.418-0.24-2.026,1.928-0.598,2.17c10.29,1.746,24.064-5.944,21.808-17.723
				c-0.202-1.056-1.543-0.976-2.057-0.269c-5.209,7.169-11.597,13.565-20.517,15.566C26.997,53.123,27.598,55.292,29.011,54.976
				L29.011,54.976z"/>
		</g>
	</g>
	<g>
		<path fill="#FAFAF9" d="M23.606,21.467c-7.403,3.575-13.021,9.702-15.829,17.105c-2.554-8.425,7.148-17.871,15.318-17.105"/>
		<g>
			<path fill="#FAFAF9" d="M23.038,20.496c-7.552,3.799-13.214,9.923-16.346,17.777c0.723,0,1.447,0,2.17,0
				c-2.063-8.113,6.379-16.092,14.233-15.681c1.451,0.076,1.443-2.174,0-2.25c-9.355-0.489-18.814,9.05-16.403,18.529
				c0.299,1.174,1.785,0.965,2.17,0c2.914-7.307,8.313-12.912,15.312-16.433C25.47,21.787,24.331,19.846,23.038,20.496
				L23.038,20.496z"/>
		</g>
	</g>
	<g>
		<g>
			<path d="M12.926,16.119c-5.412,4.569-9.608,9.645-10.919,16.758C0.852,39.146,2.191,46.374,6.32,51.357
				c8.721,10.522,28.928,14.054,39.824,4.91c10.277-8.625,12.384-24.979,3.262-35.042c-5.122-5.65-13.055-8.317-20.404-9.216
				c-5.862-0.717-10.698,1.216-15.772,3.874c-1.714,0.898-0.198,3.487,1.514,2.591c3.033-1.588,6.202-3.158,9.625-3.53
				c6.404-0.695,13.151,1.608,18.573,4.839c11.919,7.103,11.67,23.187,2.903,32.729c-8.991,9.787-28.104,6.6-36.529-2.224
				C4.816,45.579,4.01,38.505,5.139,32.376C6.24,26.402,10.594,22,15.047,18.24C16.528,16.99,14.395,14.879,12.926,16.119
				L12.926,16.119z"/>
		</g>
	</g>
	<g>
		<path fill="#91BD32" d="M51.435,28.36c-2.043,0.256-4.086,0.767-6.128,0.767c-1.276,6.894,12.635,3.098,15.317-3.064
			c1.331-3.054-0.715-10.032-3.829-6.383c-1.282,1.503-3.32,6.639-4.851,8.17"/>
		<g>
			<path fill="#91BD32" d="M51.136,27.275c-1.944,0.277-3.861,0.651-5.829,0.727c-0.45,0.017-1.018,0.326-1.085,0.826
				c-1.297,9.618,13.76,3.255,16.567-0.821c1.915-2.78,2.147-8.356-1.231-10.236c-3.93-2.186-6.779,7.434-8.409,9.285
				c-0.954,1.084,0.631,2.682,1.592,1.591c1.789-2.033,2.813-4.652,4.11-7.002c0.24-0.435,1.237-2.33,2.04-1.602
				c0.534,0.484,0.694,1.413,0.86,2.074c0.449,1.788,0.057,3.535-1.073,4.964c-1.621,2.049-4.212,3.327-6.646,4.1
				c-1.786,0.567-6.058,1.338-5.641-1.754c-0.361,0.275-0.724,0.551-1.085,0.826c2.17-0.083,4.281-0.501,6.427-0.807
				C53.165,29.241,52.554,27.073,51.136,27.275L51.136,27.275z"/>
		</g>
	</g>
	<g>
		<g>
			<path d="M43.2,28.062c-0.569,4.093,1.62,6.656,5.739,6.837c4.759,0.209,9.691-2.794,12.423-6.513
				c2.571-3.5,2.667-10.322-2.48-11.322c-2.165-0.42-3.506,1.436-4.223,3.147c-1.985,4.738-4.246,8.409-10.075,6.809
				c-1.401-0.384-1.995,1.786-0.598,2.17c3.742,1.027,6.98,0.53,9.714-2.33c1.258-1.315,2.106-3,2.683-4.705
				c0.681-2.016,3.28-3.71,4.258-0.877c0.366,1.06,0.194,2.354-0.028,3.421c-0.765,3.651-4.617,6.114-7.866,7.28
				c-3.082,1.106-8.009,1.224-7.376-3.32C45.567,27.241,43.399,26.629,43.2,28.062L43.2,28.062z"/>
		</g>
	</g>
</g>
</svg>
