<?xml version="1.0" encoding="UTF-8" standalone="no"?>
<!-- Generator: Adobe Illustrator 14.0.0, SVG Export Plug-In . SVG Version: 6.00 Build 43363)  -->
<svg
   xmlns:dc="http://purl.org/dc/elements/1.1/"
   xmlns:cc="http://creativecommons.org/ns#"
   xmlns:rdf="http://www.w3.org/1999/02/22-rdf-syntax-ns#"
   xmlns:svg="http://www.w3.org/2000/svg"
   xmlns="http://www.w3.org/2000/svg"
   xmlns:sodipodi="http://sodipodi.sourceforge.net/DTD/sodipodi-0.dtd"
   xmlns:inkscape="http://www.inkscape.org/namespaces/inkscape"
   version="1.0"
   id="Capa_1"
   x="0px"
   y="0px"
   width="32"
   height="32"
   viewBox="0 0 64 64"
   enable-background="new 0 0 64 64"
   xml:space="preserve"
   sodipodi:version="0.32"
   inkscape:version="0.46"
   sodipodi:docname="sym_small_bell.svg"
   inkscape:output_extension="org.inkscape.output.svg.inkscape"><metadata
   id="metadata130"><rdf:RDF><cc:Work
       rdf:about=""><dc:format>image/svg+xml</dc:format><dc:type
         rdf:resource="http://purl.org/dc/dcmitype/StillImage" /></cc:Work></rdf:RDF></metadata><defs
   id="defs128"><inkscape:perspective
     sodipodi:type="inkscape:persp3d"
     inkscape:vp_x="0 : 32 : 1"
     inkscape:vp_y="0 : 1000 : 0"
     inkscape:vp_z="64 : 32 : 1"
     inkscape:persp3d-origin="32 : 21.333333 : 1"
     id="perspective132" /></defs><sodipodi:namedview
   inkscape:window-height="676"
   inkscape:window-width="640"
   inkscape:pageshadow="2"
   inkscape:pageopacity="0.0"
   guidetolerance="10.0"
   gridtolerance="10.0"
   objecttolerance="10.0"
   borderopacity="1.0"
   bordercolor="#666666"
   pagecolor="#ffffff"
   id="base"
   showgrid="false"
   inkscape:zoom="7.46875"
   inkscape:cx="32"
   inkscape:cy="32"
   inkscape:window-x="70"
   inkscape:window-y="0"
   inkscape:current-layer="Capa_1" />
<g
   id="g3">
	<g
   id="g5">
		<path
   d="M 23.931,18.213 C 22.783,16.887 24.639,13.796 25.699,12.648 C 27.377,10.793 29.991,9.645 32.464,9.645 C 34.496,9.645 36.553,10.705 38.143,11.942 C 39.204,12.649 39.716,13.62 40.07,14.858 C 40.335,15.83 39.822,17.066 40.971,17.597 C 40.971,16.979 40.882,16.215 40.617,15.597 C 40.706,18.6 42.119,19.099 44.416,20.689 C 46.625,22.191 48.051,23.958 49.641,26.078 C 50.966,27.933 52.544,30.264 52.898,32.474 C 53.075,33.622 52.556,34.294 52.644,35.354 C 52.911,37.385 52.822,37.034 54.413,37.739 C 59.271,40.126 62.439,44.542 59.789,49.401 C 58.464,51.876 57.593,52.934 54.766,53.995 C 52.823,54.7 51.232,54.878 49.288,55.056 C 45.844,55.497 41.514,54.968 38.246,55.941 C 37.361,56.295 36.744,56.912 35.771,57.175 C 34.8,57.441 33.74,57.441 32.679,57.529 C 31.618,57.707 30.912,58.06 29.852,57.529 C 28.88,57 28.438,55.674 27.467,55.144 C 26.406,56.558 26.142,56.47 24.374,56.294 C 23.314,56.204 22.254,56.204 21.194,56.028 C 21.37,55.762 20.133,56.382 20.31,56.116 C 19.25,55.85 19.074,55.143 18.278,55.85 C 18.544,55.94 18.72,56.028 18.985,56.116 C 16.865,56.823 14.832,55.409 12.889,54.7 C 10.681,53.907 7.942,53.2 6.44,51.167 C 5.027,49.401 4.939,46.839 5.557,44.808 C 6.44,42.158 7.854,41.275 9.533,39.329 C 10.769,37.829 11.83,35.354 12.536,33.499 C 13.242,31.556 13.64,29.753 14.291,27.758 C 15.704,23.426 19.768,20.599 23.931,18.213"
   id="path7"
   style="fill:#eed500" />
		<g
   id="g9">
			<path
   d="M 25.227,17.457 C 25.275,15.998 25.786,14.749 26.76,13.709 C 29.143,10.75 32.997,10.729 36.114,12.356 C 38.92,13.82 38.119,16.749 39.911,18.656 C 40.768,19.569 42.574,18.911 42.472,17.595 C 42.398,16.638 42.321,16.124 42.064,15.196 C 41.626,13.613 38.918,13.875 39.118,15.595 C 39.744,20.961 45.254,22.793 48.347,26.832 C 50.629,29.814 50.675,32.167 51.199,35.749 C 51.476,37.649 51.896,38.286 53.657,39.03 C 58.283,40.987 60.477,45.132 57.859,49.766 C 55.692,53.6 50,53.602 46.165,53.748 C 43.341,53.857 40.615,53.859 37.849,54.488 C 33.593,55.457 31.977,57.123 28.53,54.078 C 27.956,53.57 26.962,53.428 26.409,54.078 C 24.274,56.586 20.052,53.355 17.524,54.551 C 16.234,55.16 16.793,56.885 17.882,57.293 C 18.118,57.381 18.354,57.469 18.589,57.557 C 18.722,56.575 18.855,55.594 18.988,54.612 C 15.042,55.055 7.178,51.788 6.696,47.411 C 6.282,43.653 10.51,40.884 12.218,37.917 C 13.686,35.364 14.489,32.422 15.29,29.618 C 16.709,24.652 20.446,21.999 24.691,19.508 C 26.358,18.529 24.849,15.936 23.177,16.917 C 19.42,19.123 15.046,21.849 13.348,26.101 C 12.159,29.078 11.518,32.209 10.237,35.16 C 9.126,37.719 7.005,39.262 5.562,41.535 C 3.626,44.584 2.622,49.248 5.382,52.224 C 8.3,55.37 14.799,58.083 18.987,57.613 C 20.677,57.424 21.02,55.277 19.386,54.666 C 19.15,54.578 18.914,54.49 18.679,54.402 C 18.798,55.316 18.918,56.228 19.037,57.142 C 19.064,57.13 22.77,57.687 22.786,57.689 C 25.278,57.949 26.863,58.158 28.529,56.201 C 27.822,56.201 27.115,56.201 26.408,56.201 C 28.028,57.631 29.115,59.715 31.665,59.238 C 36.547,58.322 41.168,56.84 46.165,56.75 C 52.167,56.645 60.119,55.48 61.818,48.484 C 62.458,45.849 62.174,43.746 60.898,41.343 C 60.227,40.079 59.001,39.06 57.932,38.169 C 57.348,37.683 54.436,36.534 54.256,36.083 C 53.713,34.72 54.417,32.347 53.998,30.736 C 53.486,28.769 52.078,26.953 50.936,25.318 C 50.004,23.983 48.919,22.749 47.813,21.561 C 46.066,19.686 42.458,18.506 42.118,15.595 C 41.136,15.728 40.154,15.861 39.172,15.994 C 39.273,16.528 39.372,17.062 39.473,17.596 C 40.327,17.242 41.18,16.889 42.034,16.535 C 41.434,15.897 41.408,14.156 41.097,13.309 C 40.707,12.246 40.021,11.606 39.205,10.88 C 37.034,8.945 33.491,7.563 30.575,8.332 C 26.261,9.469 20.44,13.863 22.638,18.97 C 23.399,20.743 25.982,19.213 25.227,17.457 L 25.227,17.457 z"
   id="path11"
   style="fill:#eed500" />
		</g>
	</g>
	<g
   id="g13">
		<path
   d="M 26.923,44.805 C 24.803,44.805 22.683,45.071 20.651,45.512 C 18.972,45.866 14.314,46.395 16.257,48.162 C 17.317,49.135 21.799,50.988 23.301,50.459 C 24.537,50.018 26.747,46.041 26.658,44.805"
   id="path15" />
		<g
   id="g17">
			<path
   d="M 26.923,44.055 C 23.578,44.108 19.697,44.496 16.537,45.723 C 14.338,46.577 15.019,48.348 16.664,49.354 C 18.274,50.34 21.777,52.069 23.679,51.106 C 25.596,50.137 27.332,46.907 27.408,44.805 C 27.443,43.838 25.943,43.842 25.908,44.805 C 25.851,46.381 24.556,48.219 23.547,49.348 C 22.412,50.619 19.368,49.024 18.174,48.459 C 18.026,48.389 16.293,47.572 16.8,47.246 C 17.52,46.783 18.572,46.672 19.395,46.508 C 21.893,46.014 24.369,45.594 26.923,45.555 C 27.89,45.541 27.891,44.041 26.923,44.055 L 26.923,44.055 z"
   id="path19" />
		</g>
	</g>
	<g
   id="g21">
		<path
   d="M 38.938,45.07 C 39.292,45.953 41.323,50.724 42.118,51.076 C 43.444,51.785 47.242,50.105 48.214,49.133 C 50.953,46.395 46.712,46.66 44.857,46.395 C 43.09,46.129 41.501,45.336 39.734,45.071"
   id="path23" />
		<g
   id="g25">
			<path
   d="M 38.215,45.27 C 39.019,47.249 39.82,49.541 41.18,51.209 C 42.665,53.031 45.909,51.404 47.506,50.545 C 48.916,49.785 51.003,47.629 49.005,46.342 C 48.213,45.832 47.017,45.838 46.111,45.764 C 43.97,45.588 42.03,44.739 39.932,44.346 C 38.987,44.17 38.583,45.616 39.534,45.793 C 41.646,46.188 43.613,47.059 45.77,47.236 C 46.494,47.297 47.21,47.345 47.918,47.517 C 49.1,47.804 46.783,49.23 46.378,49.449 C 45.507,49.918 44.56,50.228 43.595,50.437 C 42.426,50.689 42.166,50.076 41.666,49.179 C 40.895,47.802 40.254,46.331 39.661,44.87 C 39.303,43.986 37.852,44.373 38.215,45.27 L 38.215,45.27 z"
   id="path27" />
		</g>
	</g>
	<g
   id="g29">
		<path
   d="M 16.102,33.938 C 16.367,28.109 24.053,22.94 28.823,20.953 C 22.33,18.568 12.789,27.446 15.705,34.071"
   id="path31"
   style="fill:#fafaf9" />
		<g
   id="g33">
			<path
   d="M 16.852,33.938 C 17.395,27.933 24.198,23.758 29.201,21.601 C 29.842,21.325 29.576,20.407 29.022,20.23 C 21.662,17.886 12.056,26.729 14.981,34.27 C 15.327,35.163 16.778,34.776 16.427,33.872 C 13.916,27.399 22.287,19.659 28.623,21.677 C 28.563,21.22 28.503,20.763 28.444,20.306 C 22.87,22.709 15.951,27.319 15.352,33.938 C 15.264,34.902 16.765,34.893 16.852,33.938 L 16.852,33.938 z"
   id="path35"
   style="fill:#fafaf9" />
		</g>
	</g>
	<g
   id="g37">
		<path
   d="M 31.208,48.25 C 30.281,48.648 29.618,49.311 29.221,50.238 C 28.955,49.045 29.618,47.986 30.943,47.986"
   id="path39"
   style="fill:#fafaf9" />
		<g
   id="g41">
			<path
   d="M 30.83,47.604 C 29.818,48.057 29.028,48.848 28.574,49.86 C 29.031,49.921 29.488,49.979 29.945,50.04 C 29.802,49.306 30.188,48.759 30.944,48.737 C 31.909,48.708 31.912,47.208 30.944,47.237 C 29.167,47.29 28.169,48.743 28.499,50.438 C 28.618,51.047 29.606,51.202 29.87,50.618 C 30.235,49.805 30.776,49.264 31.588,48.899 C 31.961,48.731 32.047,48.196 31.857,47.872 C 31.633,47.492 31.202,47.436 30.83,47.604 L 30.83,47.604 z"
   id="path43"
   style="fill:#fafaf9" />
		</g>
	</g>
	<g
   id="g45">
		<path
   d="M 32.003,56.863 C 33.991,55.273 35.714,53.287 37.171,51.297 C 37.834,54.61 35.447,58.057 31.872,56.996"
   id="path47"
   style="fill:#c4a003" />
		<g
   id="g49">
			<path
   d="M 32.533,57.395 C 34.562,55.741 36.265,53.776 37.818,51.676 C 37.361,51.615 36.904,51.557 36.447,51.496 C 36.919,54.232 35.06,57.055 32.071,56.271 C 31.134,56.027 30.737,57.474 31.673,57.718 C 35.844,58.808 38.557,54.941 37.895,51.097 C 37.772,50.384 36.863,50.46 36.524,50.917 C 35.047,52.913 33.399,54.761 31.473,56.333 C 30.723,56.945 31.791,58 32.533,57.395 L 32.533,57.395 z"
   id="path51"
   style="fill:#c4a003" />
		</g>
	</g>
	<g
   id="g53">
		<g
   id="g55">
			<path
   d="M 12.433,35.793 C 12.901,28.924 16.739,20.098 24.538,19.448 C 26.452,19.289 26.467,16.287 24.538,16.448 C 14.947,17.247 10.023,27.126 9.433,35.793 C 9.301,37.725 12.302,37.713 12.433,35.793 L 12.433,35.793 z"
   id="path57" />
		</g>
	</g>
	<g
   id="g59">
		<g
   id="g61">
			<path
   d="M 24.271,17.772 C 24.908,7.612 39.494,7.455 40.707,17.418 C 40.937,19.313 43.94,19.335 43.707,17.418 C 42.034,3.677 22.154,3.702 21.271,17.772 C 21.15,19.705 24.151,19.693 24.271,17.772 L 24.271,17.772 z"
   id="path63" />
		</g>
	</g>
	<g
   id="g65">
		<g
   id="g67">
			<path
   d="M 40.572,19.042 C 47.358,21.442 53.551,28.675 52.721,36.148 C 52.507,38.068 55.51,38.048 55.721,36.148 C 56.702,27.314 49.309,18.957 41.368,16.149 C 39.541,15.502 38.761,18.402 40.572,19.042 L 40.572,19.042 z"
   id="path69" />
		</g>
	</g>
	<g
   id="g71">
		<g
   id="g73">
			<path
   d="M 9.824,35.029 C 4.66,38.686 0.295,46.051 4.622,51.953 C 8.95,57.859 20.336,58.473 26.924,58.353 C 28.856,58.32 28.86,55.32 26.924,55.353 C 21.221,55.457 15.023,54.695 9.819,52.242 C 2.776,48.924 6.555,41.008 11.339,37.619 C 12.902,36.51 11.406,33.908 9.824,35.029 L 9.824,35.029 z"
   id="path75" />
		</g>
	</g>
	<g
   id="g77">
		<g
   id="g79">
			<path
   d="M 54,37.77 C 59.266,38.901 62.539,46.481 58.548,50.666 C 54.329,55.088 44.7,54.932 39.115,54.967 C 37.181,54.981 37.179,57.981 39.115,57.967 C 46.25,57.92 58.209,57.776 62.271,50.643 C 65.636,44.737 61.101,36.231 54.796,34.877 C 52.911,34.473 52.108,37.365 54,37.77 L 54,37.77 z"
   id="path81" />
		</g>
	</g>
	<g
   id="g83">
		<g
   id="g85">
			<path
   d="M 28.729,43.686 C 22.582,47.883 22.96,59.2 31.339,60.418 C 35.18,60.977 39.7,58.959 41.043,55.143 C 42.5,50.998 40.642,46.67 37.438,43.92 C 35.977,42.668 33.846,44.779 35.317,46.041 C 39.966,50.029 39.515,57.385 32.317,57.508 C 26.291,57.612 26.317,48.957 30.243,46.276 C 31.83,45.193 30.331,42.592 28.729,43.686 L 28.729,43.686 z"
   id="path87" />
		</g>
	</g>
	<g
   id="g89">
		<g
   id="g91">
			<path
   d="M 24.538,49.313 C 21.977,49.215 19.258,48.635 16.943,47.518 C 17.176,47.631 21.727,46 22.385,45.879 C 24.817,45.426 27.337,45.391 29.803,45.383 C 34.26,45.367 38.815,45.783 43.217,46.477 C 44.491,46.678 45.731,47.022 46.955,47.416 C 50.641,48.605 41.976,49.93 41.146,50.02 C 39.244,50.225 39.224,53.227 41.146,53.02 C 43.161,52.801 54.937,51.1 50.93,46.467 C 47.102,42.041 36.255,42.531 31.252,42.42 C 28.371,42.356 13.047,41.943 13.411,47.25 C 13.702,51.49 21.389,52.191 24.537,52.313 C 26.473,52.387 26.466,49.387 24.538,49.313 L 24.538,49.313 z"
   id="path93" />
		</g>
	</g>
	<g
   id="g95">
		<g
   id="g97">
			<path
   d="M 26.161,51.033 C 26.656,49.15 27.423,47.31 28.956,46.041 C 30.448,44.807 28.313,42.697 26.835,43.92 C 24.934,45.492 23.882,47.899 23.269,50.236 C 22.777,52.109 25.67,52.902 26.161,51.033 L 26.161,51.033 z"
   id="path99" />
		</g>
	</g>
	<g
   id="g101">
		<g
   id="g103">
			<path
   d="M 42.646,51.164 C 42.734,48.393 40.811,46.154 39.203,44.1 C 38.013,42.577 35.904,44.715 37.082,46.221 C 38.177,47.621 39.707,49.276 39.646,51.164 C 39.585,53.1 42.585,53.094 42.646,51.164 L 42.646,51.164 z"
   id="path105" />
		</g>
	</g>
	<g
   id="g107">
		<g
   id="g109">
			<path
   d="M 5.304,45.453 C 22.333,36.728 43.981,35.896 60.734,45.453 C 61.576,45.933 62.332,44.637 61.492,44.158 C 44.256,34.326 22.061,35.185 4.548,44.158 C 3.686,44.6 4.445,45.893 5.304,45.453 L 5.304,45.453 z"
   id="path111" />
		</g>
	</g>
	<g
   id="g113">
		<g
   id="g115">
			<path
   d="M 11.31,37.047 C 25.401,32.575 40.231,31.614 54.2,37.047 C 55.102,37.399 55.49,35.947 54.598,35.6 C 40.41,30.083 25.224,31.058 10.911,35.6 C 9.993,35.893 10.385,37.34 11.31,37.047 L 11.31,37.047 z"
   id="path117" />
		</g>
	</g>
	<g
   id="g119">
		<path
   d="M 26.394,17.948 C 28.691,17.948 30.899,17.948 33.196,17.948 C 34.61,17.948 37.702,18.479 38.762,17.595 C 36.199,16.799 35.581,12.912 32.401,13.089 C 30.722,13.178 30.546,14.061 29.662,15.209 C 28.778,16.358 27.277,16.535 26.481,17.683"
   id="path121" />
		<g
   id="g123">
			<path
   d="M 26.394,18.698 C 28.994,18.698 31.621,18.585 34.215,18.746 C 35.849,18.848 37.669,19.122 39.141,18.243 C 39.744,17.883 39.541,17.104 38.961,16.872 C 36.604,15.928 35.844,12.416 32.968,12.351 C 31.791,12.325 30.882,12.54 30.051,13.39 C 29.351,14.107 29.162,14.803 28.242,15.458 C 27.425,16.04 26.629,16.396 25.95,17.152 C 25.306,17.869 26.363,18.934 27.011,18.213 C 27.931,17.188 29.234,16.727 30.192,15.739 C 31.37,14.524 32.013,13.158 33.998,14.254 C 35.844,15.273 36.478,17.483 38.562,18.318 C 38.502,17.861 38.443,17.404 38.382,16.947 C 37.072,17.73 35.117,17.301 33.665,17.211 C 31.259,17.061 28.804,17.197 26.393,17.197 C 25.426,17.198 25.426,18.698 26.394,18.698 L 26.394,18.698 z"
   id="path125" />
		</g>
	</g>
</g>
</svg>