<?xml version="1.0" encoding="UTF-8" standalone="no"?>
<!-- Generator: Adobe Illustrator 14.0.0, SVG Export Plug-In . SVG Version: 6.00 Build 43363)  -->
<svg
   xmlns:dc="http://purl.org/dc/elements/1.1/"
   xmlns:cc="http://creativecommons.org/ns#"
   xmlns:rdf="http://www.w3.org/1999/02/22-rdf-syntax-ns#"
   xmlns:svg="http://www.w3.org/2000/svg"
   xmlns="http://www.w3.org/2000/svg"
   xmlns:sodipodi="http://sodipodi.sourceforge.net/DTD/sodipodi-0.dtd"
   xmlns:inkscape="http://www.inkscape.org/namespaces/inkscape"
   version="1.0"
   id="Capa_1"
   x="0px"
   y="0px"
   width="32"
   height="32"
   viewBox="0 0 64 64"
   enable-background="new 0 0 64 64"
   xml:space="preserve"
   sodipodi:version="0.32"
   inkscape:version="0.46"
   sodipodi:docname="sym_small_mellon.svg"
   inkscape:output_extension="org.inkscape.output.svg.inkscape"><metadata
   id="metadata192"><rdf:RDF><cc:Work
       rdf:about=""><dc:format>image/svg+xml</dc:format><dc:type
         rdf:resource="http://purl.org/dc/dcmitype/StillImage" /></cc:Work></rdf:RDF></metadata><defs
   id="defs190"><inkscape:perspective
     sodipodi:type="inkscape:persp3d"
     inkscape:vp_x="0 : 32 : 1"
     inkscape:vp_y="0 : 1000 : 0"
     inkscape:vp_z="64 : 32 : 1"
     inkscape:persp3d-origin="32 : 21.333333 : 1"
     id="perspective194" /></defs><sodipodi:namedview
   inkscape:window-height="676"
   inkscape:window-width="640"
   inkscape:pageshadow="2"
   inkscape:pageopacity="0.0"
   guidetolerance="10.0"
   gridtolerance="10.0"
   objecttolerance="10.0"
   borderopacity="1.0"
   bordercolor="#666666"
   pagecolor="#ffffff"
   id="base"
   showgrid="false"
   inkscape:zoom="7.46875"
   inkscape:cx="32"
   inkscape:cy="32"
   inkscape:window-x="70"
   inkscape:window-y="0"
   inkscape:current-layer="Capa_1" />
<g
   id="g3">
	<g
   id="g5">
		<path
   d="M 21.946,11.936 C 26.149,11.586 29.828,18.768 30.878,22.096 C 31.93,25.95 32.28,30.154 31.58,34.182 C 30.004,42.764 23.348,54.676 13.889,45.916 C 6.708,39.262 8.459,11.41 21.422,11.761"
   id="path7"
   style="fill:#cb0a1d" />
		<g
   id="g9">
			<path
   d="M 21.946,16.436 C 24.081,16.542 25.962,21.627 26.538,23.292 C 28.005,27.526 27.607,32.25 26.369,36.461 C 25.512,39.373 23.942,42.604 21.297,44.256 C 19.128,45.611 16.359,42.33 15.621,40.5 C 13.473,35.172 12.507,16.43 21.421,16.261 C 27.217,16.151 27.228,7.151 21.421,7.261 C 2.898,7.612 0.249,40.277 11.923,50.125 C 22.737,59.248 32.396,47.865 35.393,37.676 C 38.259,27.932 35.077,8.089 21.945,7.436 C 16.143,7.147 16.17,16.148 21.946,16.436 L 21.946,16.436 z"
   id="path11"
   style="fill:#cb0a1d" />
		</g>
	</g>
	<g
   id="g13">
		<path
   d="M 27.267,6.633 C 33.864,10.612 47.418,6.149 53.247,12.925 C 58.981,19.594 61.196,31.502 57.31,39.314 C 52.362,48.863 41.021,55.71 29.944,53.981 C 37.322,51.625 35.015,47.306 37.699,42.091 C 37.345,42.265 37.875,41.745 37.699,42.091 C 39.643,29.94 37.331,13.646 27.267,6.633"
   id="path15"
   style="fill:#72b220" />
		<g
   id="g17">
			<path
   d="M 25.753,9.224 C 30.516,11.729 35.951,11.519 41.19,11.763 C 44.301,11.908 47.793,12.208 50.324,14.225 C 53.039,16.39 54.443,20.454 55.382,23.643 C 60.009,39.369 45.212,52.854 29.945,50.981 C 30.211,52.945 30.477,54.91 30.742,56.874 C 33.531,55.838 35.59,54.645 37.403,52.269 C 39.229,49.875 39.065,46.288 40.291,43.606 C 40.852,42.379 40.86,40.975 39.821,39.971 C 39.799,39.95 39.777,39.928 39.755,39.907 C 36.974,37.218 32.727,41.456 35.513,44.149 C 35.534,44.17 35.557,44.192 35.579,44.213 C 37.039,45.625 40.251,45.23 40.593,42.89 C 42.599,29.159 40.638,12.91 28.782,4.043 C 25.679,1.723 22.694,6.936 25.753,9.224 C 35.131,16.238 36.37,30.593 34.807,41.294 C 36.478,40.853 38.15,40.412 39.821,39.971 C 39.799,39.95 39.777,39.928 39.755,39.907 C 36.974,37.218 32.727,41.456 35.513,44.149 C 35.534,44.17 35.557,44.192 35.579,44.213 C 35.423,43.001 35.266,41.789 35.109,40.578 C 33.303,44.531 33.75,49.378 29.148,51.089 C 25.85,52.315 26.591,56.57 29.945,56.982 C 47.205,59.1 63.605,44.662 62.085,27.131 C 61.456,19.871 58.003,11.078 51.097,7.716 C 44.124,4.323 35.527,7.591 28.782,4.043 C 25.36,2.243 22.328,7.422 25.753,9.224 L 25.753,9.224 z"
   id="path19"
   style="fill:#72b220" />
		</g>
	</g>
	<g
   id="g21">
		<g
   id="g23">
			<path
   d="M 24.35,11.164 C 31.642,17.773 32.295,27.247 30.587,36.322 C 29.31,43.104 23.772,52.925 15.387,48.328 C 9.759,45.244 8.548,35.282 8.455,29.626 C 8.332,22.141 14.67,5.226 24.881,11.574 C 27.765,13.367 30.399,8.824 27.53,7.041 C 16.117,-0.055 6.586,12.554 4.005,22.549 C 1.61,31.822 3.841,45.399 11.374,51.869 C 15.061,55.036 20.37,55.115 24.748,53.515 C 29.704,51.703 32.533,47.03 34.356,42.369 C 38.845,30.892 37.561,16.06 28.063,7.452 C 25.561,5.185 21.836,8.886 24.35,11.164 L 24.35,11.164 z"
   id="path25"
   style="fill:#ffffff" />
		</g>
	</g>
	<g
   id="g27">
		<g
   id="g29">
			<path
   d="M 21.776,5.928 C 41.661,14.493 40.053,42.463 24.828,54.756 C 23.699,55.668 25.301,57.25 26.419,56.348 C 42.715,43.19 44.054,13.092 22.912,3.986 C 21.594,3.417 20.447,5.355 21.776,5.928 L 21.776,5.928 z"
   id="path31" />
		</g>
	</g>
	<g
   id="g33">
		<g
   id="g35">
			<path
   d="M 23.61,6.429 C 30.485,6.402 37.443,5.933 44.141,7.787 C 51.87,9.926 57.379,16.712 59.479,24.208 C 61.462,31.289 59.106,38.863 54.712,44.509 C 49.404,51.329 41.38,54.046 33.028,54.478 C 29.023,54.685 24.984,54.269 21.01,53.816 C 17.208,53.38 13.676,53.115 10.682,50.543 C 6.318,46.793 4.992,40.02 4.516,34.596 C 3.416,22.032 9.202,6.814 23.61,6.429 C 25.541,6.377 25.546,3.377 23.61,3.429 C 7.743,3.854 0.993,19.345 1.449,33.441 C 1.662,40.035 3.463,46.921 7.864,51.966 C 13.084,57.952 24.222,57.437 31.357,57.511 C 48.75,57.687 64.961,44.831 62.916,26.337 C 62.032,18.346 56.928,11.323 50.211,7.16 C 42.447,2.347 32.298,3.394 23.611,3.429 C 21.676,3.437 21.675,6.437 23.61,6.429 L 23.61,6.429 z"
   id="path37" />
		</g>
	</g>
	<g
   id="g39">
		<path
   d="M 34.732,9.308 C 34.614,15.678 51.197,14.388 54.35,17.016 C 52.774,11.936 38.936,10.009 34.732,9.308"
   id="path41"
   style="fill:#359a2d" />
		<g
   id="g43">
			<path
   d="M 34.357,9.308 C 34.82,17.121 49.657,14.138 54.161,17.34 C 54.419,17.523 54.833,17.217 54.712,16.917 C 52.167,10.559 40.514,9.88 34.832,8.947 C 34.359,8.869 34.156,9.592 34.633,9.671 C 37.818,10.194 40.988,10.74 44.121,11.526 C 46.324,12.078 48.479,12.81 50.517,13.816 C 51.346,14.225 52.09,14.755 52.791,15.355 C 53.452,15.92 55.052,16.78 53.412,16.081 C 49.275,14.318 35.475,15.527 35.107,9.309 C 35.079,8.828 34.329,8.825 34.357,9.308 L 34.357,9.308 z"
   id="path45"
   style="fill:#359a2d" />
		</g>
	</g>
	<g
   id="g47">
		<path
   d="M 56.452,23.671 C 51.372,19.993 45.593,17.19 39.461,17.016 C 38.32,23.077 53.797,22.61 56.452,23.671"
   id="path49"
   style="fill:#359a2d" />
		<g
   id="g51">
			<path
   d="M 56.831,23.024 C 51.6,19.326 45.935,16.623 39.461,16.266 C 39.018,16.242 38.757,16.628 38.711,17.016 C 37.834,24.406 52.098,22.976 56.253,24.394 C 57.171,24.707 57.562,23.258 56.651,22.948 C 53.151,21.753 39.526,22.781 40.211,17.016 C 39.961,17.266 39.711,17.516 39.461,17.766 C 45.663,18.107 51.077,20.787 56.073,24.319 C 56.865,24.879 57.613,23.577 56.831,23.024 L 56.831,23.024 z"
   id="path53"
   style="fill:#359a2d" />
		</g>
	</g>
	<g
   id="g55">
		<g
   id="g57">
			<path
   d="M 41.563,24.547 C 41.389,25.247 41.563,27.698 41.389,28.4 C 46.293,29.8 52.599,27.525 57.679,28.4"
   id="path59"
   style="fill:#359a2d" />
			<g
   id="g61">
				<path
   d="M 40.813,24.547 C 40.65,25.827 40.802,27.12 40.639,28.4 C 40.599,28.717 40.897,29.054 41.19,29.123 C 46.661,30.416 52.169,28.415 57.679,29.15 C 58.636,29.277 58.623,27.776 57.679,27.65 C 54.226,27.19 50.804,27.754 47.359,28.035 C 46.824,28.078 42.175,28.117 42.201,27.92 C 42.343,26.805 42.171,25.667 42.313,24.547 C 42.435,23.59 40.933,23.602 40.813,24.547 L 40.813,24.547 z"
   id="path63"
   style="fill:#359a2d" />
			</g>
		</g>
		<g
   id="g65">
			<path
   d="M 41.563,24.547 C 46.644,25.948 52.6,26.649 57.679,28.4"
   id="path67"
   style="fill:#359a2d" />
			<g
   id="g69">
				<path
   d="M 41.363,25.271 C 46.709,26.684 52.215,27.397 57.479,29.124 C 58.401,29.426 58.792,27.978 57.877,27.678 C 52.613,25.952 47.106,25.238 41.761,23.825 C 40.825,23.577 40.429,25.024 41.363,25.271 L 41.363,25.271 z"
   id="path71"
   style="fill:#359a2d" />
			</g>
		</g>
	</g>
	<g
   id="g73">
		<path
   d="M 57.504,33.305 C 52.949,35.582 46.818,35.233 41.738,35.233 C 41.562,35.934 41.388,37.335 41.562,38.036 C 45.417,38.385 54.526,36.283 57.504,33.305"
   id="path75"
   style="fill:#359a2d" />
		<g
   id="g77">
			<path
   d="M 57.125,32.657 C 52.313,34.847 46.897,34.5 41.738,34.482 C 41.423,34.481 41.079,34.71 41.014,35.033 C 40.815,36.039 40.698,37.009 40.812,38.035 C 40.859,38.461 41.119,38.759 41.562,38.785 C 46.862,39.102 54.026,37.474 58.034,33.835 C 58.752,33.184 57.687,32.126 56.973,32.774 C 53.289,36.119 46.416,37.576 41.562,37.285 C 41.812,37.535 42.062,37.785 42.312,38.035 C 42.081,35.954 42.822,35.987 44.689,36 C 46.401,36.011 48.108,35.975 49.818,35.873 C 52.619,35.705 55.327,35.115 57.882,33.952 C 58.762,33.552 57.999,32.259 57.125,32.657 L 57.125,32.657 z"
   id="path79"
   style="fill:#359a2d" />
		</g>
	</g>
	<g
   id="g81">
		<path
   d="M 54.351,40.186 C 51.594,41.737 48.699,43.176 45.251,43.508 C 42.356,43.731 39.737,42.621 39.461,45.723 C 44.425,47.053 51.594,43.176 54.351,40.186"
   id="path83"
   style="fill:#359a2d" />
		<g
   id="g85">
			<path
   d="M 53.594,38.891 C 49.898,40.938 46.545,42.09 42.302,41.989 C 39.996,41.934 38.421,43.028 38.015,45.325 C 37.879,46.093 38.209,46.987 39.063,47.171 C 44.848,48.411 51.398,45.351 55.412,41.247 C 56.766,39.864 54.645,37.741 53.291,39.126 C 50.069,42.419 44.557,45.284 39.86,44.278 C 40.21,44.893 40.559,45.508 40.908,46.122 C 41.225,44.329 46.152,44.925 47.656,44.632 C 50.289,44.118 52.787,42.769 55.108,41.482 C 56.8,40.543 55.287,37.951 53.594,38.891 L 53.594,38.891 z"
   id="path87"
   style="fill:#359a2d" />
		</g>
	</g>
	<g
   id="g89">
		<path
   d="M 52.007,46.391 C 49.081,48.055 48.056,47.915 44.563,48.625 C 42.234,49.099 34.696,47.75 34.732,51.925 C 33.863,54.859 48.703,48.546 52.007,46.391"
   id="path91"
   style="fill:#359a2d" />
		<g
   id="g93">
			<path
   d="M 51.817,46.066 C 47.218,48.548 42.573,47.85 37.66,48.678 C 36.431,48.886 32.84,51.018 34.56,52.738 C 35.977,54.155 40.534,51.925 41.904,51.427 C 45.404,50.158 49.033,48.697 52.196,46.714 C 52.604,46.458 52.229,45.81 51.817,46.066 C 47.36,48.86 41.116,51.914 35.806,52.311 C 35.549,52.33 35.073,52.295 35.106,51.924 C 35.271,50.091 36.511,49.73 37.859,49.402 C 39.543,48.993 41.4,49.14 43.12,49.117 C 46.234,49.073 49.47,48.185 52.196,46.715 C 52.622,46.484 52.243,45.837 51.817,46.066 L 51.817,46.066 z"
   id="path95"
   style="fill:#359a2d" />
		</g>
	</g>
	<g
   id="g97">
		<path
   d="M 51.445,13.752 C 55.674,17.933 58.275,25.376 56.875,31.506 C 56.875,25.022 54.423,19.532 51.445,13.752"
   id="path99"
   style="fill:#ffffff" />
		<g
   id="g101">
			<path
   d="M 51.18,14.018 C 55.546,18.602 57.719,25.145 56.514,31.407 C 56.759,31.44 57.005,31.473 57.25,31.507 C 57.098,25.014 54.682,19.268 51.77,13.564 C 51.549,13.133 50.903,13.513 51.122,13.943 C 53.983,19.547 56.351,25.128 56.501,31.507 C 56.511,31.917 57.155,32.035 57.237,31.607 C 58.494,25.075 56.272,18.278 51.712,13.488 C 51.376,13.136 50.847,13.667 51.18,14.018 L 51.18,14.018 z"
   id="path103"
   style="fill:#ffffff" />
		</g>
	</g>
	<g
   id="g105">
		<path
   d="M 21.292,16.57 C 21.993,15.869 22.344,14.818 22.344,13.767 C 20.766,13.591 20.593,14.992 21.292,16.394"
   id="path107" />
		<g
   id="g109">
			<path
   d="M 22.087,17.366 C 23.018,16.38 23.442,15.11 23.468,13.768 C 23.481,13.119 22.945,12.691 22.343,12.643 C 21.278,12.558 20.343,13.035 19.935,14.041 C 19.547,14.996 19.9,16.085 20.32,16.963 C 20.584,17.516 21.363,17.657 21.859,17.366 C 22.42,17.037 22.527,16.38 22.262,15.827 C 22.172,15.637 22.111,15.444 22.058,15.24 C 22.044,15.186 22.024,14.839 22.009,14.951 C 22.046,14.68 22.104,14.775 21.914,14.921 C 22.105,14.775 21.806,14.928 22.067,14.866 C 21.925,14.9 22.374,14.895 22.342,14.893 C 21.967,14.518 21.592,14.143 21.217,13.768 C 21.202,14.507 21.012,15.227 20.495,15.775 C 19.502,16.829 21.09,18.423 22.087,17.366 L 22.087,17.366 z"
   id="path111" />
		</g>
	</g>
	<g
   id="g113">
		<g
   id="g115">
			<path
   d="M 17.51,18.621 C 17.021,17.443 16.288,16.393 14.973,16.083 C 14.389,15.945 13.741,16.258 13.589,16.869 C 13.396,17.646 13.505,18.504 14.176,19.025 C 14.506,19.281 14.82,19.426 15.205,19.589 C 15.518,19.721 15.519,19.697 15.857,19.89 C 17.119,20.611 18.252,18.667 16.993,17.948 C 16.827,17.853 16.658,17.773 16.483,17.699 C 16.325,17.632 16.166,17.565 16.006,17.501 C 15.991,17.495 15.661,17.352 15.879,17.449 C 15.818,17.421 15.759,17.391 15.7,17.359 C 15.437,17.221 15.836,17.507 15.631,17.319 C 15.677,17.361 15.774,17.662 15.714,17.435 C 15.74,17.536 15.696,17.718 15.759,17.467 C 15.298,17.729 14.836,17.991 14.375,18.253 C 14.855,18.366 15.113,18.673 15.339,19.218 C 15.574,19.784 16.076,20.182 16.723,20.004 C 17.26,19.857 17.745,19.188 17.51,18.621 L 17.51,18.621 z"
   id="path117" />
		</g>
	</g>
	<g
   id="g119">
		<g
   id="g121">
			<path
   d="M 15.218,24.533 C 13.919,23.654 12.493,22.605 10.847,23.194 C 10.162,23.439 9.797,24.178 10.175,24.846 C 11.086,26.459 13.239,27.016 14.949,26.589 C 16.356,26.237 15.759,24.068 14.351,24.419 C 13.611,24.604 12.523,24.43 12.117,23.711 C 11.893,24.262 11.669,24.813 11.445,25.363 C 12.39,25.024 13.351,25.98 14.083,26.475 C 15.288,27.292 16.413,25.341 15.218,24.533 L 15.218,24.533 z"
   id="path123" />
		</g>
	</g>
	<g
   id="g125">
		<g
   id="g127">
			<path
   d="M 15.063,30.255 C 13.519,30.043 11.941,30.029 10.99,31.473 C 10.65,31.988 10.888,32.711 11.393,33.012 C 12.953,33.942 14.303,33.137 15.56,32.137 C 16.04,31.754 15.957,30.943 15.56,30.545 C 15.09,30.075 14.448,30.163 13.969,30.545 C 13.549,30.88 13.064,31.388 12.529,31.069 C 12.663,31.583 12.798,32.095 12.932,32.608 C 13.011,32.489 13.138,32.414 13.311,32.391 C 13.687,32.343 14.09,32.373 14.465,32.425 C 15.072,32.508 15.67,32.288 15.849,31.639 C 15.995,31.108 15.672,30.339 15.063,30.255 L 15.063,30.255 z"
   id="path129" />
		</g>
	</g>
	<g
   id="g131">
		<path
   d="M 15.771,36.354 C 14.238,41.4 10.156,38.281 15.771,36.354"
   id="path133" />
		<g
   id="g135">
			<path
   d="M 14.686,36.055 C 15.147,36.516 15.609,36.977 16.07,37.438 C 17.39,36.891 16.812,34.713 15.472,35.268 C 14.082,35.844 10.244,37.713 12.295,39.766 C 14.283,41.752 16.327,38.004 16.856,36.653 C 17.384,35.299 15.208,34.719 14.686,36.055 L 14.686,36.055 z"
   id="path137" />
		</g>
	</g>
	<g
   id="g139">
		<path
   d="M 17.319,41.75 C 17.495,43.324 17.143,45.252 15.568,45.428 C 15.218,44.201 16.094,42.449 17.319,41.75"
   id="path141" />
		<g
   id="g143">
			<path
   d="M 16.194,41.75 C 16.279,42.621 16.394,44.166 15.269,44.344 C 15.73,44.606 16.191,44.867 16.653,45.129 C 16.437,44.217 17.142,43.182 17.887,42.721 C 19.119,41.961 17.99,40.014 16.751,40.778 C 15.119,41.786 14.029,43.805 14.482,45.727 C 14.634,46.373 15.279,46.606 15.866,46.514 C 18.079,46.162 18.628,43.633 18.444,41.75 C 18.384,41.139 17.977,40.625 17.319,40.625 C 16.751,40.625 16.135,41.139 16.194,41.75 L 16.194,41.75 z"
   id="path145" />
		</g>
	</g>
	<g
   id="g147">
		<g
   id="g149">
			<path
   d="M 20.624,45.246 C 20.732,45.412 20.833,45.582 20.926,45.758 C 20.995,45.887 21.009,45.92 20.967,45.852 C 20.974,45.872 21.035,46.233 21.018,46.014 C 21.014,46.151 21.016,46.16 21.026,46.039 C 20.99,46.166 20.984,46.18 21.01,46.08 C 21.072,46.017 21.052,46.041 20.949,46.144 C 20.856,46.242 20.794,46.263 20.677,46.333 C 21.228,46.558 21.779,46.782 22.33,47.007 C 22.1,46.347 22.431,45.767 22.68,45.152 C 22.91,44.582 22.434,43.916 21.894,43.767 C 21.251,43.591 20.74,43.986 20.51,44.554 C 20.105,45.556 19.786,46.533 20.16,47.605 C 20.394,48.275 21.158,48.675 21.813,48.277 C 22.585,47.808 23.167,47.158 23.257,46.232 C 23.331,45.47 22.97,44.73 22.567,44.111 C 21.779,42.898 19.831,44.025 20.624,45.246 L 20.624,45.246 z"
   id="path151" />
		</g>
	</g>
	<g
   id="g153">
		<g
   id="g155">
			<path
   d="M 23.632,40.98 C 23.787,41.168 23.998,41.302 24.164,41.48 C 24.242,41.564 24.315,41.654 24.387,41.744 C 24.208,41.521 24.528,41.941 24.568,42 C 24.921,42.502 25.241,43.029 25.558,43.555 C 25.617,43.1 25.675,42.647 25.734,42.192 C 25.795,42.139 25.51,42.276 25.728,42.206 C 25.847,42.167 26.145,42.304 25.97,42.198 C 26.187,42.331 25.885,42.059 26.001,42.218 C 25.902,42.083 25.829,41.931 25.757,41.782 C 25.551,41.35 25.505,40.725 25.553,40.186 C 25.608,39.575 25,39.061 24.428,39.061 C 23.773,39.061 23.358,39.575 23.303,40.186 C 23.205,41.272 23.469,42.557 24.127,43.446 C 24.968,44.579 26.263,44.712 27.325,43.784 C 27.699,43.456 27.748,42.831 27.501,42.421 C 26.985,41.564 26.458,40.691 25.796,39.935 C 25.621,39.736 25.391,39.593 25.224,39.39 C 24.833,38.917 24.036,38.988 23.633,39.39 C 23.168,39.854 23.242,40.508 23.632,40.98 L 23.632,40.98 z"
   id="path157" />
		</g>
	</g>
	<g
   id="g159">
		<g
   id="g161">
			<path
   d="M 26.561,37.135 C 26.75,36.436 26.939,35.737 27.129,35.037 C 25.934,34.207 24.811,36.158 25.993,36.98 C 26.948,37.644 28.025,38.39 29.099,37.572 C 29.472,37.287 29.814,36.804 29.616,36.301 C 29.058,34.887 27.965,34.842 26.56,34.885 C 25.114,34.93 25.109,37.18 26.561,37.135 L 26.561,37.135 z"
   id="path163" />
		</g>
	</g>
	<g
   id="g165">
		<path
   d="M 27.267,31.379 C 27.968,31.027 29.194,31.027 29.894,31.203 C 29.894,32.78 28.493,32.255 27.267,31.379"
   id="path167" />
		<g
   id="g169">
			<path
   d="M 27.835,32.351 C 28.259,32.157 29.141,32.184 29.595,32.288 C 29.32,31.927 29.044,31.564 28.769,31.203 C 28.759,31.364 28.759,31.397 28.771,31.305 C 28.731,31.535 28.779,31.313 28.845,31.239 C 28.934,31.138 29.053,31.101 29.181,31.091 C 28.9,31.114 29.39,31.151 29.083,31.083 C 28.66,30.989 28.256,30.705 27.833,30.408 C 27.33,30.055 26.584,30.316 26.294,30.812 C 25.964,31.374 26.196,32 26.697,32.351 C 27.424,32.861 28.268,33.334 29.18,33.34 C 30.388,33.348 30.985,32.279 31.017,31.204 C 31.031,30.723 30.665,30.227 30.191,30.119 C 29.031,29.853 27.785,29.91 26.697,30.408 C 26.139,30.664 26.007,31.459 26.294,31.947 C 26.628,32.515 27.277,32.606 27.835,32.351 L 27.835,32.351 z"
   id="path171" />
		</g>
	</g>
	<g
   id="g173">
		<path
   d="M 26.5,25.815 C 27.901,24.765 29.478,24.415 30.002,25.991 C 29.128,26.517 27.376,26.341 26.5,25.815"
   id="path175" />
		<g
   id="g177">
			<path
   d="M 27.068,26.787 C 27.417,26.534 28.646,25.575 28.918,26.29 C 29.09,25.867 29.263,25.443 29.435,25.019 C 28.769,25.375 27.703,25.195 27.068,24.843 C 25.797,24.14 24.663,26.083 25.932,26.786 C 27.293,27.54 29.175,27.709 30.57,26.962 C 30.982,26.741 31.259,26.145 31.087,25.691 C 30.7,24.671 30.018,23.926 28.887,23.809 C 27.82,23.699 26.77,24.235 25.932,24.842 C 25.436,25.201 25.196,25.813 25.529,26.381 C 25.816,26.873 26.571,27.147 27.068,26.787 L 27.068,26.787 z"
   id="path179" />
		</g>
	</g>
	<g
   id="g181">
		<path
   d="M 25.273,20.343 C 25.099,18.767 25.623,17.891 27.2,18.066 C 27.55,19.292 26.849,19.993 25.623,20.519"
   id="path183" />
		<g
   id="g185">
			<path
   d="M 26.398,20.343 C 26.369,20.048 26.358,19.758 26.382,19.462 C 26.363,19.691 26.412,19.373 26.42,19.345 C 26.463,19.22 26.46,19.22 26.409,19.345 C 26.435,19.29 26.466,19.238 26.499,19.188 C 26.34,19.443 26.639,19.098 26.4,19.278 C 26.449,19.243 26.501,19.213 26.555,19.186 C 26.43,19.236 26.43,19.24 26.555,19.198 C 26.854,19.106 26.344,19.198 26.685,19.173 C 26.856,19.16 27.029,19.176 27.199,19.192 C 26.837,18.917 26.476,18.641 26.114,18.366 C 26.183,18.633 26.172,18.556 26.157,18.811 C 26.171,18.557 26.066,18.987 26.167,18.76 C 26.159,18.78 25.973,19.048 26.104,18.889 C 25.854,19.194 25.493,19.355 25.054,19.549 C 24.493,19.797 24.367,20.605 24.651,21.088 C 24.986,21.661 25.629,21.739 26.19,21.492 C 27.739,20.808 28.734,19.511 28.284,17.768 C 28.15,17.25 27.698,16.988 27.199,16.942 C 26.331,16.861 25.368,17.055 24.783,17.754 C 24.174,18.482 24.056,19.426 24.147,20.344 C 24.207,20.954 24.613,21.469 25.272,21.469 C 25.841,21.468 26.459,20.955 26.398,20.343 L 26.398,20.343 z"
   id="path187" />
		</g>
	</g>
</g>
</svg>