<?xml version="1.0" encoding="UTF-8" standalone="no"?>
<!-- Generator: Adobe Illustrator 14.0.0, SVG Export Plug-In . SVG Version: 6.00 Build 43363)  -->
<svg
   xmlns:dc="http://purl.org/dc/elements/1.1/"
   xmlns:cc="http://creativecommons.org/ns#"
   xmlns:rdf="http://www.w3.org/1999/02/22-rdf-syntax-ns#"
   xmlns:svg="http://www.w3.org/2000/svg"
   xmlns="http://www.w3.org/2000/svg"
   xmlns:sodipodi="http://sodipodi.sourceforge.net/DTD/sodipodi-0.dtd"
   xmlns:inkscape="http://www.inkscape.org/namespaces/inkscape"
   version="1.0"
   id="Capa_1"
   x="0px"
   y="0px"
   width="32"
   height="32"
   viewBox="0 0 64 64"
   enable-background="new 0 0 64 64"
   xml:space="preserve"
   sodipodi:version="0.32"
   inkscape:version="0.46"
   sodipodi:docname="sym_small_grapes.svg"
   inkscape:output_extension="org.inkscape.output.svg.inkscape"><metadata
   id="metadata264"><rdf:RDF><cc:Work
       rdf:about=""><dc:format>image/svg+xml</dc:format><dc:type
         rdf:resource="http://purl.org/dc/dcmitype/StillImage" /></cc:Work></rdf:RDF></metadata><defs
   id="defs262"><inkscape:perspective
     sodipodi:type="inkscape:persp3d"
     inkscape:vp_x="0 : 32 : 1"
     inkscape:vp_y="0 : 1000 : 0"
     inkscape:vp_z="64 : 32 : 1"
     inkscape:persp3d-origin="32 : 21.333333 : 1"
     id="perspective266" /></defs><sodipodi:namedview
   inkscape:window-height="676"
   inkscape:window-width="640"
   inkscape:pageshadow="2"
   inkscape:pageopacity="0.0"
   guidetolerance="10.0"
   gridtolerance="10.0"
   objecttolerance="10.0"
   borderopacity="1.0"
   bordercolor="#666666"
   pagecolor="#ffffff"
   id="base"
   showgrid="false"
   inkscape:zoom="7.46875"
   inkscape:cx="32"
   inkscape:cy="32"
   inkscape:window-x="70"
   inkscape:window-y="0"
   inkscape:current-layer="Capa_1" />
<g
   id="g3">
	<path
   d="M 40.495,15.979 C 41.491,16.976 41.351,16.868 42.235,18.193 C 43.727,20.432 41.664,21.425 44.972,21.426 C 48.904,21.426 51.191,20.953 51.686,25.183 C 52.185,29.411 50.857,28.167 54.089,31.152 C 56.576,33.391 58.154,32.395 58.9,36.622 C 59.646,40.851 56.165,40.851 55.915,43.837 C 55.667,45.577 57.907,47.816 57.409,50.303 C 56.165,58.511 48.946,55.212 43.971,52.973 C 43.225,61.182 35.265,52.48 33.779,49.343 C 32.535,51.331 28.745,53.968 26.008,52.974 C 22.526,51.73 22.587,49.807 22.338,47.071 C 9.653,56.473 5.424,23.69 20.845,27.172 C 20.596,25.681 20.596,23.939 20.596,22.198 C 28.556,22.944 35.271,23.69 40.495,15.979"
   id="path5"
   style="fill:#75507b" />
	<g
   id="g7">
		<path
   d="M 38.021,18.455 C 39.502,19.989 39.193,22.104 40.65,23.561 C 42.356,25.268 45.169,24.919 47.349,24.914 C 49.387,24.909 47.752,27.768 48.489,29.565 C 49.332,31.622 50.771,32.961 52.506,34.333 C 54.311,35.761 56.769,36.643 54.492,39.106 C 53.028,40.691 52.336,42.604 52.475,44.749 C 52.579,46.347 55.642,51.739 52.54,52.058 C 50.305,52.287 47.704,50.835 45.738,49.953 C 43.902,49.13 40.975,49.604 40.596,52.045 C 40.012,53.419 40.37,53.688 41.669,52.851 C 40.781,52.451 40.077,51.694 39.391,51.031 C 38.344,50.021 37.485,48.858 36.801,47.58 C 35.43,45.018 32.253,45.641 30.757,47.58 C 28.959,49.91 26.127,50.353 25.838,47.074 C 25.626,44.661 22.948,42.412 20.571,44.052 C 16.56,46.819 14.928,42.783 14.515,38.985 C 14.113,35.28 15.015,29.631 19.913,30.551 C 21.919,30.928 24.616,29.611 24.344,27.176 C 24.157,25.508 24.104,23.881 24.095,22.202 C 22.928,23.369 21.762,24.535 20.595,25.702 C 30.024,26.581 37.571,25.835 43.516,17.749 C 46.194,14.106 40.115,10.621 37.471,14.216 C 33.204,20.02 27.012,19.3 20.595,18.702 C 18.699,18.525 17.086,20.428 17.095,22.202 C 17.104,23.88 17.157,25.507 17.344,27.176 C 18.821,26.051 20.298,24.926 21.775,23.801 C -1.206,19.482 6.775,62.05 24.104,50.097 C 22.349,49.089 20.593,48.082 18.837,47.075 C 19.783,57.831 30.585,59.171 36.8,51.114 C 34.785,51.114 32.77,51.114 30.756,51.114 C 33.938,57.06 45.546,65.496 47.345,53.908 C 45.631,54.605 43.917,55.303 42.203,56 C 47.098,58.196 55.697,61.848 59.258,55.414 C 61.177,51.945 61.328,48.644 59.777,45.028 C 59.169,43.61 60.719,42.662 61.535,41.48 C 62.477,40.113 62.526,38.197 62.399,36.626 C 62.126,33.246 60.442,30.92 57.551,29.338 C 56.799,28.914 56.133,28.381 55.552,27.74 C 53.875,26.18 55.306,29.119 55.317,27.482 C 55.328,25.653 55.128,23.784 54.466,22.075 C 53.264,18.97 50.415,18.06 47.347,17.915 C 46.555,17.915 45.763,17.919 44.971,17.928 C 46.283,17.917 46.719,21.731 46.1,18.282 C 45.786,16.528 44.164,14.745 42.968,13.506 C 39.83,10.252 34.886,15.208 38.021,18.455 L 38.021,18.455 z"
   id="path9"
   style="fill:#75507b" />
	</g>
</g>
<g
   id="g11">
	<path
   d="M 51.687,27.894 C 48.954,28.641 45.221,29.139 42.983,30.879 C 45.967,34.859 49.947,31.626 51.44,28.143"
   id="path13"
   style="fill:#5c3566" />
	<g
   id="g15">
		<path
   d="M 51.544,27.362 C 48.424,28.184 45.053,28.616 42.372,30.55 C 42.154,30.707 41.861,30.99 42.089,31.269 C 45.538,35.486 50.52,32.169 52.346,28.187 C 52.758,27.288 50.821,27.473 50.533,28.098 C 49.97,29.326 49.246,30.381 48.239,31.289 C 46.649,32.722 45.065,31.942 43.876,30.487 C 43.781,30.726 43.688,30.966 43.593,31.206 C 45.977,29.486 49.053,29.156 51.829,28.424 C 52.999,28.116 52.713,27.054 51.544,27.362 L 51.544,27.362 z"
   id="path17"
   style="fill:#5c3566" />
	</g>
</g>
<g
   id="g19">
	<path
   d="M 39.75,25.904 C 38.504,24.411 36.765,23.915 35.023,24.411 C 36.266,25.656 38.007,26.153 39.75,26.153"
   id="path21"
   style="fill:#5c3566" />
	<g
   id="g23">
		<path
   d="M 40.637,25.486 C 39.128,23.778 37.046,23.221 34.855,23.779 C 34.538,23.86 33.689,24.404 34.137,24.828 C 35.593,26.203 37.425,26.795 39.408,26.828 C 39.873,26.836 40.437,26.704 40.67,26.247 C 40.875,25.842 40.491,25.483 40.092,25.476 C 38.546,25.45 37.062,25.08 35.91,23.992 C 35.671,24.342 35.431,24.691 35.192,25.041 C 36.638,24.673 37.899,25.228 38.863,26.32 C 39.421,26.953 41.261,26.193 40.637,25.486 L 40.637,25.486 z"
   id="path25"
   style="fill:#5c3566" />
	</g>
</g>
<g
   id="g27">
	<path
   d="M 22.338,38.838 C 18.856,38.341 15.124,37.096 13.384,33.864 C 11.144,39.585 18.11,42.817 22.089,39.086"
   id="path29"
   style="fill:#5c3566" />
	<g
   id="g31">
		<path
   d="M 22.951,38.393 C 19.574,37.877 16.162,36.708 14.35,33.606 C 14.058,33.105 12.596,33.536 12.426,34.016 C 11.416,36.871 12.426,39.537 15.263,40.725 C 17.756,41.767 20.887,40.877 22.843,39.165 C 23.63,38.477 21.71,38.679 21.336,39.007 C 19.537,40.581 17.303,40.544 15.446,39.085 C 13.767,37.765 13.684,35.575 14.342,33.713 C 13.7,33.85 13.059,33.986 12.418,34.123 C 14.389,37.498 18.051,38.722 21.725,39.283 C 22.213,39.357 23.977,38.549 22.951,38.393 L 22.951,38.393 z"
   id="path33"
   style="fill:#5c3566" />
	</g>
</g>
<g
   id="g35">
	<path
   d="M 31.79,54.508 C 28.556,53.76 23.084,52.419 20.348,50.179 C 19.105,55.404 27.809,57.242 31.044,54.508"
   id="path37"
   style="fill:#5c3566" />
	<g
   id="g39">
		<path
   d="M 32.356,53.888 C 28.514,52.993 24.289,52.085 21.098,49.643 C 20.595,49.258 19.49,49.632 19.372,50.264 C 18.2,56.555 27.899,57.807 31.675,54.911 C 32.718,54.111 31.134,53.552 30.413,54.104 C 27.379,56.43 20.468,54.683 21.323,50.093 C 20.748,50.3 20.172,50.507 19.597,50.714 C 22.897,53.238 27.255,54.203 31.224,55.127 C 32.001,55.31 33.515,54.157 32.356,53.888 L 32.356,53.888 z"
   id="path41"
   style="fill:#5c3566" />
	</g>
</g>
<g
   id="g43">
	<path
   d="M 19.851,48.787 C 17.115,48.289 14.876,46.548 12.638,45.056 C 10.897,50.032 20.1,50.528 19.851,48.538"
   id="path45"
   style="fill:#5c3566" />
	<g
   id="g47">
		<path
   d="M 20.447,48.277 C 17.834,47.727 15.711,46.144 13.536,44.683 C 13.05,44.356 11.872,44.552 11.673,45.182 C 9.854,50.949 20.942,51.331 20.817,48.279 C 20.793,47.691 18.856,48.073 18.885,48.797 C 18.916,49.549 16.035,48.841 15.687,48.72 C 13.958,48.116 13.033,46.731 13.602,44.929 C 12.981,45.096 12.36,45.262 11.739,45.428 C 14.112,47.024 16.404,48.698 19.255,49.297 C 19.845,49.421 21.533,48.506 20.447,48.277 L 20.447,48.277 z"
   id="path49"
   style="fill:#5c3566" />
	</g>
</g>
<g
   id="g51">
	<path
   d="M 44.475,55.559 C 40.993,54.066 37.263,53.072 33.78,51.58 C 32.536,56.554 43.978,61.776 44.973,55.559"
   id="path53"
   style="fill:#5c3566" />
	<g
   id="g55">
		<path
   d="M 45.234,55.057 C 41.719,53.592 38.052,52.542 34.539,51.078 C 34.027,50.865 32.939,51.003 32.809,51.683 C 31.61,57.904 44.485,62.533 45.944,55.455 C 46.114,54.63 44.154,54.928 44.003,55.662 C 42.959,60.725 33.94,55.682 34.751,51.475 C 34.174,51.677 33.598,51.878 33.021,52.08 C 36.536,53.544 40.203,54.594 43.716,56.059 C 44.36,56.329 46.104,55.42 45.234,55.057 L 45.234,55.057 z"
   id="path57"
   style="fill:#5c3566" />
	</g>
</g>
<g
   id="g59">
	<path
   d="M 55.915,56.248 C 52.186,55.751 46.712,53.76 43.977,51.274 C 43.729,56.745 50.941,60.727 54.92,56"
   id="path61"
   style="fill:#5c3566" />
	<g
   id="g63">
		<path
   d="M 56.707,55.866 C 52.527,55.237 48.133,53.718 44.887,50.941 C 44.552,50.655 43.012,51.03 43.012,51.533 C 43.017,58.355 51.529,60.561 55.796,55.934 C 56.214,55.481 54.363,55.718 54.044,56.065 C 50.217,60.213 44.946,55.375 44.943,51.015 C 44.318,51.212 43.693,51.41 43.068,51.607 C 46.355,54.419 50.894,55.992 55.123,56.629 C 55.588,56.699 57.251,55.948 56.707,55.866 L 56.707,55.866 z"
   id="path65"
   style="fill:#5c3566" />
	</g>
</g>
<g
   id="g67">
	<path
   d="M 46.464,46.051 C 42.235,47.045 39.003,45.552 36.765,41.822 C 34.276,47.793 41.987,49.782 45.967,46.797"
   id="path69"
   style="fill:#5c3566" />
	<g
   id="g71">
		<path
   d="M 46.643,45.689 C 42.755,46.508 39.779,44.816 37.731,41.562 C 37.467,41.143 35.968,41.579 35.812,41.99 C 33.166,48.97 42.599,49.705 46.708,46.827 C 47.506,46.268 45.569,46.525 45.228,46.764 C 43.325,48.097 40.871,48.055 38.916,46.841 C 37.046,45.678 37.016,43.506 37.719,41.652 C 37.079,41.795 36.44,41.937 35.8,42.08 C 38.234,45.948 41.861,47.344 46.286,46.412 C 47.045,46.252 47.992,45.405 46.643,45.689 L 46.643,45.689 z"
   id="path73"
   style="fill:#5c3566" />
	</g>
</g>
<g
   id="g75">
	<path
   d="M 44.973,21.427 C 41.987,21.178 39.003,21.427 36.765,23.417 C 39.003,24.163 41.492,25.406 43.729,24.91"
   id="path77"
   style="fill:#5c3566" />
	<g
   id="g79">
		<path
   d="M 45.342,20.856 C 41.967,20.609 38.666,21.019 35.986,23.239 C 35.632,23.531 35.824,23.838 36.179,23.96 C 38.607,24.799 40.977,25.898 43.604,25.47 C 44.543,25.317 45.185,24.133 43.854,24.349 C 41.601,24.716 39.431,23.592 37.351,22.873 C 37.415,23.113 37.48,23.353 37.544,23.594 C 39.574,21.913 42.087,21.813 44.604,21.997 C 45.371,22.054 46.649,20.952 45.342,20.856 L 45.342,20.856 z"
   id="path81"
   style="fill:#5c3566" />
	</g>
</g>
<g
   id="g83">
	<path
   d="M 50.691,19.686 C 51.439,20.93 51.686,22.671 51.439,23.915 C 45.966,24.163 45.719,16.452 50.444,19.686"
   id="path85"
   style="fill:#ffffff" />
	<g
   id="g87">
		<path
   d="M 49.799,20.082 C 50.463,21.257 50.696,22.693 50.469,24.019 C 50.831,23.785 51.193,23.551 51.554,23.316 C 49.951,23.362 48.511,22.311 48.137,20.747 C 48.032,20.305 48.058,19.696 48.341,19.415 C 48.293,19.462 48.028,19.536 48.242,19.479 C 48.03,19.535 48.299,19.516 48.389,19.537 C 48.861,19.645 49.287,19.924 49.684,20.188 C 50.277,20.582 52.038,19.741 51.204,19.186 C 50.208,18.523 48.969,18.02 47.771,18.433 C 46.795,18.769 46.13,19.516 46.133,20.575 C 46.14,23.317 48.954,24.583 51.324,24.515 C 51.698,24.504 52.336,24.237 52.409,23.812 C 52.677,22.25 52.358,20.663 51.583,19.291 C 51.231,18.666 49.36,19.305 49.799,20.082 L 49.799,20.082 z"
   id="path89"
   style="fill:#ffffff" />
	</g>
</g>
<g
   id="g91">
	<path
   d="M 42.235,13.716 C 42.733,14.961 43.231,15.954 42.484,17.198 C 38.255,14.961 40.246,10.732 42.733,14.463"
   id="path93"
   style="fill:#ffffff" />
	<g
   id="g95">
		<path
   d="M 41.27,13.975 C 41.699,15.038 42.164,16.019 41.568,17.111 C 42.124,16.962 42.679,16.813 43.236,16.664 C 42.228,16.112 40.927,15.117 41.007,13.813 C 41.013,13.701 41.098,13.47 41.054,13.531 C 41.156,13.389 41,13.552 40.95,13.578 C 40.828,13.636 40.697,13.659 40.558,13.647 C 40.657,13.657 40.669,13.658 40.595,13.649 C 41.138,13.79 41.554,14.452 41.846,14.878 C 42.309,15.552 44.161,14.838 43.621,14.051 C 43.081,13.266 42.394,12.519 41.417,12.345 C 40.575,12.196 39.688,12.586 39.252,13.319 C 38.221,15.057 40.432,17.02 41.733,17.734 C 42.259,18.023 43.104,17.831 43.401,17.287 C 44.13,15.954 43.733,14.779 43.201,13.459 C 42.87,12.637 40.954,13.195 41.27,13.975 L 41.27,13.975 z"
   id="path97"
   style="fill:#ffffff" />
	</g>
</g>
<g
   id="g99">
	<path
   d="M 34.027,27.396 C 37.262,28.392 39.75,31.376 35.768,31.873 C 35.521,32.122 32.039,30.63 31.292,30.63 C 29.55,30.381 28.555,31.873 27.063,31.626 C 27.809,29.634 31.542,27.646 34.027,27.396"
   id="path101"
   style="fill:#ffffff" />
	<g
   id="g103">
		<path
   d="M 33.252,27.839 C 34.58,28.289 36.118,28.997 36.76,30.333 C 37.188,31.225 36.015,31.307 35.4,31.522 C 36.08,31.441 36.159,31.361 35.638,31.28 C 35.312,31.186 34.99,31.071 34.668,30.962 C 33.777,30.66 32.838,30.228 31.894,30.139 C 31.335,30.087 30.758,30.075 30.211,30.226 C 29.344,30.466 28.357,31.172 27.452,31.119 C 27.644,31.244 27.836,31.368 28.028,31.492 C 28.963,29.422 31.758,28.168 33.884,27.885 C 34.778,27.766 35.518,26.728 34.173,26.907 C 31.243,27.297 27.396,28.895 26.103,31.759 C 25.962,32.07 26.523,32.123 26.679,32.132 C 27.533,32.182 28.282,31.988 29.066,31.661 C 30.394,31.107 31.113,31.163 32.416,31.606 C 33.708,32.045 34.792,32.499 36.129,32.279 C 37.292,32.088 38.897,31.475 38.766,30.062 C 38.617,28.453 36.052,27.375 34.804,26.953 C 34.259,26.769 32.505,27.586 33.252,27.839 L 33.252,27.839 z"
   id="path105"
   style="fill:#ffffff" />
	</g>
</g>
<g
   id="g107">
	<path
   d="M 46.712,34.858 C 47.708,35.604 48.454,36.102 48.454,37.592 C 46.464,37.843 44.724,36.102 43.479,34.858 C 44.474,34.61 45.469,34.858 46.463,35.107"
   id="path109"
   style="fill:#ffffff" />
	<g
   id="g111">
		<path
   d="M 45.809,35.211 C 46.788,35.942 47.441,36.564 47.489,37.852 C 47.943,37.611 48.398,37.369 48.852,37.127 C 47.031,37.269 45.567,35.687 44.383,34.506 C 44.03,34.771 43.677,35.036 43.323,35.302 C 44.138,35.147 44.89,35.331 45.682,35.527 C 46.132,35.639 46.635,35.53 47.04,35.312 C 47.216,35.218 47.7,34.801 47.244,34.689 C 46.032,34.388 44.879,34.18 43.635,34.416 C 43.445,34.452 42.168,34.807 42.575,35.212 C 44.091,36.726 45.767,38.237 48.055,38.06 C 48.424,38.032 49.438,37.872 49.418,37.335 C 49.368,35.978 48.647,35.279 47.613,34.507 C 47.131,34.144 45.397,34.904 45.809,35.211 L 45.809,35.211 z"
   id="path113"
   style="fill:#ffffff" />
	</g>
</g>
<g
   id="g115">
	<path
   d="M 55.419,29.883 C 58.652,36.845 52.434,33.366 54.92,29.883"
   id="path117"
   style="fill:#ffffff" />
	<g
   id="g119">
		<path
   d="M 54.453,30.142 C 54.876,31.062 55.429,32.279 55.4,33.232 C 55.396,33.366 55.374,33.499 55.332,33.626 C 55.392,33.446 55.336,33.594 55.307,33.639 C 55.34,33.588 55.482,33.465 55.46,33.481 C 55.653,33.349 55.799,33.315 55.986,33.292 C 56.179,33.293 56.229,33.292 56.135,33.288 C 56.051,33.278 56.091,33.285 56.253,33.308 C 56.193,33.295 56.034,33.223 56.26,33.321 C 56.21,33.3 56.163,33.272 56.117,33.244 C 56.083,33.223 55.925,33.101 56.071,33.222 C 56.022,33.182 55.976,33.137 55.931,33.092 C 55.832,32.994 55.748,32.884 55.669,32.771 C 55.528,32.568 55.43,32.333 55.35,32 C 55.178,31.285 55.393,30.572 55.829,29.946 C 56.103,29.551 55.597,29.293 55.276,29.271 C 54.803,29.24 54.284,29.431 54.008,29.827 C 53.436,30.649 53.189,31.658 53.448,32.639 C 53.628,33.32 54.11,34.063 54.778,34.352 C 55.716,34.757 57.001,34.399 57.299,33.344 C 57.419,32.918 57.329,32.413 57.24,31.99 C 57.068,31.171 56.73,30.385 56.383,29.628 C 56.04,28.874 54.14,29.459 54.453,30.142 L 54.453,30.142 z"
   id="path121"
   style="fill:#ffffff" />
	</g>
</g>
<g
   id="g123">
	<path
   d="M 56.413,43.561 C 57.409,44.56 57.907,45.552 57.907,46.796 C 51.439,47.792 49.201,37.844 56.165,43.561"
   id="path125"
   style="fill:#ffffff" />
	<g
   id="g127">
		<path
   d="M 55.508,43.909 C 56.376,44.803 56.914,45.793 56.942,47.055 C 57.317,46.826 57.693,46.597 58.068,46.367 C 55.993,46.663 53.83,45.329 53.052,43.398 C 52.925,43.084 52.849,42.744 52.859,42.404 C 52.863,42.286 52.914,42.157 52.965,42.051 C 52.923,42.138 53.01,41.996 53.032,41.973 C 52.918,42.093 52.747,42.142 52.594,42.188 C 52.392,42.25 52.371,42.233 52.31,42.229 C 52.417,42.236 52.436,42.241 52.518,42.26 C 52.774,42.323 53.018,42.429 53.255,42.54 C 53.984,42.883 54.64,43.404 55.26,43.908 C 55.716,44.279 57.464,43.531 57.071,43.211 C 55.856,42.224 54.417,41.149 52.765,41.362 C 51.612,41.51 50.739,42.223 50.972,43.425 C 51.19,44.547 52.063,45.554 52.958,46.209 C 54.345,47.224 56.08,47.462 57.747,47.224 C 58.071,47.178 58.883,46.981 58.873,46.536 C 58.845,45.206 58.227,44.147 57.318,43.211 C 56.924,42.806 55.116,43.505 55.508,43.909 L 55.508,43.909 z"
   id="path129"
   style="fill:#ffffff" />
	</g>
</g>
<g
   id="g131">
	<path
   d="M 32.039,42.32 C 35.023,46.299 30.049,45.055 28.556,41.821 C 30.049,41.327 31.044,41.573 32.288,42.32"
   id="path133"
   style="fill:#ffffff" />
	<g
   id="g135">
		<path
   d="M 31.141,42.693 C 31.522,43.212 31.95,43.793 32.009,44.456 C 32.013,44.506 31.982,44.573 31.967,44.619 C 32.031,44.43 32.42,44.318 32.596,44.29 C 32.844,44.25 32.41,44.224 32.282,44.177 C 31.091,43.737 30.068,42.691 29.524,41.563 C 29.244,41.804 28.963,42.045 28.683,42.287 C 29.764,41.955 30.566,42.224 31.519,42.779 C 32.046,43.087 33.835,42.314 33.061,41.863 C 31.575,40.997 30.078,40.85 28.433,41.357 C 28.233,41.419 27.415,41.714 27.592,42.081 C 28.351,43.654 29.989,45.25 31.832,45.344 C 32.613,45.383 33.534,45.112 33.896,44.368 C 34.26,43.622 33.328,42.477 32.939,41.948 C 32.561,41.435 30.693,42.084 31.141,42.693 L 31.141,42.693 z"
   id="path137"
   style="fill:#ffffff" />
	</g>
</g>
<g
   id="g139">
	<path
   d="M 39.75,9.487 C 40.869,18.194 20.348,24.41 20.348,16.451 C 20.348,9.487 34.775,8.742 39.5,9.985"
   id="path141"
   style="fill:#91bd32" />
	<g
   id="g143">
		<path
   d="M 38.784,9.746 C 39.249,16.078 27.361,22.54 22.281,18.562 C 18.37,15.499 24.652,11.657 27.089,10.939 C 30.756,9.86 35.182,9.654 38.914,10.527 C 39.558,10.677 41.198,9.703 40.088,9.443 C 35.026,8.258 29.132,8.87 24.332,10.777 C 21.144,12.044 17.003,16.599 20.842,19.605 C 24.022,22.095 29.66,20.236 32.878,18.853 C 36.746,17.19 41.058,13.875 40.717,9.228 C 40.667,8.562 38.728,8.979 38.784,9.746 L 38.784,9.746 z"
   id="path145"
   style="fill:#91bd32" />
	</g>
</g>
<g
   id="g147">
	<path
   d="M 17.612,19.935 C 8.907,21.427 4.927,30.381 5.424,38.588 C 10.399,37.844 9.156,32.62 11.145,29.386 C 13.135,25.407 18.158,26.153 17.613,20.184"
   id="path149"
   style="fill:#91bd32" />
	<g
   id="g151">
		<path
   d="M 17.422,19.227 C 8.304,21.125 4.099,29.933 4.442,38.649 C 4.466,39.271 5.096,39.413 5.614,39.295 C 10.459,38.201 10.152,34.065 11.717,30.19 C 12.709,27.735 15.183,26.841 16.982,25.149 C 18.411,23.805 18.665,21.992 18.595,20.121 C 18.555,19.058 16.596,19.317 16.631,20.244 C 16.802,24.818 13.088,25.339 10.735,28.373 C 8.422,31.355 9.64,36.883 5.235,37.878 C 5.626,38.094 6.016,38.309 6.407,38.524 C 6.097,30.697 9.415,22.39 17.802,20.643 C 19.028,20.388 18.629,18.975 17.422,19.227 L 17.422,19.227 z"
   id="path153"
   style="fill:#91bd32" />
	</g>
</g>
<g
   id="g155">
	<path
   d="M 40.744,10.483 C 33.779,10.234 24.825,12.225 20.597,18.194 C 27.809,23.915 36.765,16.452 40.993,10.732"
   id="path157"
   style="fill:#4e9b2a" />
	<g
   id="g159">
		<path
   d="M 41.363,10.062 C 33.557,9.912 24.734,11.753 19.717,18.248 C 19.653,18.331 19.568,18.448 19.69,18.534 C 27.724,24.192 36.918,17.142 41.873,10.68 C 42.289,10.137 40.41,10.4 40.113,10.786 C 36.136,15.974 29.4,22.272 22.498,18.555 C 19.912,17.162 28.292,12.906 28.909,12.651 C 32.42,11.202 36.362,10.833 40.126,10.905 C 40.566,10.913 42.344,10.08 41.363,10.062 L 41.363,10.062 z"
   id="path161"
   style="fill:#4e9b2a" />
	</g>
</g>
<g
   id="g163">
	<path
   d="M 17.248,21.406 C 15.009,22.649 2.44,35.854 5.922,38.341 C 9.653,41.327 11.002,30.49 11.145,29.386 C 11.644,25.573 19.452,25.788 18.158,23.186"
   id="path165"
   style="fill:#4e9b2a" />
	<g
   id="g167">
		<path
   d="M 16.814,20.815 C 14.245,22.397 -0.92,38.291 6.412,39.517 C 10.533,40.205 11.431,33.636 11.9,30.868 C 12.056,29.947 12.049,29.025 12.62,28.22 C 13.47,27.022 15.527,26.526 16.825,25.986 C 18.119,25.448 19.68,24.539 19.123,22.929 C 18.81,22.022 16.884,22.557 17.191,23.447 C 17.612,24.667 14.005,25.603 13.217,25.981 C 11.963,26.581 10.931,27.455 10.345,28.724 C 9.064,31.499 9.697,34.816 7.91,37.559 C 7.307,38.486 6.349,37.811 6.295,36.928 C 6.246,36.118 6.672,35.297 7.001,34.586 C 7.869,32.714 9.196,31.042 10.471,29.434 C 12.472,26.909 14.895,23.713 17.68,21.998 C 18.791,21.313 17.771,20.227 16.814,20.815 L 16.814,20.815 z"
   id="path169"
   style="fill:#4e9b2a" />
	</g>
</g>
<g
   id="g171">
	<g
   id="g173">
		<path
   d="M 42.318,13.037 C 45.471,15.137 44.492,20.702 42.843,23.337 C 40.677,26.799 36.424,27.108 33.266,24.814 C 31.373,23.439 33.722,26.085 34.291,26.499 C 38.743,29.733 44.156,29.827 46.511,24.12 C 48.745,18.7 44.984,13.794 40.663,10.917 C 40.114,10.551 39.962,10.749 40.356,11.254 C 40.896,11.944 41.59,12.552 42.318,13.037 L 42.318,13.037 z"
   id="path175" />
	</g>
</g>
<g
   id="g177">
	<g
   id="g179">
		<path
   d="M 31.581,21.718 C 33.243,26.118 31.127,29.163 26.42,28.721 C 22.055,28.311 19.003,24.957 20.338,20.565 C 20.926,18.631 17.323,19.324 16.876,20.795 C 12.582,34.912 40.566,34.92 34.983,20.141 C 34.4,18.598 30.982,20.133 31.581,21.718 L 31.581,21.718 z"
   id="path181" />
	</g>
</g>
<g
   id="g183">
	<g
   id="g185">
		<path
   d="M 24.602,29.881 C 27.586,35.709 19.55,41.269 14.258,39.129 C 11.51,38.017 12.401,33.713 13.133,31.588 C 14.064,28.886 16.374,26.526 19.362,26.608 C 20.979,26.652 18.693,23.801 17.561,23.77 C 13.42,23.657 10.852,26.924 9.782,30.618 C 8.63,34.6 10.059,38.329 13.289,40.77 C 19.758,45.659 31.58,38.857 27.415,30.725 C 27.01,29.933 26.323,29.21 25.447,28.948 C 24.773,28.745 24.246,29.186 24.602,29.881 L 24.602,29.881 z"
   id="path187" />
	</g>
</g>
<g
   id="g189">
	<g
   id="g191">
		<path
   d="M 23.521,39.034 C 25.808,43.412 22.274,48.89 17.356,48.73 C 12.871,48.584 9.31,42.273 12.129,38.712 C 13.537,36.935 10.2,35.434 8.982,36.974 C 4.055,43.196 10.633,50.861 17.188,51.826 C 24.787,52.945 30.15,43.986 26.84,37.647 C 25.929,35.902 22.47,37.021 23.521,39.034 L 23.521,39.034 z"
   id="path193" />
	</g>
</g>
<g
   id="g195">
	<g
   id="g197">
		<path
   d="M 35.211,28.861 C 38.041,31.22 39.414,34.677 37.159,37.918 C 34.821,41.278 30.311,40.639 27.372,38.618 C 25.839,37.563 22.937,39.793 24.766,41.05 C 29.356,44.206 35.349,44.186 39.422,40.149 C 43.743,35.864 42.059,29.966 37.818,26.43 C 36.383,25.233 33.499,27.434 35.211,28.861 L 35.211,28.861 z"
   id="path199" />
	</g>
</g>
<g
   id="g201">
	<g
   id="g203">
		<path
   d="M 32.62,42.537 C 36.211,45.737 34.823,49.959 31.557,52.786 C 30.032,54.105 28.107,55.002 26.113,55.287 C 23.6,55.645 22.314,53.13 21.653,51.092 C 21.332,50.103 17.752,49.708 18.049,50.625 C 22.67,64.866 45.987,51.563 35.931,42.6 C 35.229,41.975 31.717,41.732 32.62,42.537 L 32.62,42.537 z"
   id="path205" />
	</g>
</g>
<g
   id="g207">
	<g
   id="g209">
		<path
   d="M 45.638,19.178 C 49.932,19.575 52.527,22.954 52.369,27.175 C 52.3,29.032 51.583,30.932 50.338,32.315 C 48.457,34.403 45.017,33.315 42.801,32.437 C 41.81,32.044 39.06,34.05 39.682,34.296 C 45.114,36.448 52.325,35.211 54.912,29.338 C 57.338,23.834 54.462,17.782 48.286,17.21 C 47.39,17.127 44.477,19.071 45.638,19.178 L 45.638,19.178 z"
   id="path211" />
	</g>
</g>
<g
   id="g213">
	<g
   id="g215">
		<path
   d="M 46.604,35.478 C 49.652,37.907 49.892,41.51 47.544,44.537 C 45.325,47.396 41.551,48.637 38.614,46.179 C 37.345,45.117 34.139,46.432 35.909,47.913 C 44.907,55.445 59.485,41.854 49.308,33.744 C 48.02,32.715 44.802,34.04 46.604,35.478 L 46.604,35.478 z"
   id="path217" />
	</g>
</g>
<g
   id="g219">
	<g
   id="g221">
		<path
   d="M 50.822,42.945 C 56.253,41.697 57.734,48.578 56.843,52.538 C 56.079,55.934 52.448,58.452 49.058,57.217 C 45.75,56.012 44.408,52.033 43.995,48.888 C 43.823,47.578 40.276,48.672 40.474,50.177 C 41.089,54.871 43.727,59.209 48.717,59.924 C 52.548,60.473 57.314,57.991 59.254,54.682 C 62.981,48.328 59.343,38.794 51.06,40.698 C 49.262,41.111 48.369,43.509 50.822,42.945 L 50.822,42.945 z"
   id="path223" />
	</g>
</g>
<g
   id="g225">
	<g
   id="g227">
		<path
   d="M 43.93,56.83 C 42.409,60.718 35.662,57.702 33.973,55.28 C 33.494,54.592 30.375,53.323 30.913,54.094 C 33.06,57.172 44.841,64.664 47.158,58.736 C 47.49,57.889 44.154,56.254 43.93,56.83 L 43.93,56.83 z"
   id="path229" />
	</g>
</g>
<g
   id="g231">
	<g
   id="g233">
		<path
   d="M 54.781,30.381 C 59.303,31.523 60.43,40.282 56.308,42.45 C 54.495,43.403 57.581,45.42 59.005,44.671 C 65.743,41.129 62.011,29.525 55.558,27.896 C 53.333,27.333 52.518,29.809 54.781,30.381 L 54.781,30.381 z"
   id="path235" />
	</g>
</g>
<g
   id="g237">
	<g
   id="g239">
		<path
   d="M 20.302,18.593 C 23.007,9.622 33.417,9.158 41.241,9.993 C 43.164,10.199 43.144,7.196 41.241,6.993 C 31.888,5.994 20.536,7.428 17.41,17.795 C 16.85,19.652 19.745,20.44 20.302,18.593 L 20.302,18.593 z"
   id="path241" />
	</g>
</g>
<g
   id="g243">
	<g
   id="g245">
		<path
   d="M 39.991,9.239 C 39.77,18.79 26.465,21.35 19.364,17.893 C 17.633,17.05 16.111,19.637 17.85,20.484 C 27.023,24.949 42.712,21.242 42.991,9.239 C 43.036,7.303 40.036,7.308 39.991,9.239 L 39.991,9.239 z"
   id="path247" />
	</g>
</g>
<g
   id="g249">
	<g
   id="g251">
		<path
   d="M 18.358,17.44 C 6.405,17.628 3.067,30.205 2.432,40.079 C 2.308,42.012 5.308,42 5.432,40.079 C 5.952,31.995 8.286,20.599 18.358,20.44 C 20.291,20.41 20.294,17.41 18.358,17.44 L 18.358,17.44 z"
   id="path253" />
	</g>
</g>
<g
   id="g255">
	<g
   id="g257">
		<path
   d="M 3.932,41.579 C 6.803,41.204 8.614,39.486 10.713,37.659 C 12.175,36.387 10.044,34.274 8.592,35.538 C 7.223,36.729 5.838,38.33 3.932,38.579 C 3.121,38.684 2.432,39.182 2.432,40.079 C 2.432,40.816 3.119,41.686 3.932,41.579 L 3.932,41.579 z"
   id="path259" />
	</g>
</g>
</svg>