<?xml version="1.0" encoding="utf-8"?>
<!-- Generator: Adobe Illustrator 14.0.0, SVG Export Plug-In . SVG Version: 6.00 Build 43363)  -->
<!DOCTYPE svg PUBLIC "-//W3C//DTD SVG 1.1//EN" "http://www.w3.org/Graphics/SVG/1.1/DTD/svg11.dtd">
<svg version="1.1" id="Capa_1" xmlns="http://www.w3.org/2000/svg" xmlns:xlink="http://www.w3.org/1999/xlink" x="0px" y="0px"
	 width="64px" height="64px" viewBox="0 0 64 64" enable-background="new 0 0 64 64" xml:space="preserve">
<g>
	<g>
		<path fill="#FBE950" d="M34.404,11.898C24.472,12.45,16.563,18.52,11.23,26.428c-3.311,5.15-3.495,9.195-5.15,14.716
			c-1.84,5.518-4.783,9.931,2.574,11.586c7.726,1.655,16.37,3.679,24.095,3.679c10.299,0,16.921-6.805,21.335-15.633
			c1.84-3.679,3.494-6.99,4.414-11.221c0.553-2.943,1.99-9.121-0.92-11.956c-2.391,13.795-20.415,3.863-23.358-4.965"/>
		<g>
			<path fill="#FBE950" d="M34.404,10.398C21.978,11.44,11.224,20.153,7.017,31.844c-1.179,3.277-1.641,6.774-2.791,10.065
				c-0.838,2.399-1.925,4.709-1.753,7.303c0.354,5.341,8.938,5.653,12.586,6.417c13.19,2.761,26.27,4.531,35.727-6.833
				c5.693-6.842,14.728-23.774,7.853-32.257c-0.704-0.868-2.283-0.377-2.507,0.662c-2.6,12.062-17.759,2.156-20.466-4.965
				c-0.68-1.79-3.582-1.014-2.893,0.798c3.7,9.732,22.911,20.462,26.251,4.965c-0.836,0.221-1.671,0.441-2.507,0.662
				c2.882,3.556,0.784,10.038-0.422,13.927c-1.647,5.314-4.714,10.823-8.276,15.104c-7.808,9.383-19.551,7.455-30.222,5.397
				c-4.168-0.805-13.444-1.045-11.653-7.126c1.306-4.434,2.612-8.897,3.965-13.321c3.179-10.393,13.885-18.354,24.495-19.243
				C36.316,13.238,36.332,10.237,34.404,10.398L34.404,10.398z"/>
		</g>
	</g>
	<g>
		<path fill="#91BD32" d="M17.115,49.541C24.681,53.267,32.831,50.24,40,48.144c-0.439,8.054-18.466,5.684-22.885,1.862"/>
		<g>
			<path fill="#91BD32" d="M16.358,50.836c8.13,3.516,15.934,1.161,24.04-1.246c-0.633-0.482-1.266-0.964-1.898-1.446
				c-0.873,7.018-16.761,3.591-20.324,0.802c-1.504-1.178-3.644,0.93-2.121,2.121c5.777,4.523,24.132,7.635,25.445-2.923
				c0.121-0.975-1.048-1.699-1.898-1.446c-7.137,2.119-14.469,4.688-21.729,1.549C16.116,47.486,14.586,50.07,16.358,50.836
				L16.358,50.836z"/>
		</g>
	</g>
	<g>
		<path fill="#FFFFFD" d="M30.173,18.888c-5.885,3.494-15.449,8.092-17.289,15.266c2.208-2.943,1.472-7.726,4.047-10.852
			c2.943-3.495,8.645-5.334,12.874-4.598"/>
		<g>
			<path fill="#FFFFFD" d="M29.416,17.592c-6.796,3.993-15.517,7.991-17.978,16.163c-0.505,1.678,1.845,2.556,2.742,1.155
				c1.972-3.081,1.775-6.848,3.468-10.037c2.084-3.927,8.179-5.19,12.157-4.669c1.914,0.25,1.89-2.752,0-3
				c-4.094-0.536-8.593,0.591-11.872,3.146c-1.847,1.439-2.988,2.989-3.857,5.153c-1.051,2.617-0.926,5.453-2.488,7.893
				c0.914,0.385,1.828,0.771,2.742,1.155c2.183-7.247,10.586-10.836,16.599-14.369C32.596,19.204,31.087,16.61,29.416,17.592
				L29.416,17.592z"/>
		</g>
	</g>
	<g>
		<path fill="#91BD32" d="M36.979,3.07c8.276,0.552,20.048,7.173,18.025,16.737C50.038,13.921,44.519,7.484,37.715,3.989"/>
		<g>
			<path fill="#91BD32" d="M36.979,4.57c7.364,0.651,18.076,5.958,16.579,14.838c0.836-0.221,1.671-0.441,2.507-0.662
				C50.913,12.649,45.59,6.537,38.472,2.694c-1.702-0.919-3.217,1.671-1.514,2.591c6.894,3.722,11.999,9.682,16.985,15.583
				c0.692,0.82,2.325,0.419,2.507-0.662C58.313,9.158,46.514,2.412,36.979,1.57C35.051,1.399,35.066,4.401,36.979,4.57L36.979,4.57z
				"/>
		</g>
	</g>
	<g>
		<path fill="#4E9B2A" d="M32.932,3.07c8.278,1.471,18.025,11.035,22.072,17.84c-11.403,8.645-18.945-9.932-21.336-17.105"/>
		<g>
			<path fill="#4E9B2A" d="M32.533,4.516c8.834,1.91,16.558,9.692,21.176,17.151c0.179-0.684,0.358-1.368,0.538-2.052
				c-10.206,7.168-16.574-8.647-19.134-16.208c-0.616-1.822-3.514-1.04-2.892,0.798c3.192,9.432,11.243,26.638,23.54,18.001
				c0.655-0.46,0.995-1.314,0.538-2.052c-5.013-8.098-13.366-16.454-22.968-18.53C31.445,1.216,30.643,4.107,32.533,4.516
				L32.533,4.516z"/>
		</g>
	</g>
	<g>
		<g>
			<path d="M35.16,9.478c-12.335,1.063-24.925,8.666-29.111,20.666c-1.238,3.55-2.051,7.215-3.349,10.754
				c-1.107,3.02-1.9,5.638-1.43,8.84c0.953,6.499,9.896,5.544,14.342,6.646c7.547,1.871,13.555,3.804,21.389,2.062
				c6.42-1.428,11.862-5.502,16.098-10.381c4.802-5.532,6.162-12.229,8.316-19.029c2.012-6.347,0.662-10.797-4.249-15.253
				c-1.429-1.296-3.557,0.818-2.121,2.121c5.426,4.924,4.423,8.992,2.553,15.368c-1.736,5.916-3.419,10.985-7.538,15.729
				c-7.817,9.005-19.238,10.9-30.281,7.572c-2.037-0.614-3.976-1.373-6.105-1.602c-3.354-0.359-7.939,0.012-9.51-4.029
				c-0.944-2.429,1.06-6.235,1.891-8.503c0.954-2.601,1.664-5.257,2.409-7.922c3.22-11.518,15.133-19.041,26.697-20.038
				C37.073,12.313,37.089,9.312,35.16,9.478L35.16,9.478z"/>
		</g>
	</g>
	<g>
		<g>
			<path d="M31.249,2.15c0.836,6.544,3.397,12.693,7.811,17.636c3.931,4.404,11.261,7.15,16.608,3.679
				c5.198-3.375,1.439-11.14-1.225-14.77C49.554,2.031,39.917,1.38,32.38,0.65c-1.926-0.187-1.908,2.815,0,3
				c5.481,0.531,11.782,1.094,16.611,3.971c4.166,2.482,10.347,13.273,2.119,14.343C41.082,23.267,35.27,10.135,34.249,2.15
				C34.008,0.258,31.004,0.234,31.249,2.15L31.249,2.15z"/>
		</g>
	</g>
</g>
</svg>
