<?xml version="1.0" encoding="utf-8"?>
<!-- Generator: Adobe Illustrator 14.0.0, SVG Export Plug-In . SVG Version: 6.00 Build 43363)  -->
<!DOCTYPE svg PUBLIC "-//W3C//DTD SVG 1.1//EN" "http://www.w3.org/Graphics/SVG/1.1/DTD/svg11.dtd">
<svg version="1.1" id="Capa_1" xmlns="http://www.w3.org/2000/svg" xmlns:xlink="http://www.w3.org/1999/xlink" x="0px" y="0px"
	 width="64px" height="64px" viewBox="0 0 64 64" enable-background="new 0 0 64 64" xml:space="preserve">
<g>
	<path fill="#1F4A87" d="M63.531,49.976c0.268-2.225,0.813-5.995,0.16-8.188c-0.561-1.889-0.703-0.829-4.719-1.161
		c-1.256-0.104-3,0.49-4.252,0.405c-2.605-0.175-3.555,0.338-6.043,0.095c-3.576-0.349-7.365-0.68-10.953-0.509
		c-3.926,0.188-7.687,0.631-11.616,0.509c-3.848-0.118-7.86-0.296-11.709-0.188c-3.945,0.11-7.18-0.929-12.041,0
		c-0.295,0.057-0.537,0.335-0.715,0.702c-0.002,0.138-0.009,0.275-0.013,0.412c0.012,0.033,0.026,0.066,0.021,0.112
		c-0.017,0.146-0.026,0.291-0.039,0.435c-0.022,0.504-0.04,1.006-0.049,1.511c0.095,0.124,0.216,0.209,0.371,0.228
		c0.306,0.037-0.681-0.257-0.371-0.228c-0.144,0.135,0.106,0.739,0.087,0.982c-0.231,2.947-0.338,5.546,0,8.499
		c0.167,1.462-0.295,5.866,0.283,6.044c1.464,0.451,5.257,0.052,6.61,0c3.454-0.129,7.033-0.144,10.482,0
		c6.833,0.284,14.125,0.043,20.963,0c7.16-0.045,14.525,0.534,21.664,0c0.273-0.021-0.303,0.121,0,0c-0.021,0.34,0.01-0.334,0,0
		c-0.006,0.113,0.02,0.211,0.057,0.301c0.006-0.001,0.01-0.006,0.018-0.007c0.641-0.11,1.289-0.086,1.934-0.108
		c0.016-0.058,0.029-0.119,0.029-0.186C63.803,56.456,63.15,53.117,63.531,49.976z M61.236,56.519
		c-11.803-0.472-23.381,0.038-35.222,0c-5.581-0.019-11.326,0.146-16.903,0.236c-1.268,0.021-2.278-0.34-3.541-0.245
		c-0.823,0.061-0.236-1.873-0.236-2.353c0-3.021-0.245-4.173,0-7.271c0.015-0.186-0.023-2.171-0.094-2.294
		c5.743,0.36,11.024-0.386,16.62-0.256c7.167,0.166,13.992,0.061,21.15,0c3.434-0.028,6.189-0.301,8.689,0
		c0.994,0.12,2.219,0,3.211,0c3.021,0,4.299-0.316,6.029,0c1.648,0.302,0.914,5.457,0.676,7.178c-0.152,1.09-0.121,2.015,0.045,3.09
		c0.125,0.799,0.016,1.098-0.006,1.914C61.551,56.481,61.371,56.524,61.236,56.519z"/>
	<g>
		<g>
			<path fill="#FBE950" d="M2.359,25.157c1.235-0.234,2.472-0.205,3.708,0.087c0.133-0.982,0.266-1.964,0.399-2.946
				c-1.129,0.083-2.202-0.158-3.219-0.726c-0.252,0.932-0.504,1.864-0.757,2.795c4.413,0.026,8.705,0.82,13.147,0.748
				c5.096-0.083,10.179-0.33,15.278-0.313c10.489,0.035,21.343,1.582,31.786,0.496c1.904-0.198,1.924-3.2,0-3
				c-9.795,1.019-20.023-0.316-29.858-0.476c-5.115-0.083-10.216,0.087-15.328,0.246c-5.08,0.158-9.985-0.671-15.025-0.701
				c-1.582-0.009-1.928,1.977-0.757,2.795c1.453,1.015,2.99,1.095,4.732,1.135c1.663,0.039,2.088-2.657,0.399-2.946
				c-1.568-0.269-2.906-0.368-4.506-0.195C0.457,22.362,0.437,25.365,2.359,25.157L2.359,25.157z"/>
		</g>
	</g>
	<g>
		<g>
			<path fill="#FBE950" d="M62.842,21.589c-4.178,0.005-8.227,0.656-12.406,0.228c-5.104-0.522-10.105-0.65-15.234-0.712
				c-9.652-0.118-19.234,0.138-28.876,0.343c-1.932,0.041-1.936,3.041,0,3c9.642-0.205,19.224-0.473,28.876-0.343
				c4.469,0.06,8.902-0.013,13.35,0.488c4.865,0.548,9.434,0.002,14.291-0.004C64.777,24.587,64.777,21.587,62.842,21.589
				L62.842,21.589z"/>
		</g>
	</g>
	<g>
		<g>
			<path fill="#FBE950" d="M51.342,24.395c1.836-0.362,3.771-0.368,5.578,0.141c1.865,0.526,2.656-2.369,0.797-2.893
				c-2.334-0.658-4.807-0.608-7.172-0.141C48.648,21.876,49.453,24.768,51.342,24.395L51.342,24.395z"/>
		</g>
	</g>
	<g>
		<g>
			<path fill="#FBE950" d="M61.207,24.814c-0.59,4.877-0.396,9.784-0.619,14.681c-0.088,1.935,2.912,1.927,3,0
				c0.223-4.897,0.029-9.804,0.619-14.681C64.439,22.896,61.436,22.918,61.207,24.814L61.207,24.814z"/>
		</g>
	</g>
	<g>
		<g>
			<path fill="#FBE950" d="M62.396,36.887c-9.777,1.04-19.561,1.607-29.395,1.565c-10.087-0.043-20.098-1.036-30.18-0.147
				c-1.912,0.168-1.928,3.17,0,3c10.068-0.887,20.104,0.005,30.18,0.147c9.82,0.139,19.635-0.527,29.395-1.565
				C64.301,39.685,64.32,36.683,62.396,36.887L62.396,36.887z"/>
		</g>
	</g>
	<g>
		<g>
			<path fill="#FBE950" d="M4.322,39.805c-0.576-5.196,0.166-10.376-0.038-15.581c-0.076-1.928-3.076-1.936-3,0
				c0.204,5.205-0.538,10.385,0.038,15.581C1.532,41.705,4.535,41.727,4.322,39.805L4.322,39.805z"/>
		</g>
	</g>
	<g>
		<g>
			<path fill="#FBE950" d="M3.063,24.408c-0.024,5.104-0.199,10.207-0.095,15.311c0.013,0.623,0.443,1.327,1.101,1.446
				c3.85,0.696,7.541,0.034,11.396-0.324c4.776-0.444,9.681,0.025,14.481-0.209c10.31-0.504,20.722,0.792,30.993-0.134
				c1.91-0.172,1.928-3.174,0-3c-9.689,0.874-19.467-0.476-29.181,0c-4.299,0.21-8.566,0.312-12.873,0.288
				c-4.649-0.025-9.409,1.32-14.02,0.486c0.367,0.482,0.734,0.964,1.101,1.446c-0.104-5.104,0.071-10.207,0.095-15.311
				C6.072,22.473,3.072,22.474,3.063,24.408L3.063,24.408z"/>
		</g>
	</g>
	<g>
		<g>
			<path fill="#FBE950" d="M61.566,24.281c-18.84-0.014-37.676-0.41-56.516-0.424c-1.935-0.001-1.935,2.999,0,3
				c18.84,0.014,37.676,0.41,56.516,0.424C63.502,27.282,63.502,24.282,61.566,24.281L61.566,24.281z"/>
		</g>
	</g>
	<g>
		<g>
			<path fill="#FBE950" d="M61.414,23.671c-18.467,0.968-36.907-0.878-55.372-0.947c-1.935-0.007-1.934,2.993,0,3
				c18.465,0.069,36.905,1.916,55.372,0.947C63.34,26.57,63.35,23.569,61.414,23.671L61.414,23.671z"/>
		</g>
	</g>
	<path fill="#CB0A1D" d="M63.969,20.061c-0.162-0.344-0.225-0.733-0.195-1.116c-0.188-0.475-0.205-1.022-0.047-1.509
		c-0.004-0.001-0.006-0.004-0.01-0.006c0.055-3.071-0.014-6.14-0.025-9.212c0-0.191-0.055-0.347-0.139-0.47
		c0.02-0.136,0.041-0.271,0.059-0.406c0.076-0.03,0.152-0.056,0.229-0.09c0.053-0.025,0.098-0.059,0.139-0.094
		c-0.129-0.427-0.143-0.868-0.021-1.27c-0.043-0.041-0.088-0.079-0.135-0.108c0.004-0.038,0.008-0.074,0.012-0.111
		c0.029-0.254-0.043-0.444-0.168-0.579c-0.018-0.428-0.307-0.852-0.824-0.838c-1.313,0.037-2.631,0.087-3.953,0.138
		c-0.475-0.051-0.951-0.117-1.43-0.185c-2.424,0.276-4.863-0.227-7.262,0.119c-0.402,0.057-0.803,0.037-1.164-0.072
		c-0.613,0.092-1.229,0.185-1.842,0.279c-0.455-0.018-0.91-0.034-1.361-0.061c-1.17-0.07-2.344-0.218-3.516-0.376
		c-0.053,0.005-0.1,0.016-0.152,0.017c-0.264,0.005-0.529,0.017-0.791,0.045c-0.07,0.013-0.402,0.063-0.396,0.062
		c-0.467,0.085-0.932,0.177-1.4,0.249c-0.402,0.061-0.799,0.033-1.158-0.077c-0.027,0-0.051,0.006-0.078,0.005
		c-0.848-0.019-1.709-0.147-2.574-0.262C35.561,4.202,35.336,4.25,35.08,4.25c-0.303,0-0.566-0.059-0.799-0.157
		c-0.838,0.266-1.622,0.324-2.408,0.11c-0.174,0.091-0.294,0.228-0.366,0.383c-3.993-0.292-7.984-0.521-12.009-0.053
		c-0.145,0.018-0.27,0.065-0.376,0.132c-4.019-0.404-8.037-0.718-12.089-0.557C6.861,4.117,6.726,4.174,6.609,4.25H6.095
		C5.969,4.163,5.812,4.108,5.617,4.108C5.152,4.11,4.704,4.146,4.258,4.281c-0.187,0.056-0.326,0.16-0.424,0.288
		c-0.208-0.011-0.416-0.03-0.625-0.036c-0.031,0-0.059,0.005-0.088,0.007C2.625,4.251,1.81,4.486,1.792,5.243
		C1.765,6.45,1.832,7.662,1.924,8.877c-0.187,0.591-0.362,1.178-0.523,1.765c0.022,0.153,0.041,0.309,0.037,0.478
		c-0.008,0.386-0.033,0.774-0.063,1.162c0.128,0.299,0.205,0.642,0.205,1.034v4.745c0,0.383-0.075,0.717-0.197,1.011
		c0.07,0.77,0.129,1.542,0.127,2.318c0,0.113-0.021,0.212-0.033,0.317c0.093,0.113,0.194,0.21,0.312,0.275
		c0.241,0.131,0.506,0.236,0.786,0.323c0.247-0.081,0.505-0.136,0.776-0.136h3.188c0.447,0,0.864,0.129,1.233,0.339
		c0.967-0.085,1.882-0.181,2.634-0.203c4.598-0.132,9.185-0.388,13.786-0.205c9.185,0.365,18.286,0.281,27.479,0.281
		c0.922,0,1.885,0.051,2.865,0.106c0.365-0.238,0.816-0.389,1.367-0.389c0.545,0,0.988,0.149,1.354,0.382
		c0.895-0.019,1.789-0.028,2.682-0.028c0.082,0,0.145,0.031,0.189,0.075c0.033-0.005,0.061,0,0.088,0.005
		c0.836-0.082,1.65-0.227,2.426-0.467c0.018-0.005,0.033-0.013,0.049-0.018c0.09,0.03,0.186,0.051,0.295,0.051
		c0.328,0,0.662-0.002,0.992-0.031C63.951,21.402,63.961,20.733,63.969,20.061z M61.469,12.352c0.053,0.242,0.07,0.501,0.029,0.783
		c-0.031,0.195-0.043,0.4-0.047,0.612c0.045,0.238,0.047,0.48,0.012,0.721c0.041,0.861,0.117,1.772-0.057,2.58
		c0.002,0.006,0.008,0.01,0.01,0.018c0.064,0.211,0.084,0.423,0.068,0.631c0.063,0.372,0.084,0.773-0.006,1.134
		c0.008,0.025,0.02,0.05,0.02,0.081c0,0.193,0.008,0.374,0.059,0.562c0.088,0.312-0.328,0.463-0.494,0.251
		c-0.113,0.029-0.23,0.053-0.34,0.097c-0.066,0.027-0.123,0.021-0.172,0.005c-0.695,0.265-1.523,0.196-2.24,0.147
		c-0.158-0.012-0.242-0.124-0.264-0.245c-0.305,0.031-0.621,0.044-0.955,0.034c-0.482-0.014-0.967-0.034-1.451-0.055
		c-0.131,0.041-0.26,0.081-0.406,0.104c-3.357,0.51-6.848-0.468-10.127,0.354c-0.824,0.207-1.521,0.031-2.055-0.354
		c-0.104,0.108-0.182,0.237-0.227,0.377c-0.01,0-0.018-0.003-0.027-0.003c-2.385-0.01-4.77-0.131-7.152-0.141
		c-0.234-0.002-0.412,0.077-0.547,0.198c-2.486-0.078-4.968-0.215-7.447-0.441c-0.272-0.026-0.542-0.043-0.813-0.063
		c-0.001,0.001-0.004,0.001-0.006,0.002c-2.54,0.757-5.025,0.271-7.556-0.028c-0.869,0.058-1.736,0.125-2.612,0.119
		c-0.292-0.001-0.548-0.055-0.789-0.129c-1.311,0.058-2.629,0.126-3.958,0.189c-1.321,0.062-2.647,0.034-3.967-0.056
		c-0.251-0.017-0.689-0.042-1.163-0.099c-0.013,0.005-0.02,0.012-0.034,0.014c-0.307,0.058-0.64,0.06-0.901-0.063
		c-0.2,0.139-0.544-0.005-0.438-0.285c0.019-0.052,0.026-0.107,0.042-0.159c-0.005-0.016-0.013-0.028-0.02-0.044
		c-0.159-0.523-0.039-1.097-0.034-1.633c0.001-0.1,0.046-0.17,0.108-0.215c-0.056-0.062-0.115-0.122-0.182-0.173
		c0.331-2.088,0.18-4.161,0.145-6.269c-0.003-0.181-0.056-0.335-0.142-0.459V7.92c5.04-0.028,10.086-0.136,15.131-0.222
		c2.4,0.233,4.798,0.447,7.185,0.471c2.411,0.025,4.786-0.291,7.173-0.53c0.752,0.011,1.504,0.018,2.256,0.036
		c1.451,0.034,2.857,0.182,4.252,0.354c0.268-0.149,0.588-0.242,0.975-0.236c1.596,0.021,3.203,0.153,4.811,0.268
		c2.127-0.033,4.25-0.118,6.379-0.126c0.232-0.001,0.436,0.04,0.627,0.099c0.088-0.012,0.176-0.016,0.262-0.029
		c0.32-0.048,0.615-0.026,0.885,0.048c1.336-0.103,2.674-0.157,4.027-0.139c0.875,0.011,1.725,0.005,2.555-0.109
		c-0.17,1.181-0.338,2.362-0.461,3.54C61.498,11.666,61.516,12.015,61.469,12.352z"/>
	<g>
		<path d="M6.438,8.79c0.566,3.589-0.962,7.308-0.584,10.897c8.121-0.189,17.856-0.797,26.167-0.607
			c8.688,0.189,14.795,0.605,28.273,0.232c1.953-0.054-0.596-5.89,0.475-10.47C42.447,8.086,25.019,8.961,6.438,8.79L6.438,8.79"/>
		<g>
			<path d="M4.938,8.79c0.299,3.67-0.719,7.227-0.584,10.897c0.029,0.8,0.66,1.522,1.5,1.5c12.667-0.332,25.228-0.574,37.897-0.292
				c2.678,0.06,5.355,0.071,8.035,0.063c2.775-0.008,6.781,0.646,9.365-0.382c3.063-1.219,0.693-8.972,1.063-11.334
				c0.154-0.978-0.393-1.859-1.445-1.899C42.66,6.65,24.549,7.421,6.438,7.29c-1.935-0.014-1.934,2.986,0,3
				c18.112,0.131,36.223-0.64,54.33,0.052c-0.482-0.633-0.965-1.266-1.447-1.899c-0.322,2.06-0.33,3.964-0.119,6.047
				c0.113,1.139,0.283,2.259,0.354,3.402c-0.008-0.121-4.303,0.029-4.617,0.035c-4.908,0.083-9.816,0.014-14.723-0.12
				c-11.483-0.313-22.882,0.08-34.362,0.38c0.5,0.5,1,1,1.5,1.5c-0.135-3.675,0.884-7.22,0.584-10.897
				C7.781,6.876,4.78,6.861,4.938,8.79L4.938,8.79z"/>
		</g>
	</g>
	<g>
		<path d="M6.322,27.05c0.567,3.588-0.961,7.308-0.583,10.896c8.122-0.188,17.857-0.795,26.167-0.606
			c8.687,0.189,14.794,0.605,28.272,0.232c1.951-0.054-0.594-5.889,0.477-10.47C42.334,26.346,24.904,27.22,6.322,27.05L6.322,27.05
			"/>
		<g>
			<path d="M4.822,27.05c0.3,3.669-0.719,7.226-0.583,10.896c0.029,0.801,0.66,1.521,1.5,1.5
				c12.667-0.329,25.228-0.572,37.896-0.291c2.678,0.06,5.357,0.07,8.035,0.063c2.775-0.008,6.783,0.646,9.365-0.382
				c3.061-1.218,0.695-8.973,1.066-11.335c0.154-0.978-0.393-1.859-1.447-1.899c-18.107-0.691-36.219,0.08-54.332-0.051
				c-1.935-0.014-1.934,2.986,0,3c18.113,0.131,36.225-0.64,54.332,0.051c-0.482-0.633-0.963-1.266-1.445-1.899
				c-0.324,2.06-0.332,3.964-0.123,6.048c0.115,1.139,0.283,2.259,0.354,3.402c-0.008-0.122-4.301,0.028-4.615,0.033
				c-4.908,0.083-9.816,0.015-14.723-0.119c-11.484-0.313-22.883,0.08-34.363,0.379c0.5,0.5,1,1,1.5,1.5
				c-0.135-3.674,0.884-7.218,0.583-10.896C7.666,25.136,4.665,25.121,4.822,27.05L4.822,27.05z"/>
		</g>
	</g>
	<g>
		<path d="M6.322,44.923c0.567,3.589-0.961,7.309-0.583,10.896c8.122-0.188,17.857-0.795,26.167-0.606
			c8.687,0.188,14.794,0.604,28.272,0.232c1.951-0.054-0.594-5.891,0.477-10.471C42.334,44.22,24.904,45.094,6.322,44.923
			L6.322,44.923"/>
		<g>
			<path d="M4.822,44.923c0.3,3.67-0.719,7.226-0.583,10.896c0.029,0.801,0.66,1.521,1.5,1.5c12.667-0.33,25.228-0.573,37.896-0.292
				c2.678,0.06,5.357,0.071,8.035,0.063c2.775-0.008,6.783,0.646,9.365-0.382c3.061-1.219,0.695-8.973,1.066-11.336
				c0.154-0.977-0.393-1.858-1.447-1.898c-18.107-0.69-36.219,0.08-54.332-0.052c-1.935-0.014-1.934,2.986,0,3
				c18.113,0.132,36.225-0.639,54.332,0.052c-0.482-0.633-0.963-1.266-1.445-1.898c-0.324,2.06-0.332,3.964-0.123,6.047
				c0.115,1.14,0.283,2.259,0.354,3.402c-0.008-0.121-4.301,0.029-4.615,0.034c-4.908,0.082-9.816,0.014-14.723-0.12
				c-11.484-0.313-22.883,0.08-34.363,0.38c0.5,0.5,1,1,1.5,1.5c-0.135-3.675,0.884-7.219,0.583-10.896
				C7.666,43.009,4.665,42.993,4.822,44.923L4.822,44.923z"/>
		</g>
	</g>
	<path d="M6.574,9.438c0.574-0.413,0.413-1.553-0.485-1.553c-0.851,0-1.038,1.021-0.57,1.479c-0.218,0.13-0.375,0.36-0.375,0.692
		v1.039c0,1.096,1.7,1.096,1.7,0v-1.039C6.845,9.782,6.736,9.576,6.574,9.438z"/>
	<path d="M61.449,28.798c0.311-0.326,0.307-0.905-0.008-1.226c0.016-0.129,0.031-0.258,0.051-0.385
		c0.146-1.071-1.49-1.533-1.641-0.451c-0.23,1.65-0.414,3.348,0,4.984c0.205,0.807,1.439,0.818,1.641,0
		c0.156-0.656,0.215-1.328,0.375-1.984C61.975,29.298,61.758,28.967,61.449,28.798z"/>
	<path d="M60.67,36.782c-1.094,0-1.094,1.7,0,1.7C61.768,38.482,61.768,36.782,60.67,36.782z"/>
	<path d="M60.764,45.092c-0.516,0-0.783,0.378-0.814,0.776c-0.078,0.121-0.129,0.27-0.129,0.452v3.399c0,1.097,1.701,1.097,1.701,0
		V46.32c0-0.01-0.002-0.018-0.002-0.026C61.717,45.793,61.469,45.092,60.764,45.092z"/>
	<path d="M61.049,54.914c-1.098,0-1.098,1.699,0,1.699C62.145,56.613,62.145,54.914,61.049,54.914z"/>
	<text transform="matrix(2.1102 0 0 1 8.7329 17.9668)" fill="#FFFFFF" font-family="'MyriadPro-Regular'" font-size="13.0323">BAR</text>
	<text transform="matrix(2.1102 0 0 1 8.7329 36.2393)" fill="#FFFFFF" font-family="'MyriadPro-Regular'" font-size="13.0323">BAR</text>
	<text transform="matrix(2.1102 0 0 1 8.7329 54.0879)" fill="#FFFFFF" font-family="'MyriadPro-Regular'" font-size="13.0323">BAR</text>
</g>
<line stroke="#191616" x1="1.651" y1="4.392" x2="1.651" y2="59.635"/>
<line fill="none" stroke="#191616" x1="1.651" y1="4.392" x2="63.691" y2="4.392"/>
<line fill="none" stroke="#191616" x1="63.691" y1="4.392" x2="63.691" y2="59.635"/>
<line fill="none" stroke="#000000" x1="63.691" y1="59.635" x2="1.651" y2="59.635"/>
<line fill="none" stroke="#000000" x1="1.651" y1="40.938" x2="63.975" y2="40.938"/>
<line fill="none" stroke="#000000" x1="1.651" y1="22.24" x2="63.408" y2="22.24"/>
<line fill="none" stroke="#191616" x1="5.333" y1="7.792" x2="5.333" y2="19.974"/>
<line fill="none" stroke="#191616" x1="5.333" y1="19.974" x2="61.709" y2="19.974"/>
<line fill="none" stroke="#191616" x1="61.709" y1="19.974" x2="61.709" y2="7.792"/>
<line fill="none" stroke="#191616" x1="61.709" y1="7.792" x2="5.333" y2="7.792"/>
<line fill="none" stroke="#000000" x1="5.333" y1="25.923" x2="5.333" y2="38.387"/>
<line fill="none" stroke="#000000" x1="5.333" y1="44.337" x2="5.333" y2="56.519"/>
<line fill="none" stroke="#000000" x1="61.709" y1="26.205" x2="61.709" y2="38.387"/>
<line fill="none" stroke="#000000" x1="61.709" y1="44.337" x2="61.709" y2="56.519"/>
<line fill="none" stroke="#000000" x1="61.709" y1="38.387" x2="5.333" y2="38.387"/>
<line fill="none" stroke="#000000" x1="61.709" y1="26.205" x2="5.333" y2="26.205"/>
<line fill="none" stroke="#000000" x1="61.709" y1="44.337" x2="5.333" y2="44.337"/>
<line fill="none" stroke="#000000" x1="61.709" y1="56.519" x2="5.333" y2="56.519"/>
</svg>
