<?xml version="1.0" encoding="utf-8"?>
<!-- Generator: Adobe Illustrator 14.0.0, SVG Export Plug-In . SVG Version: 6.00 Build 43363)  -->
<!DOCTYPE svg PUBLIC "-//W3C//DTD SVG 1.1//EN" "http://www.w3.org/Graphics/SVG/1.1/DTD/svg11.dtd">
<svg version="1.1" id="Capa_1" xmlns="http://www.w3.org/2000/svg" xmlns:xlink="http://www.w3.org/1999/xlink" x="0px" y="0px"
	 width="64px" height="64px" viewBox="0 0 64 64" enable-background="new 0 0 64 64" xml:space="preserve">
<g>
	<g>
		<path fill="#CB0A1D" d="M23.552,35.543c1.085-2.716,0.679-7.059-0.814-9.637c-2.171-3.529-5.736-3.878-9.636-4.479
			c-8.006-1.234-10.449,7.871-8.414,14.25c1.222,3.392,3.24,6.497,6.769,5.954c-3.801,6.65-1.476,14.538,6.938,15.083
			c2.271,0.144,4.75,0.678,7.058,0.133c4.343-0.948,5.021-4.342,7.736-7.056c1.222,3.122,6.514,4.07,9.228,2.034
			c2.851-2.034,4.75-6.92,5.021-10.18c0.543-7.598-7.6-10.99-13.978-9.091c-2.579,0.815-6.107,2.306-6.243,5.43
			c-1.086-0.678-2.443-0.814-3.529-1.359"/>
		<g>
			<path fill="#CB0A1D" d="M24.999,35.941c1.581-5.283,0.303-11.078-4.479-14.14c-3.788-2.425-10.46-2.906-14.13-0.156
				c-6.782,5.082-4.684,21.792,5.067,21.487c-0.432-0.752-0.863-1.505-1.295-2.257c-3.034,5.884-2.655,13.02,3.777,16.29
				c3.026,1.539,8.769,2.088,11.913,1.129c4.208-1.283,5.611-4.361,8.397-7.441c-0.785-0.102-1.57-0.202-2.356-0.304
				c6.216,11.229,19.35-2.88,16.838-11.807c-1.432-5.091-5.575-7.53-10.612-8.162c-4.692-0.59-11.414,1.918-12.349,7.007
				c0.734-0.299,1.469-0.598,2.203-0.896c-1.279-0.59-2.572-1.006-3.887-1.511c-1.809-0.695-2.584,2.207-0.798,2.893
				c1.055,0.407,2.112,0.81,3.171,1.208c0.805,0.371,2.014,0.136,2.203-0.896c1.216-6.617,11.909-5.424,15.502-2.102
				c6.451,5.962-5.02,21.174-9.682,12.753c-0.452-0.818-1.712-1.015-2.355-0.304c-1.32,1.459-2.381,3.088-3.617,4.616
				c-2.472,3.058-6.748,2.174-10.116,1.867c-7.127-0.648-8.496-7.293-5.643-12.826c0.5-0.97-0.104-2.294-1.295-2.257
				C4.321,40.354,4.52,28.564,7.524,24.681c2.241-2.896,6.377-1.71,9.369-1.057c5.365,1.171,6.585,6.93,5.213,11.52
				C21.55,37.002,24.446,37.79,24.999,35.941L24.999,35.941z"/>
		</g>
	</g>
	<g>
		<path fill="#A3131C" d="M16.767,57.256c3.121,0.271,12.214-6.921,12.622-9.771c0,2.986,0.542,7.194-2.443,9.23
			c-2.036,1.357-6.515,1.627-8.822,0.813"/>
		<g>
			<path fill="#A3131C" d="M16.767,58.756c2.959,0.056,5.953-2.253,8.156-3.974c2.161-1.688,5.285-4.037,5.912-6.899
				c-0.982-0.133-1.964-0.266-2.946-0.398c0.022,2.391,0.345,4.969-0.904,7.121c-1.4,2.414-6.228,2.146-8.461,1.476
				c-1.858-0.558-2.646,2.338-0.798,2.893c3.074,0.924,7.64,0.869,10.281-1.198c3.21-2.512,2.917-6.616,2.882-10.291
				c-0.016-1.66-2.577-2.087-2.946-0.398c-0.46,2.099-3.113,3.947-4.676,5.212c-1.627,1.316-4.272,3.5-6.5,3.458
				C14.831,55.72,14.834,58.72,16.767,58.756L16.767,58.756z"/>
		</g>
	</g>
	<g>
		<path fill="#A3131C" d="M33.324,50.877c2.713,0,6.514-4.479,8.549-6.243c2.85-2.172,4.479-3.665,5.564-7.191
			c1.087,7.057-4.886,19.677-13.706,13.706"/>
		<g>
			<path fill="#A3131C" d="M33.324,52.377c3.63-0.354,6.303-3.521,8.77-5.907c2.914-2.82,5.447-4.612,6.79-8.629
				c-0.982-0.133-1.964-0.266-2.946-0.398c0.795,6.244-3.74,17.276-11.449,12.411c-1.641-1.036-3.145,1.561-1.514,2.59
				c9.719,6.134,17.071-6.298,15.963-15.001c-0.208-1.637-2.379-2.095-2.946-0.398c-1.081,3.232-3.153,4.709-5.58,6.89
				c-1.932,1.736-4.319,5.174-7.087,5.443C31.417,49.563,31.399,52.564,33.324,52.377L33.324,52.377z"/>
		</g>
	</g>
	<g>
		<path fill="#A3131C" d="M12.56,39.341c1.628-2.307,3.935-3.663,6.107-5.427c2.579-1.901,2.85-3.937,4.614-6.108
			c0.543,2.442,0.867,4.762-0.271,7.331c-3.122,1.354-6.65,0.949-9.5,3.118"/>
		<g>
			<path fill="#A3131C" d="M13.855,40.098c1.746-2.301,4.295-3.854,6.521-5.645c1.893-1.522,2.763-3.997,4.2-5.89
				c-0.914-0.12-1.828-0.239-2.742-0.358c0.491,2.306,0.602,4.303-0.271,6.533c0.349-0.35,0.698-0.699,1.047-1.048
				c-3.28,1.287-6.875,1.217-9.858,3.27c-1.583,1.088-0.085,3.689,1.514,2.59c2.894-1.99,6.563-1.396,9.5-3.118
				c1.033-0.604,1.29-2.488,1.406-3.55c0.205-1.868-0.057-3.646-0.446-5.475c-0.3-1.411-2.033-1.292-2.742-0.358
				c-1.797,2.369-2.833,4.634-5.269,6.5c-2.01,1.538-3.91,3.003-5.452,5.035C10.094,40.126,12.701,41.617,13.855,40.098
				L13.855,40.098z"/>
		</g>
	</g>
	<g>
		<path fill="#FFFFFF" d="M12.288,24.549c-3.122,0.814-5.836,3.257-6.921,6.378c-0.407-4.07,2.579-6.92,6.649-6.514"/>
		<g>
			<path fill="#FFFFFF" d="M11.989,23.464c-3.614,1.026-6.4,3.655-7.708,7.164c0.737,0.1,1.473,0.199,2.21,0.299
				c-0.259-3.457,2.113-5.647,5.524-5.389c1.448,0.11,1.438-2.141,0-2.25c-4.567-0.346-8.12,3.026-7.774,7.639
				c0.097,1.294,1.763,1.497,2.21,0.299c1.027-2.757,3.32-4.792,6.135-5.592C13.98,25.238,13.388,23.067,11.989,23.464
				L11.989,23.464z"/>
		</g>
	</g>
	<g>
		<path fill="#FFFFFF" d="M13.373,47.484c-1.899-4.208,3.258-9.771,7.601-8.008c-2.85,2.037-7.058,3.392-7.329,7.736"/>
		<g>
			<path fill="#FFFFFF" d="M14.096,47.285c-1.553-3.864,2.691-8.512,6.678-7.085c-0.06-0.457-0.12-0.914-0.179-1.371
				c-3.316,2.308-7.266,3.833-7.701,8.384c-0.092,0.963,1.409,0.954,1.5,0c0.365-3.821,4.21-5.177,6.958-7.089
				c0.547-0.381,0.452-1.145-0.179-1.371c-4.995-1.787-10.492,4.03-8.523,8.931C13.006,48.569,14.457,48.184,14.096,47.285
				L14.096,47.285z"/>
		</g>
	</g>
	<g>
		<path fill="#FFFFFF" d="M28.438,36.491c2.171-1.222,5.972-5.564,8.55-2.985c-2.037,1.086-6.243,2.443-7.328,4.616
			c-0.408-0.271-0.951-0.814-1.222-1.357"/>
		<g>
			<path fill="#FFFFFF" d="M28.816,37.139c1.896-1.135,5.343-5.133,7.642-3.103c0.051-0.393,0.102-0.785,0.151-1.178
				c-2.58,1.328-6.052,2.205-7.597,4.885c0.342-0.089,0.684-0.179,1.026-0.269c-0.399-0.291-0.716-0.653-0.953-1.089
				c-0.506-0.821-1.804-0.068-1.295,0.758c0.404,0.656,0.882,1.156,1.491,1.626c0.323,0.249,0.841,0.052,1.026-0.269
				c1.361-2.361,4.776-3.173,7.06-4.348c0.414-0.213,0.503-0.867,0.151-1.178c-3.265-2.884-6.732,1.235-9.459,2.868
				C27.23,36.34,27.984,37.637,28.816,37.139L28.816,37.139z"/>
		</g>
	</g>
	<g>
		<path fill="#8E5A19" d="M23.959,24.142c1.493,3.122,1.085,4.071,4.207,2.171c2.036-1.222,4.072-2.307,5.971-3.665
			c-0.949,2.715-1.628,5.836-2.714,8.414c3.665-0.814,5.93,0.272,5.565-4.613c-0.313-4.198,1.492-8.144-2.443-10.722
			c-2.579,4.614-5.292,6.65-10.178,8.143"/>
		<g>
			<path fill="#8E5A19" d="M23.312,24.52c0.411,0.898,1.079,3.682,2.588,3.518c2.958-0.322,6.239-3.113,8.617-4.742
				c-0.368-0.282-0.735-0.564-1.103-0.847c-0.936,2.797-1.626,5.668-2.714,8.414c-0.229,0.578,0.424,1.021,0.922,0.923
				c3.292-0.646,5.996-0.395,6.154-4.437c0.172-4.371,1.05-9.349-2.853-12.27c-0.327-0.245-0.839-0.055-1.026,0.269
				c-2.342,4.04-5.29,6.374-9.73,7.798c-0.917,0.294-0.525,1.743,0.398,1.446c4.799-1.54,8.092-4.116,10.626-8.488
				c-0.342,0.09-0.684,0.18-1.026,0.269c3.093,2.315,2.059,5.926,2.035,9.239c-0.01,1.501,0.564,3.604-1.33,4.157
				c-1.151,0.336-2.463,0.337-3.647,0.568c0.307,0.308,0.615,0.615,0.922,0.923c1.088-2.745,1.779-5.617,2.715-8.414
				c0.202-0.606-0.564-1.216-1.102-0.847c-1.932,1.323-3.958,2.474-5.972,3.665c-2.266,1.339-2.356-0.097-3.181-1.902
				C24.206,22.884,22.913,23.647,23.312,24.52L23.312,24.52z"/>
		</g>
	</g>
	<g>
		<path fill="#8E5A19" d="M39.975,21.699c0,2.714-1.358,9.636,2.306,9.636c0.407-3.394,2.851-9.907-2.306-10.043"/>
		<g>
			<path fill="#8E5A19" d="M39.225,21.699c-0.045,3.004-1.636,10.083,3.056,10.386c0.447,0.029,0.698-0.366,0.75-0.75
				c0.502-3.74,2.792-10.398-3.056-10.793c-0.966-0.065-0.96,1.435,0,1.5c4.303,0.291,1.907,6.669,1.556,9.293
				c0.25-0.25,0.5-0.5,0.75-0.75c-2.992-0.193-1.585-6.971-1.556-8.886C40.739,20.731,39.239,20.732,39.225,21.699L39.225,21.699z"
				/>
		</g>
	</g>
	<g>
		<path fill="#4E9B2A" d="M36.174,7.178c4.479,0.136,9.364,5.699,12.893,7.87c2.035,1.357,4.886,4.207,6.65,5.836
			c1.764,1.629,3.344,1.861,4.972,3.49c-3.527,1.629-11.894-1.59-15.422-2.675c-6.107-1.765-10.379-7.329-9.229-13.165"/>
		<g>
			<path fill="#4E9B2A" d="M36.174,8.678c4.794,0.604,8.302,5.101,12.136,7.665c2.022,1.353,3.768,3.171,5.529,4.836
				c1.79,1.692,3.9,2.696,5.789,4.255c0.221-0.835,0.441-1.671,0.662-2.507c-3.996,1.341-9.027-0.848-12.845-2.1
				c-5.861-1.923-10.779-5.449-9.908-12.293c0.244-1.916-2.759-1.892-3,0c-0.783,6.148,3.042,12.104,8.955,14.138
				c5.198,1.788,12.062,5.006,17.595,3.148c0.974-0.327,1.592-1.74,0.662-2.507c-2.189-1.807-4.632-3.161-6.706-5.122
				c-1.939-1.834-3.909-3.562-6.129-5.047c-4.23-2.83-7.421-6.796-12.74-7.466C34.258,5.437,34.281,8.44,36.174,8.678L36.174,8.678z
				"/>
		</g>
	</g>
	<g>
		<path fill="#7CB623" d="M35.767,6.499c4.886-0.814,10.042-1.764,13.842,2.171c2.036,2.036,3.123,4.479,4.615,6.921
			c1.493,2.171,3.394,4.072,4.343,6.514c-1.764-0.542-3.665-2.851-5.292-3.936c-1.9-1.222-3.666-2.307-5.429-3.665
			c-2.986-2.17-7.465-6.921-10.857-7.871"/>
		<g>
			<path fill="#7CB623" d="M36.165,7.945c6.196-1.026,10.918-1.021,14.66,4.79c2.118,3.29,4.803,6.587,6.446,10.127
				c0.684-0.684,1.368-1.368,2.052-2.052c-1.996-0.956-3.546-2.592-5.292-3.936c-2.225-1.712-4.702-3.034-6.887-4.831
				c-3.091-2.543-5.933-5.453-9.758-6.855c-1.82-0.668-2.598,2.232-0.797,2.893c3.779,1.387,6.521,4.672,9.649,7.069
				c2.023,1.551,4.132,2.942,6.278,4.316c1.927,1.233,3.202,2.934,5.292,3.936c1.399,0.67,2.695-0.667,2.052-2.052
				c-1.317-2.838-3.483-5.056-5.062-7.733c-1.527-2.593-2.94-4.941-5.199-6.962c-3.842-3.436-9.66-2.358-14.232-1.601
				C33.463,5.368,34.273,8.259,36.165,7.945L36.165,7.945z"/>
		</g>
	</g>
	<g>
		<g>
			<path d="M25.949,35.668c1.392-5.896,0.792-11.264-4.499-14.965c-3.852-2.694-12.658-3.281-16.253,0.171
				c-6.139,5.895-4.758,21.057,4.521,23.171c1.884,0.43,2.684-2.463,0.798-2.893c-6.703-1.527-7.181-11.949-4.346-16.836
				c2.078-3.583,8.03-2.836,11.359-2.027c6.123,1.486,6.729,7.49,5.528,12.583C22.612,36.752,25.505,37.551,25.949,35.668
				L25.949,35.668z"/>
		</g>
	</g>
	<g>
		<g>
			<path d="M30.991,37.333c-5.088-4.676-13.165-2.238-18.137,1.358c-6.219,4.498-7.492,11.774-1.997,17.406
				C23.019,68.563,45.188,49.32,30.991,37.333c-1.468-1.24-3.602,0.871-2.121,2.121c4.864,4.107,4.784,9.756,0.373,14.18
				c-4.625,4.639-11.53,4.702-16.265,0.343c-9.334-8.596,8.517-21.301,15.892-14.522C30.292,40.761,32.418,38.645,30.991,37.333
				L30.991,37.333z"/>
		</g>
	</g>
	<g>
		<g>
			<path d="M28.241,36.3c4.565-6.404,15.495-4.82,18.429,2.354c2.991,7.312-5.945,16.827-12.997,12.151
				c-1.617-1.073-3.118,1.526-1.514,2.59c9.832,6.521,20.092-5.806,17.403-15.538c-2.876-10.413-18.296-10.949-23.913-3.07
				C24.524,36.365,27.128,37.86,28.241,36.3L28.241,36.3z"/>
		</g>
	</g>
	<g>
		<g>
			<path d="M21.932,24.502c6.841,1.556,11.043-4.258,14.251-9.375c1.031-1.645-1.565-3.149-2.591-1.515
				c-2.376,3.791-5.612,9.192-10.862,7.998C20.846,21.181,20.046,24.074,21.932,24.502L21.932,24.502z"/>
		</g>
	</g>
	<g>
		<g>
			<path d="M25.173,29.931c5.54-1.129,9.481-5.865,12.296-10.46c1.014-1.655-1.582-3.161-2.59-1.515
				c-2.424,3.957-5.722,8.107-10.504,9.082C22.48,27.424,23.284,30.315,25.173,29.931L25.173,29.931z"/>
		</g>
	</g>
	<g>
		<g>
			<path d="M31.226,33.325c1.606-3.316,2.702-6.869,3.68-10.413c0.516-1.868-2.379-2.66-2.893-0.798
				c-0.908,3.288-1.888,6.619-3.378,9.697C27.796,33.544,30.383,35.066,31.226,33.325L31.226,33.325z"/>
		</g>
	</g>
	<g>
		<g>
			<path d="M38.76,30.387c-0.07-3.479-0.874-6.852,0.487-10.189c0.731-1.792-2.172-2.564-2.893-0.798
				c-1.471,3.606-0.671,7.229-0.595,10.987C35.799,32.318,38.799,32.322,38.76,30.387L38.76,30.387z"/>
		</g>
	</g>
	<g>
		<g>
			<path d="M41.202,30.387c0.256-3.168-0.237-6.335-0.271-9.502c-0.021-1.934-3.021-1.936-3,0c0.034,3.167,0.527,6.334,0.271,9.502
				C38.046,32.316,41.047,32.301,41.202,30.387L41.202,30.387z"/>
		</g>
	</g>
	<g>
		<g>
			<path d="M44.188,31.47c0.257-2.493,0.301-5.003,0.76-7.472c0.352-1.891-2.539-2.698-2.893-0.798
				c-0.509,2.737-0.583,5.507-0.867,8.27C40.989,33.394,43.991,33.374,44.188,31.47L44.188,31.47z"/>
		</g>
	</g>
	<g>
		<g>
			<path d="M33.913,6.372c-5.221,16.314,15.296,20.546,27.232,20.355c1.933-0.031,1.936-3.031,0-3
				c-9.823,0.157-28.831-2.523-24.34-16.558C37.397,5.321,34.5,4.537,33.913,6.372L33.913,6.372z"/>
		</g>
	</g>
	<g>
		<g>
			<path d="M35.845,8.066c13.072-7.568,19.101,8.736,24.006,17.918c0.911,1.707,3.501,0.191,2.59-1.515
				C56.594,13.526,49.346-3.218,34.331,5.475C32.658,6.444,34.168,9.037,35.845,8.066L35.845,8.066z"/>
		</g>
	</g>
</g>
</svg>
