<?xml version="1.0" encoding="UTF-8" standalone="no"?>
<!-- Generator: Adobe Illustrator 14.0.0, SVG Export Plug-In . SVG Version: 6.00 Build 43363)  -->
<svg
   xmlns:dc="http://purl.org/dc/elements/1.1/"
   xmlns:cc="http://creativecommons.org/ns#"
   xmlns:rdf="http://www.w3.org/1999/02/22-rdf-syntax-ns#"
   xmlns:svg="http://www.w3.org/2000/svg"
   xmlns="http://www.w3.org/2000/svg"
   xmlns:sodipodi="http://sodipodi.sourceforge.net/DTD/sodipodi-0.dtd"
   xmlns:inkscape="http://www.inkscape.org/namespaces/inkscape"
   version="1.0"
   id="Capa_1"
   x="0px"
   y="0px"
   width="32"
   height="32"
   viewBox="0 0 64 64"
   enable-background="new 0 0 64 64"
   xml:space="preserve"
   sodipodi:version="0.32"
   inkscape:version="0.46"
   sodipodi:docname="sym_small_cherry.svg"
   inkscape:output_extension="org.inkscape.output.svg.inkscape"><metadata
   id="metadata162"><rdf:RDF><cc:Work
       rdf:about=""><dc:format>image/svg+xml</dc:format><dc:type
         rdf:resource="http://purl.org/dc/dcmitype/StillImage" /></cc:Work></rdf:RDF></metadata><defs
   id="defs160"><inkscape:perspective
     sodipodi:type="inkscape:persp3d"
     inkscape:vp_x="0 : 32 : 1"
     inkscape:vp_y="0 : 1000 : 0"
     inkscape:vp_z="64 : 32 : 1"
     inkscape:persp3d-origin="32 : 21.333333 : 1"
     id="perspective164" /></defs><sodipodi:namedview
   inkscape:window-height="676"
   inkscape:window-width="640"
   inkscape:pageshadow="2"
   inkscape:pageopacity="0.0"
   guidetolerance="10.0"
   gridtolerance="10.0"
   objecttolerance="10.0"
   borderopacity="1.0"
   bordercolor="#666666"
   pagecolor="#ffffff"
   id="base"
   showgrid="false"
   inkscape:zoom="7.46875"
   inkscape:cx="32"
   inkscape:cy="32"
   inkscape:window-x="70"
   inkscape:window-y="0"
   inkscape:current-layer="Capa_1" />
<g
   id="g3">
	<g
   id="g5">
		<path
   d="M 23.552,35.543 C 24.637,32.827 24.231,28.484 22.738,25.906 C 20.567,22.377 17.002,22.028 13.102,21.427 C 5.096,20.193 2.653,29.298 4.688,35.677 C 5.91,39.069 7.928,42.174 11.457,41.631 C 7.656,48.281 9.981,56.169 18.395,56.714 C 20.666,56.858 23.145,57.392 25.453,56.847 C 29.796,55.899 30.474,52.505 33.189,49.791 C 34.411,52.913 39.703,53.861 42.417,51.825 C 45.268,49.791 47.167,44.905 47.438,41.645 C 47.981,34.047 39.838,30.655 33.46,32.554 C 30.881,33.369 27.353,34.86 27.217,37.984 C 26.131,37.306 24.774,37.17 23.688,36.625"
   id="path7"
   style="fill:#cb0a1d" />
		<g
   id="g9">
			<path
   d="M 24.999,35.941 C 26.58,30.658 25.302,24.863 20.52,21.801 C 16.732,19.376 10.06,18.895 6.39,21.645 C -0.392,26.727 1.706,43.437 11.457,43.132 C 11.025,42.38 10.594,41.627 10.162,40.875 C 7.128,46.759 7.507,53.895 13.939,57.165 C 16.965,58.704 22.708,59.253 25.852,58.294 C 30.06,57.011 31.463,53.933 34.249,50.853 C 33.464,50.751 32.679,50.651 31.893,50.549 C 38.109,61.778 51.243,47.669 48.731,38.742 C 47.299,33.651 43.156,31.212 38.119,30.58 C 33.427,29.99 26.705,32.498 25.77,37.587 C 26.504,37.288 27.239,36.989 27.973,36.691 C 26.694,36.101 25.401,35.685 24.086,35.18 C 22.277,34.485 21.502,37.387 23.288,38.073 C 24.343,38.48 25.4,38.883 26.459,39.281 C 27.264,39.652 28.473,39.417 28.662,38.385 C 29.878,31.768 40.571,32.961 44.164,36.283 C 50.615,42.245 39.144,57.457 34.482,49.036 C 34.03,48.218 32.77,48.021 32.127,48.732 C 30.807,50.191 29.746,51.82 28.51,53.348 C 26.038,56.406 21.762,55.522 18.394,55.215 C 11.267,54.567 9.898,47.922 12.751,42.389 C 13.251,41.419 12.647,40.095 11.456,40.132 C 4.321,40.354 4.52,28.564 7.524,24.681 C 9.765,21.785 13.901,22.971 16.893,23.624 C 22.258,24.795 23.478,30.554 22.106,35.144 C 21.55,37.002 24.446,37.79 24.999,35.941 L 24.999,35.941 z"
   id="path11"
   style="fill:#cb0a1d" />
		</g>
	</g>
	<g
   id="g13">
		<path
   d="M 16.767,57.256 C 19.888,57.527 28.981,50.335 29.389,47.485 C 29.389,50.471 29.931,54.679 26.946,56.715 C 24.91,58.072 20.431,58.342 18.124,57.528"
   id="path15"
   style="fill:#a3131c" />
		<g
   id="g17">
			<path
   d="M 16.767,58.756 C 19.726,58.812 22.72,56.503 24.923,54.782 C 27.084,53.094 30.208,50.745 30.835,47.883 C 29.853,47.75 28.871,47.617 27.889,47.485 C 27.911,49.876 28.234,52.454 26.985,54.606 C 25.585,57.02 20.757,56.752 18.524,56.082 C 16.666,55.524 15.878,58.42 17.726,58.975 C 20.8,59.899 25.366,59.844 28.007,57.777 C 31.217,55.265 30.924,51.161 30.889,47.486 C 30.873,45.826 28.312,45.399 27.943,47.088 C 27.483,49.187 24.83,51.035 23.267,52.3 C 21.64,53.616 18.995,55.8 16.767,55.758 C 14.831,55.72 14.834,58.72 16.767,58.756 L 16.767,58.756 z"
   id="path19"
   style="fill:#a3131c" />
		</g>
	</g>
	<g
   id="g21">
		<path
   d="M 33.324,50.877 C 36.037,50.877 39.838,46.398 41.873,44.634 C 44.723,42.462 46.352,40.969 47.437,37.443 C 48.524,44.5 42.551,57.12 33.731,51.149"
   id="path23"
   style="fill:#a3131c" />
		<g
   id="g25">
			<path
   d="M 33.324,52.377 C 36.954,52.023 39.627,48.856 42.094,46.47 C 45.008,43.65 47.541,41.858 48.884,37.841 C 47.902,37.708 46.92,37.575 45.938,37.443 C 46.733,43.687 42.198,54.719 34.489,49.854 C 32.848,48.818 31.344,51.415 32.975,52.444 C 42.694,58.578 50.046,46.146 48.938,37.443 C 48.73,35.806 46.559,35.348 45.992,37.045 C 44.911,40.277 42.839,41.754 40.412,43.935 C 38.48,45.671 36.093,49.109 33.325,49.378 C 31.417,49.563 31.399,52.564 33.324,52.377 L 33.324,52.377 z"
   id="path27"
   style="fill:#a3131c" />
		</g>
	</g>
	<g
   id="g29">
		<path
   d="M 12.56,39.341 C 14.188,37.034 16.495,35.678 18.667,33.914 C 21.246,32.013 21.517,29.977 23.281,27.806 C 23.824,30.248 24.148,32.568 23.01,35.137 C 19.888,36.491 16.36,36.086 13.51,38.255"
   id="path31"
   style="fill:#a3131c" />
		<g
   id="g33">
			<path
   d="M 13.855,40.098 C 15.601,37.797 18.15,36.244 20.376,34.453 C 22.269,32.931 23.139,30.456 24.576,28.563 C 23.662,28.443 22.748,28.324 21.834,28.205 C 22.325,30.511 22.436,32.508 21.563,34.738 C 21.912,34.388 22.261,34.039 22.61,33.69 C 19.33,34.977 15.735,34.907 12.752,36.96 C 11.169,38.048 12.667,40.649 14.266,39.55 C 17.16,37.56 20.829,38.154 23.766,36.432 C 24.799,35.828 25.056,33.944 25.172,32.882 C 25.377,31.014 25.115,29.236 24.726,27.407 C 24.426,25.996 22.693,26.115 21.984,27.049 C 20.187,29.418 19.151,31.683 16.715,33.549 C 14.705,35.087 12.805,36.552 11.263,38.584 C 10.094,40.126 12.701,41.617 13.855,40.098 L 13.855,40.098 z"
   id="path35"
   style="fill:#a3131c" />
		</g>
	</g>
	<g
   id="g37">
		<path
   d="M 12.288,24.549 C 9.166,25.363 6.452,27.806 5.367,30.927 C 4.96,26.857 7.946,24.007 12.016,24.413"
   id="path39"
   style="fill:#ffffff" />
		<g
   id="g41">
			<path
   d="M 11.989,23.464 C 8.375,24.49 5.589,27.119 4.281,30.628 C 5.018,30.728 5.754,30.827 6.491,30.927 C 6.232,27.47 8.604,25.28 12.015,25.538 C 13.463,25.648 13.453,23.397 12.015,23.288 C 7.448,22.942 3.895,26.314 4.241,30.927 C 4.338,32.221 6.004,32.424 6.451,31.226 C 7.478,28.469 9.771,26.434 12.586,25.634 C 13.98,25.238 13.388,23.067 11.989,23.464 L 11.989,23.464 z"
   id="path43"
   style="fill:#ffffff" />
		</g>
	</g>
	<g
   id="g45">
		<path
   d="M 13.373,47.484 C 11.474,43.276 16.631,37.713 20.974,39.476 C 18.124,41.513 13.916,42.868 13.645,47.212"
   id="path47"
   style="fill:#ffffff" />
		<g
   id="g49">
			<path
   d="M 14.096,47.285 C 12.543,43.421 16.787,38.773 20.774,40.2 C 20.714,39.743 20.654,39.286 20.595,38.829 C 17.279,41.137 13.329,42.662 12.894,47.213 C 12.802,48.176 14.303,48.167 14.394,47.213 C 14.759,43.392 18.604,42.036 21.352,40.124 C 21.899,39.743 21.804,38.979 21.173,38.753 C 16.178,36.966 10.681,42.783 12.65,47.684 C 13.006,48.569 14.457,48.184 14.096,47.285 L 14.096,47.285 z"
   id="path51"
   style="fill:#ffffff" />
		</g>
	</g>
	<g
   id="g53">
		<path
   d="M 28.438,36.491 C 30.609,35.269 34.41,30.927 36.988,33.506 C 34.951,34.592 30.745,35.949 29.66,38.122 C 29.252,37.851 28.709,37.308 28.438,36.765"
   id="path55"
   style="fill:#ffffff" />
		<g
   id="g57">
			<path
   d="M 28.816,37.139 C 30.712,36.004 34.159,32.006 36.458,34.036 C 36.509,33.643 36.56,33.251 36.609,32.858 C 34.029,34.186 30.557,35.063 29.012,37.743 C 29.354,37.654 29.696,37.564 30.038,37.474 C 29.639,37.183 29.322,36.821 29.085,36.385 C 28.579,35.564 27.281,36.317 27.79,37.143 C 28.194,37.799 28.672,38.299 29.281,38.769 C 29.604,39.018 30.122,38.821 30.307,38.5 C 31.668,36.139 35.083,35.327 37.367,34.152 C 37.781,33.939 37.87,33.285 37.518,32.974 C 34.253,30.09 30.786,34.209 28.059,35.842 C 27.23,36.34 27.984,37.637 28.816,37.139 L 28.816,37.139 z"
   id="path59"
   style="fill:#ffffff" />
		</g>
	</g>
	<g
   id="g61">
		<path
   d="M 23.959,24.142 C 25.452,27.264 25.044,28.213 28.166,26.313 C 30.202,25.091 32.238,24.006 34.137,22.648 C 33.188,25.363 32.509,28.484 31.423,31.062 C 35.088,30.248 37.353,31.334 36.988,26.449 C 36.675,22.251 38.48,18.305 34.545,15.727 C 31.966,20.341 29.253,22.377 24.367,23.87"
   id="path63"
   style="fill:#8e5a19" />
		<g
   id="g65">
			<path
   d="M 23.312,24.52 C 23.723,25.418 24.391,28.202 25.9,28.038 C 28.858,27.716 32.139,24.925 34.517,23.296 C 34.149,23.014 33.782,22.732 33.414,22.449 C 32.478,25.246 31.788,28.117 30.7,30.863 C 30.471,31.441 31.124,31.884 31.622,31.786 C 34.914,31.14 37.618,31.391 37.776,27.349 C 37.948,22.978 38.826,18 34.923,15.079 C 34.596,14.834 34.084,15.024 33.897,15.348 C 31.555,19.388 28.607,21.722 24.167,23.146 C 23.25,23.44 23.642,24.889 24.565,24.592 C 29.364,23.052 32.657,20.476 35.191,16.104 C 34.849,16.194 34.507,16.284 34.165,16.373 C 37.258,18.688 36.224,22.299 36.2,25.612 C 36.19,27.113 36.764,29.216 34.87,29.769 C 33.719,30.105 32.407,30.106 31.223,30.337 C 31.53,30.645 31.838,30.952 32.145,31.26 C 33.233,28.515 33.924,25.643 34.86,22.846 C 35.062,22.24 34.296,21.63 33.758,21.999 C 31.826,23.322 29.8,24.473 27.786,25.664 C 25.52,27.003 25.43,25.567 24.605,23.762 C 24.206,22.884 22.913,23.647 23.312,24.52 L 23.312,24.52 z"
   id="path67"
   style="fill:#8e5a19" />
		</g>
	</g>
	<g
   id="g69">
		<path
   d="M 39.975,21.699 C 39.975,24.413 38.617,31.335 42.281,31.335 C 42.688,27.941 45.132,21.428 39.975,21.292"
   id="path71"
   style="fill:#8e5a19" />
		<g
   id="g73">
			<path
   d="M 39.225,21.699 C 39.18,24.703 37.589,31.782 42.281,32.085 C 42.728,32.114 42.979,31.719 43.031,31.335 C 43.533,27.595 45.823,20.937 39.975,20.542 C 39.009,20.477 39.015,21.977 39.975,22.042 C 44.278,22.333 41.882,28.711 41.531,31.335 C 41.781,31.085 42.031,30.835 42.281,30.585 C 39.289,30.392 40.696,23.614 40.725,21.699 C 40.739,20.731 39.239,20.732 39.225,21.699 L 39.225,21.699 z"
   id="path75"
   style="fill:#8e5a19" />
		</g>
	</g>
	<g
   id="g77">
		<path
   d="M 36.174,7.178 C 40.653,7.314 45.538,12.877 49.067,15.048 C 51.102,16.405 53.953,19.255 55.717,20.884 C 57.481,22.513 59.061,22.745 60.689,24.374 C 57.162,26.003 48.795,22.784 45.267,21.699 C 39.16,19.934 34.888,14.37 36.038,8.534"
   id="path79"
   style="fill:#4e9b2a" />
		<g
   id="g81">
			<path
   d="M 36.174,8.678 C 40.968,9.282 44.476,13.779 48.31,16.343 C 50.332,17.696 52.078,19.514 53.839,21.179 C 55.629,22.871 57.739,23.875 59.628,25.434 C 59.849,24.599 60.069,23.763 60.29,22.927 C 56.294,24.268 51.263,22.079 47.445,20.827 C 41.584,18.904 36.666,15.378 37.537,8.534 C 37.781,6.618 34.778,6.642 34.537,8.534 C 33.754,14.682 37.579,20.638 43.492,22.672 C 48.69,24.46 55.554,27.678 61.087,25.82 C 62.061,25.493 62.679,24.08 61.749,23.313 C 59.56,21.506 57.117,20.152 55.043,18.191 C 53.104,16.357 51.134,14.629 48.914,13.144 C 44.684,10.314 41.493,6.348 36.174,5.678 C 34.258,5.437 34.281,8.44 36.174,8.678 L 36.174,8.678 z"
   id="path83"
   style="fill:#4e9b2a" />
		</g>
	</g>
	<g
   id="g85">
		<path
   d="M 35.767,6.499 C 40.653,5.685 45.809,4.735 49.609,8.67 C 51.645,10.706 52.732,13.149 54.224,15.591 C 55.717,17.762 57.618,19.663 58.567,22.105 C 56.803,21.563 54.902,19.254 53.275,18.169 C 51.375,16.947 49.609,15.862 47.846,14.504 C 44.86,12.334 40.381,7.583 36.989,6.633"
   id="path87"
   style="fill:#7cb623" />
		<g
   id="g89">
			<path
   d="M 36.165,7.945 C 42.361,6.919 47.083,6.924 50.825,12.735 C 52.943,16.025 55.628,19.322 57.271,22.862 C 57.955,22.178 58.639,21.494 59.323,20.81 C 57.327,19.854 55.777,18.218 54.031,16.874 C 51.806,15.162 49.329,13.84 47.144,12.043 C 44.053,9.5 41.211,6.59 37.386,5.188 C 35.566,4.52 34.788,7.42 36.589,8.081 C 40.368,9.468 43.11,12.753 46.238,15.15 C 48.261,16.701 50.37,18.092 52.516,19.466 C 54.443,20.699 55.718,22.4 57.808,23.402 C 59.207,24.072 60.503,22.735 59.86,21.35 C 58.543,18.512 56.377,16.294 54.798,13.617 C 53.271,11.024 51.858,8.676 49.599,6.655 C 45.757,3.219 39.939,4.297 35.367,5.054 C 33.463,5.368 34.273,8.259 36.165,7.945 L 36.165,7.945 z"
   id="path91"
   style="fill:#7cb623" />
		</g>
	</g>
	<g
   id="g93">
		<g
   id="g95">
			<path
   d="M 25.949,35.668 C 27.341,29.772 26.741,24.404 21.45,20.703 C 17.598,18.009 8.792,17.422 5.197,20.874 C -0.942,26.769 0.439,41.931 9.718,44.045 C 11.602,44.475 12.402,41.582 10.516,41.152 C 3.813,39.625 3.335,29.203 6.17,24.316 C 8.248,20.733 14.2,21.48 17.529,22.289 C 23.652,23.775 24.258,29.779 23.057,34.872 C 22.612,36.752 25.505,37.551 25.949,35.668 L 25.949,35.668 z"
   id="path97" />
		</g>
	</g>
	<g
   id="g99">
		<g
   id="g101">
			<path
   d="M 30.991,37.333 C 25.903,32.657 17.826,35.095 12.854,38.691 C 6.635,43.189 5.362,50.465 10.857,56.097 C 23.019,68.563 45.188,49.32 30.991,37.333 C 29.523,36.093 27.389,38.204 28.87,39.454 C 33.734,43.561 33.654,49.21 29.243,53.634 C 24.618,58.273 17.713,58.336 12.978,53.977 C 3.644,45.381 21.495,32.676 28.87,39.455 C 30.292,40.761 32.418,38.645 30.991,37.333 L 30.991,37.333 z"
   id="path103" />
		</g>
	</g>
	<g
   id="g105">
		<g
   id="g107">
			<path
   d="M 28.241,36.3 C 32.806,29.896 43.736,31.48 46.67,38.654 C 49.661,45.966 40.725,55.481 33.673,50.805 C 32.056,49.732 30.555,52.331 32.159,53.395 C 41.991,59.916 52.251,47.589 49.562,37.857 C 46.686,27.444 31.266,26.908 25.649,34.787 C 24.524,36.365 27.128,37.86 28.241,36.3 L 28.241,36.3 z"
   id="path109" />
		</g>
	</g>
	<g
   id="g111">
		<g
   id="g113">
			<path
   d="M 21.932,24.502 C 28.773,26.058 32.975,20.244 36.183,15.127 C 37.214,13.482 34.618,11.978 33.592,13.612 C 31.216,17.403 27.98,22.804 22.73,21.61 C 20.846,21.181 20.046,24.074 21.932,24.502 L 21.932,24.502 z"
   id="path115" />
		</g>
	</g>
	<g
   id="g117">
		<g
   id="g119">
			<path
   d="M 25.173,29.931 C 30.713,28.802 34.654,24.066 37.469,19.471 C 38.483,17.816 35.887,16.31 34.879,17.956 C 32.455,21.913 29.157,26.063 24.375,27.038 C 22.48,27.424 23.284,30.315 25.173,29.931 L 25.173,29.931 z"
   id="path121" />
		</g>
	</g>
	<g
   id="g123">
		<g
   id="g125">
			<path
   d="M 31.226,33.325 C 32.832,30.009 33.928,26.456 34.906,22.912 C 35.422,21.044 32.527,20.252 32.013,22.114 C 31.105,25.402 30.125,28.733 28.635,31.811 C 27.796,33.544 30.383,35.066 31.226,33.325 L 31.226,33.325 z"
   id="path127" />
		</g>
	</g>
	<g
   id="g129">
		<g
   id="g131">
			<path
   d="M 38.76,30.387 C 38.69,26.908 37.886,23.535 39.247,20.198 C 39.978,18.406 37.075,17.634 36.354,19.4 C 34.883,23.006 35.683,26.629 35.759,30.387 C 35.799,32.318 38.799,32.322 38.76,30.387 L 38.76,30.387 z"
   id="path133" />
		</g>
	</g>
	<g
   id="g135">
		<g
   id="g137">
			<path
   d="M 41.202,30.387 C 41.458,27.219 40.965,24.052 40.931,20.885 C 40.91,18.951 37.91,18.949 37.931,20.885 C 37.965,24.052 38.458,27.219 38.202,30.387 C 38.046,32.316 41.047,32.301 41.202,30.387 L 41.202,30.387 z"
   id="path139" />
		</g>
	</g>
	<g
   id="g141">
		<g
   id="g143">
			<path
   d="M 44.188,31.47 C 44.445,28.977 44.489,26.467 44.948,23.998 C 45.3,22.107 42.409,21.3 42.055,23.2 C 41.546,25.937 41.472,28.707 41.188,31.47 C 40.989,33.394 43.991,33.374 44.188,31.47 L 44.188,31.47 z"
   id="path145" />
		</g>
	</g>
	<g
   id="g147">
		<g
   id="g149">
			<path
   d="M 33.913,6.372 C 28.692,22.686 49.209,26.918 61.145,26.727 C 63.078,26.696 63.081,23.696 61.145,23.727 C 51.322,23.884 32.314,21.204 36.805,7.169 C 37.397,5.321 34.5,4.537 33.913,6.372 L 33.913,6.372 z"
   id="path151" />
		</g>
	</g>
	<g
   id="g153">
		<g
   id="g155">
			<path
   d="M 35.845,8.066 C 48.917,0.498 54.946,16.802 59.851,25.984 C 60.762,27.691 63.352,26.175 62.441,24.469 C 56.594,13.526 49.346,-3.218 34.331,5.475 C 32.658,6.444 34.168,9.037 35.845,8.066 L 35.845,8.066 z"
   id="path157" />
		</g>
	</g>
</g>
</svg>