<?xml version="1.0" encoding="UTF-8" standalone="no"?>
<!-- Created with Inkscape (http://www.inkscape.org/) -->

<svg
   xmlns:dc="http://purl.org/dc/elements/1.1/"
   xmlns:cc="http://creativecommons.org/ns#"
   xmlns:rdf="http://www.w3.org/1999/02/22-rdf-syntax-ns#"
   xmlns:svg="http://www.w3.org/2000/svg"
   xmlns="http://www.w3.org/2000/svg"
   xmlns:sodipodi="http://sodipodi.sourceforge.net/DTD/sodipodi-0.dtd"
   xmlns:inkscape="http://www.inkscape.org/namespaces/inkscape"
   width="480"
   height="320"
   id="svg2"
   version="1.1"
   inkscape:version="0.48.1 "
   sodipodi:docname="New document 1">
  <defs
     id="defs4" />
  <sodipodi:namedview
     id="base"
     pagecolor="#ffffff"
     bordercolor="#666666"
     borderopacity="1.0"
     inkscape:pageopacity="0.0"
     inkscape:pageshadow="2"
     inkscape:zoom="1.6416667"
     inkscape:cx="240"
     inkscape:cy="160"
     inkscape:document-units="px"
     inkscape:current-layer="layer1"
     showgrid="false"
     inkscape:window-width="1280"
     inkscape:window-height="962"
     inkscape:window-x="1272"
     inkscape:window-y="-8"
     inkscape:window-maximized="1" />
  <metadata
     id="metadata7">
    <rdf:RDF>
      <cc:Work
         rdf:about="">
        <dc:format>image/svg+xml</dc:format>
        <dc:type
           rdf:resource="http://purl.org/dc/dcmitype/StillImage" />
        <dc:title></dc:title>
      </cc:Work>
    </rdf:RDF>
  </metadata>
  <g
     inkscape:label="Layer 1"
     inkscape:groupmode="layer"
     id="layer1"
     transform="translate(0,-732.36218)">
    <rect
       style="fill:#babdb6;fill-opacity:1;stroke:none"
       id="rect4258"
       width="480"
       height="320"
       x="0"
       y="732.97137" />
    <rect
       style="fill:#d3d7cf;fill-opacity:1;stroke:none"
       id="rect4264"
       width="324.06091"
       height="211.97969"
       x="75.532997"
       y="27.005075"
       transform="translate(0,732.36218)" />
    <rect
       style="fill:#555753;fill-opacity:1;stroke:#000000;stroke-width:2;stroke-miterlimit:4;stroke-opacity:1;stroke-dasharray:none"
       id="rect3982"
       width="15.228426"
       height="289.34009"
       x="442.84265"
       y="749.7757"
       rx="7.614213"
       ry="7.614213" />
    <g
       id="g3992"
       transform="translate(77.055878,-31.06599)">
      <path
         transform="translate(0,732.36218)"
         d="m 398.98476,89.746193 c 0,14.129517 -11.45424,25.583757 -25.58376,25.583757 -14.12952,0 -25.58375,-11.45424 -25.58375,-25.583757 0,-14.129518 11.45423,-25.583756 25.58375,-25.583756 14.12952,0 25.58376,11.454238 25.58376,25.583756 z"
         sodipodi:ry="25.583755"
         sodipodi:rx="25.583755"
         sodipodi:cy="89.746193"
         sodipodi:cx="373.401"
         id="path3984"
         style="fill:#a40000;fill-opacity:1;stroke:#000000;stroke-width:2;stroke-miterlimit:4;stroke-opacity:1;stroke-dasharray:none"
         sodipodi:type="arc" />
      <path
         id="path3986"
         transform="translate(0,732.36218)"
         d="M 373.40625,68.84375 C 361.86683,68.84375 352.5,78.210579 352.5,89.75 c 0,5.698162 2.30129,10.85563 6,14.625 -0.71592,-2.10894 -1.125,-4.36781 -1.125,-6.71875 0,-11.539421 9.36683,-20.875 20.90625,-20.875 5.83369,0 11.11571,2.394772 14.90625,6.25 -2.79676,-8.245059 -10.59104,-14.1875 -19.78125,-14.1875 z"
         style="fill:#cc0000;fill-opacity:1;stroke:none"
         inkscape:connector-curvature="0" />
    </g>
    <path
       id="path4079"
       d="m 91.349184,757.45744 c -13.66953,0 -24.691328,10.77537 -24.691328,24.17547 l 0,170.16264 c 0,13.40012 11.021798,24.20468 24.691328,24.20468 l 289.296586,0 c 13.66953,0 24.69134,-10.80456 24.69134,-24.20468 l 0,-170.16264 c 0,-13.4001 -11.02181,-24.17547 -24.69134,-24.17547 l -289.296586,0 z m 24.601976,18.56957 240.09265,0 c 11.3441,0 20.49171,8.96732 20.49171,20.08783 l 0,141.22799 c 0,11.12051 -9.14761,20.05863 -20.49171,20.05863 l -240.09265,0 c -11.34409,0 -20.491715,-8.93812 -20.491715,-20.05863 l 0,-141.22799 c 0,-11.12051 9.147625,-20.08783 20.491715,-20.08783 z"
       style="fill:#204a87;fill-opacity:1;stroke:#000000;stroke-width:1.88732755;stroke-miterlimit:4;stroke-opacity:1;stroke-dasharray:none"
       inkscape:connector-curvature="0" />
    <path
       inkscape:connector-curvature="0"
       style="fill:#3465a4;fill-opacity:1;stroke:#000000;stroke-width:2;stroke-miterlimit:4;stroke-opacity:1;stroke-dasharray:none"
       d="m 84.231857,749.77571 c -14.342132,0 -25.90625,11.53287 -25.90625,25.875 l 0,182.125 c 0,14.34213 11.564118,25.90625 25.90625,25.90625 l 303.531253,0 c 14.34213,0 25.90625,-11.56412 25.90625,-25.90625 l 0,-182.125 c 0,-14.34213 -11.56412,-25.875 -25.90625,-25.875 l -303.531253,0 z m 25.812503,19.875 251.90625,0 c 11.90228,0 21.5,9.59772 21.5,21.5 l 0,151.15625 c 0,11.90228 -9.59772,21.46875 -21.5,21.46875 l -251.90625,0 c -11.902284,0 -21.500003,-9.56647 -21.500003,-21.46875 l 0,-151.15625 c 0,-11.90228 9.597719,-21.5 21.500003,-21.5 z"
       id="rect3996" />
    <rect
       style="fill:#2e3436;fill-opacity:1;stroke:#000000;stroke-width:1.65782797;stroke-miterlimit:4;stroke-opacity:1;stroke-dasharray:none"
       id="rect3998"
       width="7.5738325"
       height="57.561134"
       x="30.984585"
       y="749.62109"
       rx="6.3115273"
       ry="6.3115273" />
    <text
       xml:space="preserve"
       style="font-size:40px;font-style:normal;font-weight:normal;line-height:125%;letter-spacing:0px;word-spacing:0px;fill:#000000;fill-opacity:1;stroke:none;font-family:Sans"
       x="51.776649"
       y="1039.2808"
       id="text4072"
       sodipodi:linespacing="125%"><tspan
         sodipodi:role="line"
         id="tspan4074"
         x="51.776649"
         y="1039.2808">X 333</tspan></text>
    <g
       id="g4188"
       transform="translate(0,168.73096)">
      <path
         transform="matrix(0.68674696,0,0.24995441,0.68674696,-60.044992,870.00391)"
         d="m 148.0203,-21.116751 c 0,12.447433 -10.09064,22.538071 -22.53807,22.538071 -12.44743,0 -22.53807,-10.090638 -22.53807,-22.538071 0,-12.447432 10.09064,-22.53807 22.53807,-22.53807 12.44743,0 22.53807,10.090638 22.53807,22.53807 z"
         sodipodi:ry="22.538071"
         sodipodi:rx="22.538071"
         sodipodi:cy="-21.116751"
         sodipodi:cx="125.48223"
         id="path4190"
         style="fill:#edd400;fill-opacity:1;stroke:#000000;stroke-width:2;stroke-miterlimit:4;stroke-opacity:1;stroke-dasharray:none"
         sodipodi:type="arc" />
      <path
         sodipodi:type="arc"
         style="fill:#edd400;fill-opacity:1;stroke:#000000;stroke-width:2;stroke-miterlimit:4;stroke-opacity:1;stroke-dasharray:none"
         id="path4192"
         sodipodi:cx="125.48223"
         sodipodi:cy="-21.116751"
         sodipodi:rx="22.538071"
         sodipodi:ry="22.538071"
         d="m 148.0203,-21.116751 c 0,12.447433 -10.09064,22.538071 -22.53807,22.538071 -12.44743,0 -22.53807,-10.090638 -22.53807,-22.538071 0,-12.447432 10.09064,-22.53807 22.53807,-22.53807 12.44743,0 22.53807,10.090638 22.53807,22.53807 z"
         transform="matrix(0.68674696,0,0.24995441,0.68674696,-58.671498,867.6125)" />
      <path
         style="fill:#fce94f;fill-opacity:1;stroke:none"
         d="m 28.75,115.0625 c 2.567352,6.86386 -1.45334,12.34375 -9.21875,12.34375 -1.009276,0 -2.039921,-0.0733 -3.0625,-0.25 2.760055,2.38557 6.218875,3.90625 9.5,3.90625 5.703851,0 8.669773,-4.60865 6.59375,-10.3125 -0.766226,-2.1052 -2.13664,-4.05471 -3.8125,-5.6875 z"
         transform="translate(0,732.36218)"
         id="path4194"
         inkscape:connector-curvature="0" />
    </g>
    <g
       id="g4167"
       transform="translate(0,-14.010152)">
      <path
         sodipodi:type="arc"
         style="fill:#edd400;fill-opacity:1;stroke:#000000;stroke-width:2;stroke-miterlimit:4;stroke-opacity:1;stroke-dasharray:none"
         id="path4006"
         sodipodi:cx="125.48223"
         sodipodi:cy="-21.116751"
         sodipodi:rx="22.538071"
         sodipodi:ry="22.538071"
         d="m 148.0203,-21.116751 c 0,12.447433 -10.09064,22.538071 -22.53807,22.538071 -12.44743,0 -22.53807,-10.090638 -22.53807,-22.538071 0,-12.447432 10.09064,-22.53807 22.53807,-22.53807 12.44743,0 22.53807,10.090638 22.53807,22.53807 z"
         transform="matrix(0.68674696,0,0.24995441,0.68674696,-60.044992,870.00391)" />
      <path
         transform="matrix(0.68674696,0,0.24995441,0.68674696,-58.671498,867.6125)"
         d="m 148.0203,-21.116751 c 0,12.447433 -10.09064,22.538071 -22.53807,22.538071 -12.44743,0 -22.53807,-10.090638 -22.53807,-22.538071 0,-12.447432 10.09064,-22.53807 22.53807,-22.53807 12.44743,0 22.53807,10.090638 22.53807,22.53807 z"
         sodipodi:ry="22.538071"
         sodipodi:rx="22.538071"
         sodipodi:cy="-21.116751"
         sodipodi:cx="125.48223"
         id="path4004"
         style="fill:#edd400;fill-opacity:1;stroke:#000000;stroke-width:2;stroke-miterlimit:4;stroke-opacity:1;stroke-dasharray:none"
         sodipodi:type="arc" />
      <path
         inkscape:connector-curvature="0"
         id="path4113"
         transform="translate(0,732.36218)"
         d="m 28.75,115.0625 c 2.567352,6.86386 -1.45334,12.34375 -9.21875,12.34375 -1.009276,0 -2.039921,-0.0733 -3.0625,-0.25 2.760055,2.38557 6.218875,3.90625 9.5,3.90625 5.703851,0 8.669773,-4.60865 6.59375,-10.3125 -0.766226,-2.1052 -2.13664,-4.05471 -3.8125,-5.6875 z"
         style="fill:#fce94f;fill-opacity:1;stroke:none" />
    </g>
    <g
       id="g4172"
       transform="translate(0,32.284259)">
      <path
         transform="matrix(0.68674696,0,0.24995441,0.68674696,-60.044992,870.00391)"
         d="m 148.0203,-21.116751 c 0,12.447433 -10.09064,22.538071 -22.53807,22.538071 -12.44743,0 -22.53807,-10.090638 -22.53807,-22.538071 0,-12.447432 10.09064,-22.53807 22.53807,-22.53807 12.44743,0 22.53807,10.090638 22.53807,22.53807 z"
         sodipodi:ry="22.538071"
         sodipodi:rx="22.538071"
         sodipodi:cy="-21.116751"
         sodipodi:cx="125.48223"
         id="path4174"
         style="fill:#edd400;fill-opacity:1;stroke:#000000;stroke-width:2;stroke-miterlimit:4;stroke-opacity:1;stroke-dasharray:none"
         sodipodi:type="arc" />
      <path
         sodipodi:type="arc"
         style="fill:#edd400;fill-opacity:1;stroke:#000000;stroke-width:2;stroke-miterlimit:4;stroke-opacity:1;stroke-dasharray:none"
         id="path4176"
         sodipodi:cx="125.48223"
         sodipodi:cy="-21.116751"
         sodipodi:rx="22.538071"
         sodipodi:ry="22.538071"
         d="m 148.0203,-21.116751 c 0,12.447433 -10.09064,22.538071 -22.53807,22.538071 -12.44743,0 -22.53807,-10.090638 -22.53807,-22.538071 0,-12.447432 10.09064,-22.53807 22.53807,-22.53807 12.44743,0 22.53807,10.090638 22.53807,22.53807 z"
         transform="matrix(0.68674696,0,0.24995441,0.68674696,-58.671498,867.6125)" />
      <path
         style="fill:#fce94f;fill-opacity:1;stroke:none"
         d="m 28.75,115.0625 c 2.567352,6.86386 -1.45334,12.34375 -9.21875,12.34375 -1.009276,0 -2.039921,-0.0733 -3.0625,-0.25 2.760055,2.38557 6.218875,3.90625 9.5,3.90625 5.703851,0 8.669773,-4.60865 6.59375,-10.3125 -0.766226,-2.1052 -2.13664,-4.05471 -3.8125,-5.6875 z"
         transform="translate(0,732.36218)"
         id="path4178"
         inkscape:connector-curvature="0" />
    </g>
    <g
       transform="translate(0,78.57868)"
       id="g4180">
      <path
         sodipodi:type="arc"
         style="fill:#edd400;fill-opacity:1;stroke:#000000;stroke-width:2;stroke-miterlimit:4;stroke-opacity:1;stroke-dasharray:none"
         id="path4182"
         sodipodi:cx="125.48223"
         sodipodi:cy="-21.116751"
         sodipodi:rx="22.538071"
         sodipodi:ry="22.538071"
         d="m 148.0203,-21.116751 c 0,12.447433 -10.09064,22.538071 -22.53807,22.538071 -12.44743,0 -22.53807,-10.090638 -22.53807,-22.538071 0,-12.447432 10.09064,-22.53807 22.53807,-22.53807 12.44743,0 22.53807,10.090638 22.53807,22.53807 z"
         transform="matrix(0.68674696,0,0.24995441,0.68674696,-60.044992,870.00391)" />
      <path
         transform="matrix(0.68674696,0,0.24995441,0.68674696,-58.671498,867.6125)"
         d="m 148.0203,-21.116751 c 0,12.447433 -10.09064,22.538071 -22.53807,22.538071 -12.44743,0 -22.53807,-10.090638 -22.53807,-22.538071 0,-12.447432 10.09064,-22.53807 22.53807,-22.53807 12.44743,0 22.53807,10.090638 22.53807,22.53807 z"
         sodipodi:ry="22.538071"
         sodipodi:rx="22.538071"
         sodipodi:cy="-21.116751"
         sodipodi:cx="125.48223"
         id="path4184"
         style="fill:#edd400;fill-opacity:1;stroke:#000000;stroke-width:2;stroke-miterlimit:4;stroke-opacity:1;stroke-dasharray:none"
         sodipodi:type="arc" />
      <path
         inkscape:connector-curvature="0"
         id="path4186"
         transform="translate(0,732.36218)"
         d="m 28.75,115.0625 c 2.567352,6.86386 -1.45334,12.34375 -9.21875,12.34375 -1.009276,0 -2.039921,-0.0733 -3.0625,-0.25 2.760055,2.38557 6.218875,3.90625 9.5,3.90625 5.703851,0 8.669773,-4.60865 6.59375,-10.3125 -0.766226,-2.1052 -2.13664,-4.05471 -3.8125,-5.6875 z"
         style="fill:#fce94f;fill-opacity:1;stroke:none" />
    </g>
    <path
       sodipodi:type="star"
       style="fill:#cc0000;fill-opacity:1;stroke:#000000;stroke-width:1;stroke-miterlimit:4;stroke-opacity:1;stroke-dasharray:none"
       id="path4230"
       sodipodi:sides="4"
       sodipodi:cx="102.33503"
       sodipodi:cy="-37.563454"
       sodipodi:r1="19.03005"
       sodipodi:r2="1.7127045"
       sodipodi:arg1="0.87605805"
       sodipodi:arg2="1.6614562"
       inkscape:flatsided="false"
       inkscape:rounded="0"
       inkscape:randomized="0"
       d="m 114.51777,-22.944164 -12.3378,-12.913619 -14.46423,10.477071 12.91362,-12.337803 -10.477072,-14.464228 12.337802,12.913619 14.46423,-10.477071 -12.91362,12.337802 z"
       transform="matrix(1.1611549,0,0,1.1611549,-97.28875,976.50201)" />
  </g>
</svg>
